AndadaPro-Italic.ufo
<glyph name="ampersand" format="2">
  <advance width="840.5"/>
  <unicode hex="0026"/>
  <outline>
    <contour>
      <point x="202" y="-10" type="curve" smooth="yes"/>
      <point x="419" y="-10"/>
      <point x="612" y="237"/>
      <point x="612" y="505" type="curve" smooth="yes"/>
      <point x="612" y="549"/>
      <point x="605" y="591"/>
      <point x="591" y="651" type="curve"/>
      <point x="503" y="625" type="line"/>
      <point x="532" y="562"/>
      <point x="545" y="496"/>
      <point x="545" y="433" type="curve" smooth="yes"/>
      <point x="545" y="260"/>
      <point x="388" y="60"/>
      <point x="245" y="60" type="curve" smooth="yes"/>
      <point x="177" y="60"/>
      <point x="154" y="88"/>
      <point x="154" y="166" type="curve" smooth="yes"/>
      <point x="154" y="287"/>
      <point x="236" y="447"/>
      <point x="298" y="447" type="curve" smooth="yes"/>
      <point x="356" y="447"/>
      <point x="374" y="435"/>
      <point x="374" y="397" type="curve" smooth="yes"/>
      <point x="374" y="336"/>
      <point x="306" y="291"/>
      <point x="164" y="256" type="curve"/>
      <point x="224" y="270"/>
      <point x="284" y="284"/>
      <point x="344" y="298" type="curve"/>
      <point x="418" y="344"/>
      <point x="450" y="381"/>
      <point x="450" y="415" type="curve" smooth="yes"/>
      <point x="450" y="475"/>
      <point x="410" y="503"/>
      <point x="324" y="503" type="curve" smooth="yes"/>
      <point x="216" y="503"/>
      <point x="73" y="303"/>
      <point x="73" y="153" type="curve" smooth="yes"/>
      <point x="73" y="45"/>
      <point x="116" y="-10"/>
    </contour>
    <contour>
      <point x="153" y="205" type="line"/>
      <point x="400" y="250"/>
      <point x="563" y="380"/>
      <point x="804" y="485" type="curve"/>
      <point x="810" y="515" type="line"/>
      <point x="755" y="565" type="line"/>
      <point x="631" y="446"/>
      <point x="394" y="295"/>
      <point x="155" y="255" type="curve"/>
    </contour>
  </outline>
</glyph>
<glyph name="quotesingle" format="2">
  <advance width="288.3"/>
  <unicode hex="0027"/>
  <outline>
    <contour>
      <point x="189" y="463" type="line"/>
      <point x="248" y="706" type="line"/>
      <point x="166" y="706" type="line"/>
      <point x="162" y="651"/>
      <point x="152" y="570"/>
      <point x="150" y="560" type="curve" smooth="yes"/>
      <point x="132" y="466" type="line"/>
    </contour>
  </outline>
</glyph>
<glyph name="parenleft" format="2">
  <advance width="384"/>
  <unicode hex="0028"/>
  <outline>
    <contour>
      <point x="244" y="-103" type="curve"/>
      <point x="267" y="-89" type="line"/>
      <point x="211" y="31"/>
      <point x="183" y="151"/>
      <point x="183" y="268" type="curve" smooth="yes"/>
      <point x="183" y="455"/>
      <point x="259" y="636"/>
      <point x="377" y="801" type="curve"/>
      <point x="355" y="821" type="line"/>
      <point x="200" y="675"/>
      <point x="99" y="493"/>
      <point x="99" y="284" type="curve" smooth="yes"/>
      <point x="99" y="137"/>
      <point x="152" y="8"/>
    </contour>
  </outline>
</glyph>
<glyph name="asterisk" format="2">
  <advance width="464.3"/>
  <unicode hex="002A"/>
  <outline>
    <contour>
      <point x="171" y="429" type="line"/>
      <point x="289" y="573" type="line"/>
      <point x="255" y="602" type="line"/>
      <point x="121" y="471" type="line"/>
    </contour>
    <contour>
      <point x="270" y="560" type="line"/>
      <point x="290" y="605" type="line"/>
      <point x="139" y="675" type="line"/>
      <point x="110" y="607" type="line"/>
    </contour>
    <contour>
      <point x="334" y="426" type="line"/>
      <point x="392" y="471" type="line"/>
      <point x="297" y="601" type="line"/>
      <point x="255" y="569" type="line"/>
    </contour>
    <contour>
      <point x="246" y="582" type="line"/>
      <point x="294" y="584" type="line"/>
      <point x="325" y="759" type="line"/>
      <point x="257" y="755" type="line"/>
    </contour>
    <contour>
      <point x="271" y="561" type="line"/>
      <point x="444" y="609" type="line"/>
      <point x="431" y="675" type="line"/>
      <point x="262" y="606" type="line"/>
    </contour>
  </outline>
</glyph>
<glyph name="plus" format="2">
  <advance width="692.1"/>
  <unicode hex="002B"/>
  <outline>
    <contour>
      <point x="279" y="0" type="line"/>
      <point x="351" y="0" type="line"/>
      <point x="411" y="511" type="line"/>
      <point x="344" y="511" type="line"/>
    </contour>
    <contour>
      <point x="90" y="220" type="line"/>
      <point x="596" y="225" type="line"/>
      <point x="604" y="292" type="line"/>
      <point x="99" y="292" type="line"/>
    </contour>
  </outline>
</glyph>
<glyph name="hyphen" format="2">
  <advance width="357.9"/>
  <unicode hex="002D"/>
  <outline>
    <contour>
      <point x="67" y="225" type="line"/>
      <point x="282" y="225" type="line"/>
      <point x="296" y="286" type="line"/>
      <point x="74" y="286" type="line"/>
    </contour>
  </outline>
</glyph>
<glyph name="period" format="2">
  <advance width="305.1"/>
  <unicode hex="002E"/>
  <outline>
    <contour>
      <point x="116" y="-10" type="curve" smooth="yes"/>
      <point x="159" y="-10"/>
      <point x="189" y="26"/>
      <point x="189" y="74" type="curve" smooth="yes"/>
      <point x="189" y="107"/>
      <point x="172" y="127"/>
      <point x="143" y="127" type="curve" smooth="yes"/>
      <point x="101" y="127"/>
      <point x="70" y="91"/>
      <point x="70" y="43" type="curve" smooth="yes"/>
      <point x="70" y="11"/>
      <point x="86" y="-10"/>
    </contour>
  </outline>
</glyph>
<glyph name="one" format="2">
  <advance width="405.2"/>
  <unicode hex="0031"/>
  <outline>
    <contour>
      <point x="14" y="-5" type="line"/>
      <point x="58" y="-3"/>
      <point x="170" y="0"/>
      <point x="184" y="0" type="curve" smooth="yes"/>
      <point x="341" y="0" type="line"/>
      <point x="355" y="52" type="line"/>
      <point x="213" y="62" type="line"/>
      <point x="246" y="26" type="line"/>
      <point x="246" y="79"/>
      <point x="249" y="117"/>
      <point x="255" y="164" type="curve" smooth="yes"/>
      <point x="290" y="426" type="line" smooth="yes"/>
      <point x="297" y="476"/>
      <point x="329" y="660"/>
      <point x="329" y="660" type="curve"/>
      <point x="286" y="672" type="line"/>
      <point x="66" y="507" type="line"/>
      <point x="86" y="467" type="line"/>
      <point x="257" y="545" type="line"/>
      <point x="230" y="561" type="line"/>
      <point x="172" y="134" type="line" smooth="yes"/>
      <point x="169" y="117"/>
      <point x="151" y="58"/>
      <point x="143" y="26" type="curve"/>
      <point x="187" y="65" type="line"/>
      <point x="16" y="43" type="line"/>
    </contour>
  </outline>
</glyph>
<glyph name="two" format="2">
  <advance width="509.6"/>
  <unicode hex="0032"/>
  <outline>
    <contour>
      <point x="402" y="-3" type="line"/>
      <point x="423" y="17" type="line"/>
      <point x="451" y="154" type="line"/>
      <point x="398" y="158" type="line"/>
      <point x="388" y="110" type="line"/>
      <point x="374" y="79"/>
      <point x="365" y="69"/>
      <point x="351" y="45" type="curve"/>
      <point x="404" y="81" type="line"/>
      <point x="365" y="75"/>
      <point x="305" y="69"/>
      <point x="287" y="69" type="curve" smooth="yes"/>
      <point x="70" y="69" type="line"/>
      <point x="69" y="40" type="line"/>
      <point x="368" y="293"/>
      <point x="469" y="390"/>
      <point x="469" y="527" type="curve" smooth="yes"/>
      <point x="469" y="612"/>
      <point x="406" y="662"/>
      <point x="297" y="662" type="curve" smooth="yes"/>
      <point x="229" y="662"/>
      <point x="183" y="653"/>
      <point x="113" y="626" type="curve"/>
      <point x="106" y="482" type="line"/>
      <point x="158" y="484" type="line"/>
      <point x="163" y="530" type="line" smooth="yes"/>
      <point x="164" y="540"/>
      <point x="181" y="587"/>
      <point x="192" y="615" type="curve"/>
      <point x="153" y="567" type="line"/>
      <point x="203" y="599"/>
      <point x="237" y="610"/>
      <point x="280" y="610" type="curve" smooth="yes"/>
      <point x="339" y="610"/>
      <point x="376" y="569"/>
      <point x="376" y="507" type="curve" smooth="yes"/>
      <point x="376" y="410"/>
      <point x="324" y="357"/>
      <point x="16" y="70" type="curve"/>
      <point x="20" y="0" type="line"/>
      <point x="286" y="0" type="line"/>
    </contour>
  </outline>
</glyph>
<glyph name="three" format="2">
  <advance width="447.1"/>
  <unicode hex="0033"/>
  <outline>
    <contour>
      <point x="-20" y="-105" type="line"/>
      <point x="216" y="-78"/>
      <point x="390" y="45"/>
      <point x="390" y="191" type="curve" smooth="yes"/>
      <point x="390" y="268"/>
      <point x="337" y="321"/>
      <point x="242" y="343" type="curve"/>
      <point x="242" y="326" type="line"/>
      <point x="346" y="358"/>
      <point x="409" y="433"/>
      <point x="409" y="528" type="curve" smooth="yes"/>
      <point x="409" y="615"/>
      <point x="349" y="662"/>
      <point x="239" y="662" type="curve" smooth="yes"/>
      <point x="189" y="662"/>
      <point x="144" y="654"/>
      <point x="83" y="633" type="curve"/>
      <point x="75" y="490" type="line"/>
      <point x="128" y="493" type="line"/>
      <point x="132" y="537" type="line" smooth="yes"/>
      <point x="133" y="548"/>
      <point x="151" y="594"/>
      <point x="162" y="622" type="curve"/>
      <point x="124" y="571" type="line"/>
      <point x="165" y="602"/>
      <point x="186" y="611"/>
      <point x="228" y="611" type="curve" smooth="yes"/>
      <point x="286" y="611"/>
      <point x="317" y="576"/>
      <point x="317" y="513" type="curve" smooth="yes"/>
      <point x="317" y="397"/>
      <point x="233" y="349"/>
      <point x="107" y="334" type="curve"/>
      <point x="115" y="288" type="line"/>
      <point x="115" y="288"/>
      <point x="144" y="291"/>
      <point x="181" y="291" type="curve" smooth="yes"/>
      <point x="253" y="291"/>
      <point x="298" y="249"/>
      <point x="298" y="185" type="curve" smooth="yes"/>
      <point x="298" y="66"/>
      <point x="141" y="-25"/>
      <point x="-30" y="-54" type="curve"/>
    </contour>
  </outline>
</glyph>
<glyph name="six" format="2">
  <advance width="530.7"/>
  <unicode hex="0036"/>
  <outline>
    <contour>
      <point x="239" y="-11" type="curve" smooth="yes"/>
      <point x="357" y="-11"/>
      <point x="484" y="82"/>
      <point x="484" y="236" type="curve" smooth="yes"/>
      <point x="484" y="343"/>
      <point x="419" y="402"/>
      <point x="307" y="402" type="curve" smooth="yes"/>
      <point x="280" y="402"/>
      <point x="253" y="394"/>
      <point x="226" y="385" type="curve"/>
      <point x="227" y="340" type="line"/>
      <point x="249" y="343"/>
      <point x="270" y="345"/>
      <point x="291" y="345" type="curve" smooth="yes"/>
      <point x="360" y="345"/>
      <point x="393" y="295"/>
      <point x="393" y="228" type="curve" smooth="yes"/>
      <point x="393" y="127"/>
      <point x="327" y="43"/>
      <point x="247" y="43" type="curve" smooth="yes"/>
      <point x="168" y="43"/>
      <point x="136" y="120"/>
      <point x="136" y="202" type="curve" smooth="yes"/>
      <point x="136" y="406"/>
      <point x="280" y="624"/>
      <point x="535" y="698" type="curve"/>
      <point x="530" y="747" type="line"/>
      <point x="257" y="695"/>
      <point x="46" y="449"/>
      <point x="46" y="197" type="curve" smooth="yes"/>
      <point x="46" y="74"/>
      <point x="111" y="-11"/>
    </contour>
  </outline>
</glyph>
<glyph name="less" format="2">
  <advance width="525.4"/>
  <unicode hex="003C"/>
  <outline>
    <contour>
      <point x="346" y="-15" type="line"/>
      <point x="404" y="36" type="line"/>
      <point x="160" y="269" type="line"/>
      <point x="154" y="227" type="line"/>
      <point x="458" y="462" type="line"/>
      <point x="414" y="513" type="line"/>
      <point x="85" y="247" type="line"/>
    </contour>
  </outline>
</glyph>
<glyph name="greater" format="2">
  <advance width="527.5"/>
  <unicode hex="003E"/>
  <outline>
    <contour>
      <point x="114" y="-15" type="line"/>
      <point x="442" y="247" type="line"/>
      <point x="182" y="513" type="line"/>
      <point x="124" y="462" type="line"/>
      <point x="368" y="227" type="line"/>
      <point x="373" y="269" type="line"/>
      <point x="69" y="36" type="line"/>
    </contour>
  </outline>
</glyph>
<glyph name="question" format="2">
  <advance width="459.1"/>
  <unicode hex="003F"/>
  <outline>
    <contour>
      <point x="174" y="216" type="line"/>
      <point x="180" y="221" type="line"/>
      <point x="192" y="383" type="line"/>
      <point x="167" y="351" type="line"/>
      <point x="177" y="350"/>
      <point x="186" y="350"/>
      <point x="196" y="350" type="curve" smooth="yes"/>
      <point x="343" y="350"/>
      <point x="440" y="451"/>
      <point x="440" y="594" type="curve" smooth="yes"/>
      <point x="440" y="701"/>
      <point x="371" y="767"/>
      <point x="263" y="767" type="curve" smooth="yes"/>
      <point x="226" y="767"/>
      <point x="182" y="760"/>
      <point x="134" y="745" type="curve"/>
      <point x="127" y="598" type="line"/>
      <point x="180" y="598" type="line"/>
      <point x="184" y="632" type="line" smooth="yes"/>
      <point x="186" y="651"/>
      <point x="198" y="694"/>
      <point x="206" y="724" type="curve"/>
      <point x="147" y="690" type="line"/>
      <point x="186" y="705"/>
      <point x="220" y="714"/>
      <point x="251" y="714" type="curve" smooth="yes"/>
      <point x="323" y="714"/>
      <point x="356" y="666"/>
      <point x="356" y="596" type="curve" smooth="yes"/>
      <point x="356" y="495"/>
      <point x="305" y="410"/>
      <point x="200" y="410" type="curve" smooth="yes"/>
      <point x="190" y="410"/>
      <point x="168" y="412"/>
      <point x="154" y="414" type="curve"/>
      <point x="128" y="391" type="line"/>
      <point x="109" y="219" type="line"/>
    </contour>
    <contour>
      <point x="112" y="-10" type="curve" smooth="yes"/>
      <point x="149" y="-10"/>
      <point x="171" y="21"/>
      <point x="171" y="63" type="curve" smooth="yes"/>
      <point x="171" y="95"/>
      <point x="154" y="117"/>
      <point x="122" y="117" type="curve" smooth="yes"/>
      <point x="84" y="117"/>
      <point x="61" y="87"/>
      <point x="61" y="45" type="curve" smooth="yes"/>
      <point x="61" y="11"/>
      <point x="80" y="-10"/>
    </contour>
  </outline>
</glyph>
<glyph name="A" format="2">
  <advance width="689"/>
  <unicode hex="0041"/>
  <anchor x="314" y="0" name="bottom"/>
  <anchor x="574" y="10" name="ogonek"/>
  <anchor x="404" y="705" name="top"/>
  <outline>
    <contour>
      <point x="1" y="-5" type="line"/>
      <point x="45" y="-3"/>
      <point x="108" y="0"/>
      <point x="133" y="0" type="curve" smooth="yes"/>
      <point x="215" y="0" type="line"/>
      <point x="227" y="53" type="line"/>
      <point x="126" y="68" type="line"/>
      <point x="156" y="43" type="line"/>
      <point x="159" y="68"/>
      <point x="175" y="119"/>
      <point x="184" y="139" type="curve" smooth="yes"/>
      <point x="385" y="576" type="line"/>
      <point x="375" y="576" type="line"/>
      <point x="454" y="170" type="line" smooth="yes"/>
      <point x="461" y="132"/>
      <point x="464" y="62"/>
      <point x="466" y="33" type="curve"/>
      <point x="497" y="73" type="line"/>
      <point x="390" y="42" type="line"/>
      <point x="386" y="-5" type="line"/>
      <point x="433" y="-3"/>
      <point x="501" y="0"/>
      <point x="528" y="0" type="curve" smooth="yes"/>
      <point x="623" y="0" type="line"/>
      <point x="635" y="53" type="line"/>
      <point x="542" y="69" type="line"/>
      <point x="584" y="41" type="line"/>
      <point x="579" y="54"/>
      <point x="558" y="118"/>
      <point x="554" y="138" type="curve" smooth="yes"/>
      <point x="430" y="715" type="line"/>
      <point x="374" y="705" type="line"/>
      <point x="128" y="168" type="line" smooth="yes"/>
      <point x="111" y="130"/>
      <point x="68" y="57"/>
      <point x="59" y="45" type="curve"/>
      <point x="101" y="69" type="line"/>
      <point x="4" y="42" type="line"/>
    </contour>
    <contour>
      <point x="214" y="236" type="line"/>
      <point x="451" y="236" type="line"/>
      <point x="448" y="288" type="line"/>
      <point x="235" y="284" type="line"/>
    </contour>
  </outline>
</glyph>
<glyph name="D" format="2">
  <advance width="714.9"/>
  <unicode hex="0044"/>
  <anchor x="295" y="0" name="bottom"/>
  <anchor x="193" y="353" name="center"/>
  <anchor x="384" y="720" name="top"/>
  <outline>
    <contour>
      <point x="9" y="-5" type="line"/>
      <point x="45" y="-3"/>
      <point x="118" y="0"/>
      <point x="143" y="0" type="curve" smooth="yes"/>
      <point x="191" y="0"/>
      <point x="246" y="-5"/>
      <point x="296" y="-5" type="curve" smooth="yes"/>
      <point x="532" y="-5"/>
      <point x="678" y="171"/>
      <point x="678" y="418" type="curve" smooth="yes"/>
      <point x="678" y="596"/>
      <point x="569" y="710"/>
      <point x="380" y="710" type="curve" smooth="yes"/>
      <point x="340" y="710"/>
      <point x="269" y="705"/>
      <point x="230" y="705" type="curve" smooth="yes"/>
      <point x="201" y="705"/>
      <point x="145" y="708"/>
      <point x="115" y="710" type="curve"/>
      <point x="102" y="658" type="line"/>
      <point x="210" y="640" type="line"/>
      <point x="176" y="675" type="line"/>
      <point x="176" y="663"/>
      <point x="176" y="591"/>
      <point x="174" y="572" type="curve" smooth="yes"/>
      <point x="110" y="135" type="line" smooth="yes"/>
      <point x="106" y="108"/>
      <point x="90" y="60"/>
      <point x="83" y="34" type="curve"/>
      <point x="125" y="67" type="line"/>
      <point x="11" y="44" type="line"/>
    </contour>
    <contour>
      <point x="190" y="29" type="line"/>
      <point x="189" y="42"/>
      <point x="196" y="129"/>
      <point x="201" y="165" type="curve" smooth="yes"/>
      <point x="255" y="538" type="line" smooth="yes"/>
      <point x="260" y="575"/>
      <point x="278" y="646"/>
      <point x="282" y="662" type="curve"/>
      <point x="253" y="648" type="line"/>
      <point x="301" y="652"/>
      <point x="359" y="652"/>
      <point x="383" y="652" type="curve" smooth="yes"/>
      <point x="522" y="652"/>
      <point x="584" y="544"/>
      <point x="584" y="411" type="curve" smooth="yes"/>
      <point x="584" y="223"/>
      <point x="495" y="52"/>
      <point x="306" y="52" type="curve" smooth="yes"/>
      <point x="268" y="52"/>
      <point x="180" y="55"/>
      <point x="163" y="56" type="curve"/>
    </contour>
  </outline>
</glyph>
<glyph name="G" format="2">
  <advance width="675.2"/>
  <unicode hex="0047"/>
  <anchor x="351" y="0" name="bottom"/>
  <anchor x="511" y="181" name="center"/>
  <anchor x="444" y="720" name="top"/>
  <outline>
    <contour>
      <point x="349" y="-15" type="curve" smooth="yes"/>
      <point x="433" y="-15"/>
      <point x="498" y="3"/>
      <point x="566" y="19" type="curve"/>
      <point x="587" y="164" type="line" smooth="yes"/>
      <point x="590" y="184"/>
      <point x="608" y="267"/>
      <point x="618" y="317" type="curve"/>
      <point x="604" y="334" type="line"/>
      <point x="581" y="333"/>
      <point x="550" y="331"/>
      <point x="536" y="331" type="curve" smooth="yes"/>
      <point x="428" y="331" type="line"/>
      <point x="415" y="276" type="line"/>
      <point x="550" y="265" type="line"/>
      <point x="516" y="302" type="line"/>
      <point x="517" y="281"/>
      <point x="518" y="207"/>
      <point x="516" y="196" type="curve" smooth="yes"/>
      <point x="489" y="29" type="line"/>
      <point x="515" y="69" type="line"/>
      <point x="469" y="55"/>
      <point x="402" y="40"/>
      <point x="355" y="40" type="curve" smooth="yes"/>
      <point x="227" y="40"/>
      <point x="160" y="148"/>
      <point x="160" y="287" type="curve" smooth="yes"/>
      <point x="160" y="486"/>
      <point x="257" y="665"/>
      <point x="435" y="665" type="curve" smooth="yes"/>
      <point x="484" y="665"/>
      <point x="547" y="649"/>
      <point x="590" y="633" type="curve"/>
      <point x="565" y="667" type="line"/>
      <point x="571" y="643"/>
      <point x="575" y="601"/>
      <point x="574" y="590" type="curve" smooth="yes"/>
      <point x="568" y="547" type="line"/>
      <point x="623" y="540" type="line"/>
      <point x="654" y="686" type="line"/>
      <point x="592" y="702"/>
      <point x="531" y="720"/>
      <point x="446" y="720" type="curve" smooth="yes"/>
      <point x="199" y="720"/>
      <point x="63" y="531"/>
      <point x="63" y="284" type="curve" smooth="yes"/>
      <point x="63" y="106"/>
      <point x="164" y="-15"/>
    </contour>
  </outline>
</glyph>
<glyph name="I" format="2">
  <advance width="345"/>
  <unicode hex="0049"/>
  <anchor x="137" y="0" name="bottom"/>
  <anchor x="268" y="10" name="ogonek"/>
  <anchor x="238" y="720" name="top"/>
  <anchor x="94" y="705" name="topleft"/>
  <outline>
    <contour>
      <point x="9" y="-5" type="line"/>
      <point x="54" y="-3"/>
      <point x="118" y="0"/>
      <point x="143" y="0" type="curve" smooth="yes"/>
      <point x="265" y="0" type="line"/>
      <point x="279" y="53" type="line"/>
      <point x="158" y="63" type="line"/>
      <point x="192" y="27" type="line"/>
      <point x="190" y="59"/>
      <point x="196" y="130"/>
      <point x="201" y="165" type="curve" smooth="yes"/>
      <point x="255" y="538" type="line" smooth="yes"/>
      <point x="261" y="580"/>
      <point x="279" y="657"/>
      <point x="286" y="681" type="curve"/>
      <point x="243" y="643" type="line"/>
      <point x="354" y="653" type="line"/>
      <point x="359" y="710" type="line"/>
      <point x="316" y="708"/>
      <point x="263" y="705"/>
      <point x="230" y="705" type="curve" smooth="yes"/>
      <point x="212" y="705"/>
      <point x="153" y="708"/>
      <point x="115" y="710" type="curve"/>
      <point x="102" y="658" type="line"/>
      <point x="210" y="640" type="line"/>
      <point x="176" y="681" type="line"/>
      <point x="177" y="658"/>
      <point x="176" y="590"/>
      <point x="174" y="572" type="curve" smooth="yes"/>
      <point x="110" y="135" type="line" smooth="yes"/>
      <point x="107" y="116"/>
      <point x="88" y="49"/>
      <point x="81" y="22" type="curve"/>
      <point x="125" y="67" type="line"/>
      <point x="11" y="44" type="line"/>
    </contour>
  </outline>
</glyph>
<glyph name="L" format="2">
  <advance width="542.8"/>
  <unicode hex="004C"/>
  <anchor x="246" y="0" name="bottom"/>
  <anchor x="188" y="355" name="center"/>
  <anchor x="555" y="423" name="centerright"/>
  <anchor x="291" y="720" name="top"/>
  <anchor x="465" y="494" name="topright"/>
  <outline>
    <contour>
      <point x="9" y="-5" type="line"/>
      <point x="54" y="-3"/>
      <point x="92" y="0"/>
      <point x="117" y="0" type="curve" smooth="yes"/>
      <point x="327" y="0" type="line" smooth="yes"/>
      <point x="354" y="0"/>
      <point x="400" y="-2"/>
      <point x="437" y="-4" type="curve"/>
      <point x="458" y="14" type="line"/>
      <point x="495" y="163" type="line"/>
      <point x="443" y="168" type="line"/>
      <point x="438" y="153"/>
      <point x="424" y="115"/>
      <point x="417" y="100" type="curve" smooth="yes"/>
      <point x="411" y="87"/>
      <point x="390" y="61"/>
      <point x="376" y="44" type="curve"/>
      <point x="406" y="67" type="line"/>
      <point x="388" y="63"/>
      <point x="343" y="55"/>
      <point x="305" y="55" type="curve" smooth="yes"/>
      <point x="160" y="55" type="line"/>
      <point x="192" y="27" type="line"/>
      <point x="190" y="59"/>
      <point x="196" y="130"/>
      <point x="201" y="165" type="curve" smooth="yes"/>
      <point x="255" y="538" type="line" smooth="yes"/>
      <point x="261" y="580"/>
      <point x="279" y="657"/>
      <point x="286" y="681" type="curve"/>
      <point x="243" y="643" type="line"/>
      <point x="354" y="653" type="line"/>
      <point x="359" y="710" type="line"/>
      <point x="316" y="708"/>
      <point x="263" y="705"/>
      <point x="230" y="705" type="curve" smooth="yes"/>
      <point x="212" y="705"/>
      <point x="153" y="708"/>
      <point x="115" y="710" type="curve"/>
      <point x="102" y="658" type="line"/>
      <point x="210" y="640" type="line"/>
      <point x="176" y="681" type="line"/>
      <point x="177" y="658"/>
      <point x="177" y="590"/>
      <point x="174" y="572" type="curve" smooth="yes"/>
      <point x="110" y="135" type="line" smooth="yes"/>
      <point x="107" y="116"/>
      <point x="88" y="49"/>
      <point x="81" y="22" type="curve"/>
      <point x="125" y="67" type="line"/>
      <point x="11" y="44" type="line"/>
    </contour>
  </outline>
</glyph>
<glyph name="M" format="2">
  <advance width="918.5"/>
  <unicode hex="004D"/>
  <anchor x="431" y="0" name="bottom"/>
  <anchor x="517" y="705" name="top"/>
  <outline>
    <contour>
      <point x="4" y="-5" type="line"/>
      <point x="49" y="-3"/>
      <point x="115" y="0"/>
      <point x="140" y="0" type="curve" smooth="yes"/>
      <point x="233" y="0" type="line"/>
      <point x="247" y="53" type="line"/>
      <point x="130" y="63" type="line"/>
      <point x="169" y="27" type="line"/>
      <point x="168" y="59"/>
      <point x="176" y="142"/>
      <point x="181" y="165" type="curve" smooth="yes"/>
      <point x="272" y="623" type="line"/>
      <point x="257" y="623" type="line"/>
      <point x="394" y="0" type="line"/>
      <point x="426" y="0" type="line"/>
      <point x="741" y="620" type="line"/>
      <point x="728" y="623" type="line"/>
      <point x="688" y="135" type="line" smooth="yes"/>
      <point x="686" y="113"/>
      <point x="669" y="49"/>
      <point x="662" y="22" type="curve"/>
      <point x="707" y="67" type="line"/>
      <point x="592" y="44" type="line"/>
      <point x="590" y="-5" type="line"/>
      <point x="635" y="-3"/>
      <point x="700" y="0"/>
      <point x="725" y="0" type="curve" smooth="yes"/>
      <point x="847" y="0" type="line"/>
      <point x="860" y="53" type="line"/>
      <point x="740" y="63" type="line"/>
      <point x="784" y="27" type="line"/>
      <point x="782" y="59"/>
      <point x="776" y="128"/>
      <point x="779" y="164" type="curve" smooth="yes"/>
      <point x="806" y="538" type="line" smooth="yes"/>
      <point x="809" y="582"/>
      <point x="826" y="663"/>
      <point x="830" y="682" type="curve"/>
      <point x="788" y="643" type="line"/>
      <point x="899" y="653" type="line"/>
      <point x="904" y="710" type="line"/>
      <point x="854" y="708"/>
      <point x="786" y="705"/>
      <point x="756" y="705" type="curve" smooth="yes"/>
      <point x="731" y="705" type="line"/>
      <point x="709" y="685" type="line"/>
      <point x="635" y="536" type="line"/>
      <point x="435" y="140" type="line"/>
      <point x="458" y="138" type="line"/>
      <point x="372" y="529" type="line"/>
      <point x="343" y="685" type="line"/>
      <point x="328" y="705" type="line"/>
      <point x="264" y="705" type="line" smooth="yes"/>
      <point x="245" y="705"/>
      <point x="187" y="708"/>
      <point x="148" y="710" type="curve"/>
      <point x="135" y="658" type="line"/>
      <point x="243" y="640" type="line"/>
      <point x="212" y="670" type="line"/>
      <point x="212" y="656"/>
      <point x="206" y="589"/>
      <point x="202" y="572" type="curve" smooth="yes"/>
      <point x="112" y="135" type="line" smooth="yes"/>
      <point x="108" y="117"/>
      <point x="80" y="49"/>
      <point x="69" y="22" type="curve"/>
      <point x="120" y="67" type="line"/>
      <point x="6" y="44" type="line"/>
    </contour>
  </outline>
</glyph>
<glyph name="N" format="2">
  <advance width="762.5"/>
  <unicode hex="004E"/>
  <anchor x="341" y="0" name="bottom"/>
  <anchor x="442" y="720" name="top"/>
  <outline>
    <contour>
      <point x="9" y="-5" type="line"/>
      <point x="54" y="-3"/>
      <point x="117" y="0"/>
      <point x="141" y="0" type="curve" smooth="yes"/>
      <point x="234" y="0" type="line"/>
      <point x="247" y="53" type="line"/>
      <point x="131" y="63" type="line"/>
      <point x="167" y="27" type="line"/>
      <point x="168" y="61"/>
      <point x="174" y="136"/>
      <point x="178" y="165" type="curve" smooth="yes"/>
      <point x="240" y="598" type="line"/>
      <point x="220" y="594" type="line"/>
      <point x="532" y="0" type="line"/>
      <point x="594" y="0" type="line"/>
      <point x="674" y="538" type="line" smooth="yes"/>
      <point x="679" y="573"/>
      <point x="706" y="652"/>
      <point x="714" y="668" type="curve"/>
      <point x="671" y="643" type="line"/>
      <point x="782" y="653" type="line"/>
      <point x="787" y="710" type="line"/>
      <point x="754" y="708"/>
      <point x="696" y="705"/>
      <point x="665" y="705" type="curve" smooth="yes"/>
      <point x="649" y="705"/>
      <point x="593" y="708"/>
      <point x="557" y="710" type="curve"/>
      <point x="544" y="658" type="line"/>
      <point x="652" y="640" type="line"/>
      <point x="618" y="675" type="line"/>
      <point x="619" y="654"/>
      <point x="619" y="589"/>
      <point x="616" y="572" type="curve" smooth="yes"/>
      <point x="550" y="124" type="line"/>
      <point x="571" y="128" type="line"/>
      <point x="353" y="530" type="line"/>
      <point x="282" y="685" type="line"/>
      <point x="266" y="705" type="line"/>
      <point x="231" y="705" type="line" smooth="yes"/>
      <point x="212" y="705"/>
      <point x="154" y="708"/>
      <point x="115" y="710" type="curve"/>
      <point x="102" y="658" type="line"/>
      <point x="210" y="640" type="line"/>
      <point x="176" y="680" type="line"/>
      <point x="176" y="665"/>
      <point x="177" y="589"/>
      <point x="175" y="572" type="curve" smooth="yes"/>
      <point x="111" y="135" type="line" smooth="yes"/>
      <point x="108" y="116"/>
      <point x="84" y="39"/>
      <point x="81" y="25" type="curve"/>
      <point x="122" y="67" type="line"/>
      <point x="11" y="44" type="line"/>
    </contour>
  </outline>
</glyph>
<glyph name="Q" format="2">
  <advance width="750.7"/>
  <unicode hex="0051"/>
  <anchor x="343" y="0" name="bottom"/>
  <anchor x="429" y="705" name="top"/>
  <outline>
    <contour>
      <point x="336" y="-15" type="curve" smooth="yes"/>
      <point x="581" y="-15"/>
      <point x="711" y="175"/>
      <point x="711" y="421" type="curve" smooth="yes"/>
      <point x="711" y="598"/>
      <point x="620" y="720"/>
      <point x="438" y="720" type="curve" smooth="yes"/>
      <point x="194" y="720"/>
      <point x="63" y="530"/>
      <point x="63" y="283" type="curve" smooth="yes"/>
      <point x="63" y="107"/>
      <point x="155" y="-15"/>
    </contour>
    <contour>
      <point x="595" y="-224" type="line"/>
      <point x="665" y="-134" type="line"/>
      <point x="617" y="-111"/>
      <point x="536" y="-74"/>
      <point x="522" y="-62" type="curve" smooth="yes"/>
      <point x="446" y="-1" type="line"/>
      <point x="374" y="-14" type="line"/>
    </contour>
    <contour>
      <point x="341" y="35" type="curve" smooth="yes"/>
      <point x="220" y="35"/>
      <point x="165" y="145"/>
      <point x="165" y="284" type="curve" smooth="yes"/>
      <point x="165" y="481"/>
      <point x="261" y="670"/>
      <point x="434" y="670" type="curve" smooth="yes"/>
      <point x="555" y="670"/>
      <point x="610" y="560"/>
      <point x="610" y="420" type="curve" smooth="yes"/>
      <point x="610" y="223"/>
      <point x="513" y="35"/>
    </contour>
  </outline>
</glyph>
<glyph name="R" format="2">
  <advance width="642.2"/>
  <unicode hex="0052"/>
  <anchor x="305" y="0" name="bottom"/>
  <anchor x="337" y="720" name="top"/>
  <outline>
    <contour>
      <point x="9" y="-5" type="line"/>
      <point x="54" y="-3"/>
      <point x="118" y="0"/>
      <point x="143" y="0" type="curve" smooth="yes"/>
      <point x="265" y="0" type="line"/>
      <point x="279" y="53" type="line"/>
      <point x="158" y="63" type="line"/>
      <point x="192" y="27" type="line"/>
      <point x="190" y="59"/>
      <point x="196" y="130"/>
      <point x="201" y="165" type="curve" smooth="yes"/>
      <point x="255" y="538" type="line" smooth="yes"/>
      <point x="261" y="580"/>
      <point x="279" y="657"/>
      <point x="286" y="681" type="curve"/>
      <point x="251" y="657" type="line"/>
      <point x="280" y="659"/>
      <point x="325" y="662"/>
      <point x="342" y="662" type="curve" smooth="yes"/>
      <point x="432" y="662"/>
      <point x="488" y="616"/>
      <point x="488" y="534" type="curve" smooth="yes"/>
      <point x="488" y="412"/>
      <point x="419" y="350"/>
      <point x="306" y="350" type="curve" smooth="yes"/>
      <point x="256" y="350"/>
      <point x="207" y="358"/>
      <point x="159" y="364" type="curve"/>
      <point x="151" y="307" type="line"/>
      <point x="206" y="306"/>
      <point x="261" y="303"/>
      <point x="318" y="303" type="curve" smooth="yes"/>
      <point x="459" y="303"/>
      <point x="578" y="388"/>
      <point x="578" y="545" type="curve" smooth="yes"/>
      <point x="578" y="653"/>
      <point x="497" y="710"/>
      <point x="379" y="710" type="curve" smooth="yes"/>
      <point x="340" y="710"/>
      <point x="269" y="705"/>
      <point x="230" y="705" type="curve" smooth="yes"/>
      <point x="212" y="705"/>
      <point x="153" y="708"/>
      <point x="115" y="710" type="curve"/>
      <point x="102" y="658" type="line"/>
      <point x="210" y="640" type="line"/>
      <point x="176" y="681" type="line"/>
      <point x="177" y="658"/>
      <point x="176" y="590"/>
      <point x="174" y="572" type="curve" smooth="yes"/>
      <point x="110" y="135" type="line" smooth="yes"/>
      <point x="107" y="116"/>
      <point x="88" y="49"/>
      <point x="81" y="22" type="curve"/>
      <point x="125" y="67" type="line"/>
      <point x="11" y="44" type="line"/>
    </contour>
    <contour>
      <point x="420" y="0" type="curve"/>
      <point x="573" y="0" type="line"/>
      <point x="587" y="53" type="line"/>
      <point x="482" y="64" type="line"/>
      <point x="525" y="45" type="line"/>
      <point x="516" y="61"/>
      <point x="488" y="111"/>
      <point x="479" y="131" type="curve" smooth="yes"/>
      <point x="475" y="141"/>
      <point x="434" y="245"/>
      <point x="392" y="349" type="curve"/>
      <point x="298" y="345" type="line"/>
      <point x="383" y="116" type="line" smooth="yes"/>
      <point x="397" y="81"/>
      <point x="407" y="44"/>
    </contour>
  </outline>
</glyph>
<glyph name="T" format="2">
  <advance width="637.9"/>
  <unicode hex="0054"/>
  <anchor x="279" y="0" name="bottom"/>
  <anchor x="329" y="353" name="center"/>
  <anchor x="391" y="720" name="top"/>
  <outline>
    <contour>
      <point x="142" y="-5" type="line"/>
      <point x="187" y="-3"/>
      <point x="262" y="0"/>
      <point x="286" y="0" type="curve" smooth="yes"/>
      <point x="418" y="0" type="line"/>
      <point x="432" y="53" type="line"/>
      <point x="301" y="63" type="line"/>
      <point x="335" y="27" type="line"/>
      <point x="333" y="59"/>
      <point x="340" y="130"/>
      <point x="344" y="165" type="curve" smooth="yes"/>
      <point x="399" y="538" type="line"/>
      <point x="405" y="579"/>
      <point x="422" y="656"/>
      <point x="430" y="681" type="curve"/>
      <point x="320" y="681" type="line"/>
      <point x="321" y="658"/>
      <point x="320" y="589"/>
      <point x="317" y="572" type="curve" smooth="yes"/>
      <point x="253" y="135" type="line" smooth="yes"/>
      <point x="250" y="116"/>
      <point x="231" y="49"/>
      <point x="224" y="22" type="curve"/>
      <point x="268" y="67" type="line"/>
      <point x="144" y="44" type="line"/>
    </contour>
    <contour>
      <point x="129" y="524" type="line"/>
      <point x="135" y="551"/>
      <point x="147" y="594"/>
      <point x="155" y="609" type="curve" smooth="yes"/>
      <point x="160" y="620"/>
      <point x="191" y="660"/>
      <point x="205" y="678" type="curve"/>
      <point x="143" y="645" type="line"/>
      <point x="166" y="647"/>
      <point x="223" y="651"/>
      <point x="258" y="651" type="curve" smooth="yes"/>
      <point x="482" y="651" type="line" smooth="yes"/>
      <point x="507" y="651"/>
      <point x="558" y="647"/>
      <point x="576" y="645" type="curve"/>
      <point x="544" y="671" type="line"/>
      <point x="561" y="653"/>
      <point x="575" y="616"/>
      <point x="575" y="609" type="curve" smooth="yes"/>
      <point x="575" y="594"/>
      <point x="576" y="551"/>
      <point x="575" y="524" type="curve"/>
      <point x="631" y="529" type="line"/>
      <point x="647" y="692" type="line"/>
      <point x="631" y="710" type="line"/>
      <point x="594" y="708"/>
      <point x="536" y="705"/>
      <point x="519" y="705" type="curve" smooth="yes"/>
      <point x="237" y="705" type="line" smooth="yes"/>
      <point x="220" y="705"/>
      <point x="164" y="708"/>
      <point x="127" y="710" type="curve"/>
      <point x="106" y="692" type="line"/>
      <point x="74" y="529" type="line"/>
    </contour>
  </outline>
</glyph>
<glyph name="W" format="2">
  <advance width="991.1"/>
  <unicode hex="0057"/>
  <anchor x="458" y="0" name="bottom"/>
  <anchor x="544" y="705" name="top"/>
  <outline>
    <contour>
      <point x="248" y="0" type="line"/>
      <point x="306" y="0" type="line"/>
      <point x="540" y="543" type="line"/>
      <point x="521" y="546" type="line"/>
      <point x="617" y="0" type="line"/>
      <point x="675" y="0" type="line"/>
      <point x="910" y="538" type="line" smooth="yes"/>
      <point x="926" y="574"/>
      <point x="972" y="645"/>
      <point x="988" y="667" type="curve"/>
      <point x="938" y="641" type="line"/>
      <point x="1010" y="653" type="line"/>
      <point x="1015" y="710" type="line"/>
      <point x="978" y="708"/>
      <point x="929" y="705"/>
      <point x="912" y="705" type="curve" smooth="yes"/>
      <point x="894" y="705"/>
      <point x="827" y="708"/>
      <point x="790" y="710" type="curve"/>
      <point x="776" y="657" type="line"/>
      <point x="912" y="640" type="line"/>
      <point x="884" y="664" type="line"/>
      <point x="880" y="649"/>
      <point x="863" y="593"/>
      <point x="854" y="572" type="curve" smooth="yes"/>
      <point x="660" y="111" type="line"/>
      <point x="679" y="110" type="line"/>
      <point x="587" y="686" type="line"/>
      <point x="538" y="686" type="line"/>
      <point x="291" y="112" type="line"/>
      <point x="309" y="110" type="line"/>
      <point x="247" y="539" type="line" smooth="yes"/>
      <point x="242" y="573"/>
      <point x="234" y="657"/>
      <point x="233" y="680" type="curve"/>
      <point x="201" y="643" type="line"/>
      <point x="336" y="653" type="line"/>
      <point x="340" y="710" type="line"/>
      <point x="295" y="708"/>
      <point x="218" y="705"/>
      <point x="193" y="705" type="curve" smooth="yes"/>
      <point x="176" y="705"/>
      <point x="129" y="708"/>
      <point x="92" y="710" type="curve"/>
      <point x="79" y="658" type="line"/>
      <point x="153" y="641" type="line"/>
      <point x="109" y="676" type="line"/>
      <point x="116" y="657"/>
      <point x="143" y="590"/>
      <point x="146" y="572" type="curve" smooth="yes"/>
    </contour>
  </outline>
</glyph>
<glyph name="Z" format="2">
  <advance width="582.3"/>
  <unicode hex="005A"/>
  <anchor x="245" y="0" name="bottom"/>
  <anchor x="306" y="353" name="center"/>
  <anchor x="347" y="720" name="top"/>
  <outline>
    <contour>
      <point x="468" y="-4" type="curve"/>
      <point x="488" y="14" type="line"/>
      <point x="524" y="173" type="line"/>
      <point x="472" y="178" type="line"/>
      <point x="467" y="161"/>
      <point x="455" y="115"/>
      <point x="448" y="100" type="curve" smooth="yes"/>
      <point x="442" y="86"/>
      <point x="421" y="61"/>
      <point x="406" y="44" type="curve"/>
      <point x="466" y="72" type="line"/>
      <point x="449" y="68"/>
      <point x="374" y="55"/>
      <point x="337" y="55" type="curve" smooth="yes"/>
      <point x="103" y="55" type="line"/>
      <point x="125" y="36" type="line"/>
      <point x="153" y="78"/>
      <point x="192" y="141"/>
      <point x="209" y="164" type="curve" smooth="yes"/>
      <point x="451" y="496" type="line" smooth="yes"/>
      <point x="479" y="536"/>
      <point x="540" y="606"/>
      <point x="577" y="651" type="curve"/>
      <point x="577" y="705" type="line"/>
      <point x="259" y="705" type="line" smooth="yes"/>
      <point x="241" y="705"/>
      <point x="185" y="708"/>
      <point x="149" y="710" type="curve"/>
      <point x="128" y="692" type="line"/>
      <point x="96" y="529" type="line"/>
      <point x="153" y="524" type="line"/>
      <point x="159" y="547"/>
      <point x="171" y="594"/>
      <point x="178" y="610" type="curve" smooth="yes"/>
      <point x="182" y="618"/>
      <point x="204" y="649"/>
      <point x="215" y="664" type="curve"/>
      <point x="185" y="646" type="line"/>
      <point x="196" y="647"/>
      <point x="246" y="652"/>
      <point x="279" y="652" type="curve" smooth="yes"/>
      <point x="497" y="652" type="line"/>
      <point x="475" y="671" type="line"/>
      <point x="449" y="628"/>
      <point x="414" y="572"/>
      <point x="390" y="540" type="curve" smooth="yes"/>
      <point x="151" y="218" type="line" smooth="yes"/>
      <point x="132" y="192"/>
      <point x="66" y="106"/>
      <point x="22" y="55" type="curve"/>
      <point x="21" y="0" type="line"/>
      <point x="358" y="0" type="line" smooth="yes"/>
      <point x="385" y="0"/>
      <point x="431" y="-2"/>
    </contour>
  </outline>
</glyph>
<glyph name="backslash" format="2">
  <advance width="384"/>
  <unicode hex="005C"/>
  <outline>
    <contour>
      <point x="272" y="-67" type="line"/>
      <point x="336" y="-48" type="line"/>
      <point x="137" y="773" type="line"/>
      <point x="74" y="754" type="line"/>
    </contour>
  </outline>
</glyph>
<glyph name="asciicircum" format="2">
  <advance width="714.9"/>
  <unicode hex="005E"/>
  <outline>
    <contour>
      <point x="161" y="313" type="line"/>
      <point x="426" y="647" type="line"/>
      <point x="387" y="647" type="line"/>
      <point x="568" y="313" type="line"/>
      <point x="634" y="355" type="line"/>
      <point x="417" y="728" type="line"/>
      <point x="105" y="355" type="line"/>
    </contour>
  </outline>
</glyph>
<glyph name="underscore" format="2">
  <advance width="632.2"/>
  <unicode hex="005F"/>
  <outline>
    <contour>
      <point x="12" y="-232" type="line"/>
      <point x="499" y="-232" type="line"/>
      <point x="514" y="-159" type="line"/>
      <point x="20" y="-159" type="line"/>
    </contour>
  </outline>
</glyph>
<glyph name="a" format="2">
  <advance width="507.5"/>
  <unicode hex="0061"/>
  <anchor x="214" y="0" name="bottom"/>
  <anchor x="370" y="0" name="ogonek"/>
  <anchor x="283" y="494" name="top"/>
  <outline>
    <contour>
      <point x="132" y="-10" type="curve" smooth="yes"/>
      <point x="204" y="-10"/>
      <point x="281" y="80"/>
      <point x="333" y="196" type="curve"/>
      <point x="329" y="220" type="line"/>
      <point x="314" y="117"/>
      <point x="311" y="63"/>
      <point x="301" y="5" type="curve"/>
      <point x="325" y="-10" type="line"/>
      <point x="468" y="35" type="line"/>
      <point x="471" y="68" type="line"/>
      <point x="349" y="74" type="line"/>
      <point x="379" y="45" type="line"/>
      <point x="381" y="217"/>
      <point x="409" y="343"/>
      <point x="446" y="495" type="curve"/>
      <point x="424" y="508" type="line"/>
      <point x="354" y="492" type="line"/>
      <point x="352" y="441" type="line" smooth="yes"/>
      <point x="346" y="286"/>
      <point x="216" y="43"/>
      <point x="157" y="43" type="curve" smooth="yes"/>
      <point x="130" y="43"/>
      <point x="111" y="86"/>
      <point x="111" y="146" type="curve" smooth="yes"/>
      <point x="111" y="267"/>
      <point x="183" y="461"/>
      <point x="234" y="461" type="curve" smooth="yes"/>
      <point x="287" y="461"/>
      <point x="365" y="416"/>
      <point x="378" y="410" type="curve"/>
      <point x="379" y="494" type="line"/>
      <point x="359" y="495"/>
      <point x="282" y="508"/>
      <point x="248" y="508" type="curve" smooth="yes"/>
      <point x="156" y="508"/>
      <point x="29" y="291"/>
      <point x="29" y="140" type="curve" smooth="yes"/>
      <point x="29" y="39"/>
      <point x="65" y="-10"/>
    </contour>
  </outline>
</glyph>
<glyph name="b" format="2">
  <advance width="471.2"/>
  <unicode hex="0062"/>
  <anchor x="200" y="0" name="bottom"/>
  <anchor x="272" y="468" name="top"/>
  <outline>
    <contour>
      <point x="52" y="-10" type="line"/>
      <point x="140" y="17" type="line"/>
      <point x="97" y="8" type="line"/>
      <point x="109" y="8"/>
      <point x="190" y="-10"/>
      <point x="224" y="-10" type="curve" smooth="yes"/>
      <point x="314" y="-10"/>
      <point x="442" y="204"/>
      <point x="442" y="358" type="curve" smooth="yes"/>
      <point x="442" y="459"/>
      <point x="406" y="506"/>
      <point x="341" y="506" type="curve" smooth="yes"/>
      <point x="269" y="506"/>
      <point x="192" y="419"/>
      <point x="145" y="322" type="curve"/>
      <point x="156" y="329" type="line"/>
      <point x="175" y="460"/>
      <point x="197" y="582"/>
      <point x="225" y="752" type="curve"/>
      <point x="204" y="770" type="line"/>
      <point x="45" y="743" type="line"/>
      <point x="48" y="707" type="line"/>
      <point x="165" y="689" type="line"/>
      <point x="135" y="712" type="line"/>
      <point x="121" y="515"/>
      <point x="72" y="177"/>
      <point x="28" y="5" type="curve"/>
    </contour>
    <contour>
      <point x="120" y="56" type="line"/>
      <point x="126" y="211"/>
      <point x="252" y="457"/>
      <point x="315" y="457" type="curve" smooth="yes"/>
      <point x="341" y="457"/>
      <point x="361" y="413"/>
      <point x="361" y="352" type="curve" smooth="yes"/>
      <point x="361" y="228"/>
      <point x="289" y="38"/>
      <point x="237" y="38" type="curve" smooth="yes"/>
      <point x="193" y="38"/>
      <point x="122" y="74"/>
      <point x="98" y="87" type="curve"/>
    </contour>
  </outline>
</glyph>
<glyph name="d" format="2">
  <advance width="507.6"/>
  <unicode hex="0064"/>
  <anchor x="246" y="0" name="bottom"/>
  <anchor x="380" y="610" name="center"/>
  <anchor x="286" y="468" name="top"/>
  <anchor x="533" y="500" name="topright"/>
  <outline>
    <contour>
      <point x="132" y="-10" type="curve" smooth="yes"/>
      <point x="205" y="-10"/>
      <point x="281" y="80"/>
      <point x="333" y="196" type="curve"/>
      <point x="329" y="215" type="line"/>
      <point x="313" y="110"/>
      <point x="311" y="67"/>
      <point x="302" y="6" type="curve"/>
      <point x="326" y="-9" type="line"/>
      <point x="468" y="35" type="line"/>
      <point x="471" y="68" type="line"/>
      <point x="348" y="75" type="line"/>
      <point x="381" y="49" type="line"/>
      <point x="375" y="305"/>
      <point x="435" y="514"/>
      <point x="473" y="752" type="curve"/>
      <point x="452" y="770" type="line"/>
      <point x="294" y="743" type="line"/>
      <point x="296" y="707" type="line"/>
      <point x="411" y="689" type="line"/>
      <point x="381" y="710" type="line"/>
      <point x="377" y="628"/>
      <point x="366" y="551"/>
      <point x="357" y="477" type="curve"/>
      <point x="352" y="441" type="line"/>
      <point x="346" y="287"/>
      <point x="222" y="43"/>
      <point x="157" y="43" type="curve" smooth="yes"/>
      <point x="130" y="43"/>
      <point x="111" y="86"/>
      <point x="111" y="146" type="curve" smooth="yes"/>
      <point x="111" y="267"/>
      <point x="183" y="461"/>
      <point x="234" y="461" type="curve" smooth="yes"/>
      <point x="287" y="461"/>
      <point x="365" y="416"/>
      <point x="378" y="410" type="curve"/>
      <point x="379" y="494" type="line"/>
      <point x="359" y="495"/>
      <point x="282" y="508"/>
      <point x="248" y="508" type="curve" smooth="yes"/>
      <point x="157" y="508"/>
      <point x="27" y="294"/>
      <point x="29" y="140" type="curve" smooth="yes"/>
      <point x="30" y="39"/>
      <point x="64" y="-10"/>
    </contour>
  </outline>
</glyph>
<glyph name="f" format="2">
  <advance width="305.6"/>
  <unicode hex="0066"/>
  <anchor x="123" y="0" name="bottom"/>
  <anchor x="181" y="468" name="top"/>
  <outline>
    <contour>
      <point x="-115" y="-234" type="line"/>
      <point x="9" y="-222"/>
      <point x="107" y="-149"/>
      <point x="132" y="-35" type="curve" smooth="yes"/>
      <point x="155" y="73"/>
      <point x="170" y="278"/>
      <point x="203" y="456" type="curve"/>
      <point x="168" y="426" type="line"/>
      <point x="307" y="426" type="line"/>
      <point x="319" y="477" type="line"/>
      <point x="176" y="477" type="line"/>
      <point x="204" y="454" type="line"/>
      <point x="222" y="629"/>
      <point x="245" y="680"/>
      <point x="261" y="704" type="curve" smooth="yes"/>
      <point x="279" y="732"/>
      <point x="322" y="747"/>
      <point x="385" y="745" type="curve"/>
      <point x="400" y="802" type="line"/>
      <point x="295" y="794"/>
      <point x="172" y="732"/>
      <point x="146" y="574" type="curve" smooth="yes"/>
      <point x="134" y="504"/>
      <point x="136" y="495"/>
      <point x="128" y="490" type="curve" smooth="yes"/>
      <point x="112" y="479"/>
      <point x="52" y="465"/>
      <point x="41" y="464" type="curve"/>
      <point x="37" y="426" type="line"/>
      <point x="156" y="426" type="line"/>
      <point x="128" y="451" type="line"/>
      <point x="112" y="239"/>
      <point x="66" y="-82"/>
      <point x="30" y="-135" type="curve" smooth="yes"/>
      <point x="18" y="-151"/>
      <point x="-49" y="-176"/>
      <point x="-97" y="-177" type="curve"/>
    </contour>
  </outline>
</glyph>
<glyph name="g" format="2">
  <advance width="479.2"/>
  <unicode hex="0067"/>
  <anchor x="284" y="-77" name="center"/>
  <anchor x="305" y="494" name="top"/>
  <outline>
    <contour>
      <point x="-35" y="-217" type="line"/>
      <point x="193" y="-282"/>
      <point x="351" y="-171"/>
      <point x="371" y="7" type="curve" smooth="yes"/>
      <point x="393" y="195"/>
      <point x="413" y="357"/>
      <point x="447" y="495" type="curve"/>
      <point x="426" y="508" type="line"/>
      <point x="356" y="492" type="line"/>
      <point x="354" y="442" type="line" smooth="yes"/>
      <point x="348" y="288"/>
      <point x="220" y="43"/>
      <point x="159" y="43" type="curve" smooth="yes"/>
      <point x="130" y="43"/>
      <point x="111" y="88"/>
      <point x="111" y="146" type="curve" smooth="yes"/>
      <point x="111" y="268"/>
      <point x="180" y="461"/>
      <point x="235" y="461" type="curve" smooth="yes"/>
      <point x="285" y="461"/>
      <point x="367" y="416"/>
      <point x="379" y="410" type="curve"/>
      <point x="381" y="494" type="line"/>
      <point x="361" y="495"/>
      <point x="281" y="508"/>
      <point x="248" y="508" type="curve" smooth="yes"/>
      <point x="155" y="508"/>
      <point x="29" y="291"/>
      <point x="29" y="140" type="curve" smooth="yes"/>
      <point x="29" y="40"/>
      <point x="65" y="-10"/>
      <point x="132" y="-10" type="curve" smooth="yes"/>
      <point x="205" y="-10"/>
      <point x="281" y="78"/>
      <point x="334" y="196" type="curve"/>
      <point x="329" y="215" type="line"/>
      <point x="313" y="109"/>
      <point x="309" y="61"/>
      <point x="301" y="-8" type="curve"/>
      <point x="297" y="-75"/>
      <point x="282" y="-121"/>
      <point x="270" y="-132" type="curve" smooth="yes"/>
      <point x="220" y="-178"/>
      <point x="91" y="-179"/>
      <point x="-7" y="-147" type="curve"/>
    </contour>
  </outline>
</glyph>
<glyph name="l" format="2">
  <advance width="246.2"/>
  <unicode hex="006C"/>
  <anchor x="141" y="0" name="bottom"/>
  <anchor x="144" y="386" name="center"/>
  <anchor x="327" y="414" name="centerright"/>
  <anchor x="151" y="756" name="top"/>
  <anchor x="289" y="500" name="topright"/>
  <outline>
    <contour>
      <point x="52" y="-10" type="line"/>
      <point x="207" y="35" type="line"/>
      <point x="209" y="68" type="line"/>
      <point x="87" y="74" type="line"/>
      <point x="115" y="49" type="line"/>
      <point x="147" y="321"/>
      <point x="189" y="541"/>
      <point x="226" y="752" type="curve"/>
      <point x="206" y="770" type="line"/>
      <point x="46" y="743" type="line"/>
      <point x="49" y="707" type="line"/>
      <point x="166" y="689" type="line"/>
      <point x="136" y="712" type="line"/>
      <point x="122" y="515"/>
      <point x="72" y="177"/>
      <point x="28" y="5" type="curve"/>
    </contour>
  </outline>
</glyph>
<glyph name="m" format="2">
  <advance width="823.9"/>
  <unicode hex="006D"/>
  <anchor x="381" y="0" name="bottom"/>
  <anchor x="441" y="494" name="top"/>
  <outline>
    <contour>
      <point x="79" y="-10" type="line"/>
      <point x="138" y="5" type="line"/>
      <point x="142" y="42"/>
      <point x="147" y="79"/>
      <point x="153" y="116" type="curve"/>
      <point x="203" y="326"/>
      <point x="310" y="442"/>
      <point x="355" y="442" type="curve" smooth="yes"/>
      <point x="384" y="442"/>
      <point x="391" y="416"/>
      <point x="391" y="387" type="curve" smooth="yes"/>
      <point x="391" y="294"/>
      <point x="357" y="137"/>
      <point x="326" y="5" type="curve"/>
      <point x="350" y="-10" type="line"/>
      <point x="410" y="5" type="line"/>
      <point x="416" y="55"/>
      <point x="424" y="118"/>
      <point x="429" y="145" type="curve"/>
      <point x="486" y="351"/>
      <point x="585" y="442"/>
      <point x="623" y="442" type="curve" smooth="yes"/>
      <point x="651" y="442"/>
      <point x="660" y="417"/>
      <point x="660" y="387" type="curve" smooth="yes"/>
      <point x="660" y="292"/>
      <point x="624" y="135"/>
      <point x="594" y="5" type="curve"/>
      <point x="619" y="-10" type="line"/>
      <point x="785" y="35" type="line"/>
      <point x="788" y="68" type="line"/>
      <point x="661" y="75" type="line"/>
      <point x="690" y="52" type="line"/>
      <point x="694" y="187"/>
      <point x="743" y="330"/>
      <point x="743" y="426" type="curve" smooth="yes"/>
      <point x="743" y="470"/>
      <point x="724" y="508"/>
      <point x="673" y="508" type="curve" smooth="yes"/>
      <point x="560" y="508"/>
      <point x="482" y="378"/>
      <point x="440" y="299" type="curve"/>
      <point x="458" y="300" type="line"/>
      <point x="486" y="403"/>
      <point x="487" y="508"/>
      <point x="405" y="508" type="curve" smooth="yes"/>
      <point x="306" y="508"/>
      <point x="220" y="400"/>
      <point x="180" y="312" type="curve"/>
      <point x="185" y="303" type="line"/>
      <point x="198" y="381"/>
      <point x="206" y="444"/>
      <point x="219" y="489" type="curve"/>
      <point x="200" y="508" type="line"/>
      <point x="39" y="463" type="line"/>
      <point x="39" y="428" type="line"/>
      <point x="156" y="422" type="line"/>
      <point x="127" y="448" type="line"/>
      <point x="111" y="277"/>
      <point x="104" y="203"/>
      <point x="55" y="5" type="curve"/>
    </contour>
  </outline>
</glyph>
<glyph name="o" format="2">
  <advance width="463.6"/>
  <unicode hex="006F"/>
  <anchor x="198" y="0" name="bottom"/>
  <anchor x="233" y="249" name="center"/>
  <anchor x="253" y="2" name="ogonek"/>
  <anchor x="267" y="494" name="top"/>
  <anchor x="377" y="444" name="topright"/>
  <outline>
    <contour>
      <point x="174" y="-10" type="curve" smooth="yes"/>
      <point x="311" y="-10"/>
      <point x="431" y="153"/>
      <point x="431" y="337" type="curve" smooth="yes"/>
      <point x="431" y="445"/>
      <point x="381" y="508"/>
      <point x="290" y="508" type="curve" smooth="yes"/>
      <point x="153" y="508"/>
      <point x="33" y="345"/>
      <point x="33" y="163" type="curve" smooth="yes"/>
      <point x="33" y="57"/>
      <point x="84" y="-10"/>
    </contour>
    <contour>
      <point x="189" y="41" type="curve" smooth="yes"/>
      <point x="143" y="41"/>
      <point x="121" y="82"/>
      <point x="121" y="158" type="curve" smooth="yes"/>
      <point x="121" y="326"/>
      <point x="186" y="459"/>
      <point x="276" y="459" type="curve" smooth="yes"/>
      <point x="323" y="459"/>
      <point x="344" y="417"/>
      <point x="344" y="341" type="curve" smooth="yes"/>
      <point x="344" y="170"/>
      <point x="277" y="41"/>
    </contour>
  </outline>
</glyph>
<glyph name="p" format="2">
  <advance width="497.4"/>
  <unicode hex="0070"/>
  <anchor x="218" y="0" name="bottom"/>
  <anchor x="288" y="494" name="top"/>
  <outline>
    <contour>
      <point x="40" y="-277" type="line"/>
      <point x="98" y="-263" type="line"/>
      <point x="111" y="-145"/>
      <point x="124" y="-51"/>
      <point x="138" y="55" type="curve"/>
      <point x="163" y="227"/>
      <point x="274" y="456"/>
      <point x="339" y="456" type="curve" smooth="yes"/>
      <point x="367" y="456"/>
      <point x="388" y="410"/>
      <point x="388" y="352" type="curve" smooth="yes"/>
      <point x="388" y="230"/>
      <point x="315" y="38"/>
      <point x="262" y="38" type="curve" smooth="yes"/>
      <point x="218" y="38"/>
      <point x="137" y="78"/>
      <point x="129" y="81" type="curve"/>
      <point x="121" y="4" type="line"/>
      <point x="143" y="0"/>
      <point x="215" y="-10"/>
      <point x="249" y="-10" type="curve" smooth="yes"/>
      <point x="339" y="-10"/>
      <point x="468" y="206"/>
      <point x="468" y="358" type="curve" smooth="yes"/>
      <point x="468" y="458"/>
      <point x="432" y="508"/>
      <point x="365" y="508" type="curve" smooth="yes"/>
      <point x="307" y="508"/>
      <point x="234" y="449"/>
      <point x="182" y="345" type="curve"/>
      <point x="192" y="345" type="line"/>
      <point x="204" y="418"/>
      <point x="208" y="437"/>
      <point x="220" y="489" type="curve"/>
      <point x="200" y="508" type="line"/>
      <point x="40" y="463" type="line"/>
      <point x="40" y="428" type="line"/>
      <point x="157" y="422" type="line"/>
      <point x="126" y="439" type="line"/>
      <point x="113" y="270"/>
      <point x="58" y="-67"/>
      <point x="16" y="-263" type="curve"/>
    </contour>
  </outline>
</glyph>
<glyph name="q" format="2">
  <advance width="473.7"/>
  <unicode hex="0071"/>
  <anchor x="207" y="0" name="bottom"/>
  <anchor x="267" y="494" name="top"/>
  <outline>
    <contour>
      <point x="271" y="-277" type="line"/>
      <point x="337" y="-257" type="line"/>
      <point x="345" y="-64"/>
      <point x="399" y="315"/>
      <point x="448" y="495" type="curve"/>
      <point x="426" y="508" type="line"/>
      <point x="354" y="492" type="line"/>
      <point x="352" y="441" type="line" smooth="yes"/>
      <point x="346" y="286"/>
      <point x="217" y="43"/>
      <point x="157" y="43" type="curve" smooth="yes"/>
      <point x="130" y="43"/>
      <point x="111" y="86"/>
      <point x="111" y="146" type="curve" smooth="yes"/>
      <point x="111" y="267"/>
      <point x="183" y="461"/>
      <point x="234" y="461" type="curve" smooth="yes"/>
      <point x="287" y="461"/>
      <point x="365" y="416"/>
      <point x="378" y="410" type="curve"/>
      <point x="380" y="494" type="line"/>
      <point x="360" y="495"/>
      <point x="282" y="508"/>
      <point x="248" y="508" type="curve" smooth="yes"/>
      <point x="157" y="508"/>
      <point x="27" y="294"/>
      <point x="29" y="140" type="curve" smooth="yes"/>
      <point x="30" y="39"/>
      <point x="64" y="-10"/>
      <point x="132" y="-10" type="curve" smooth="yes"/>
      <point x="205" y="-10"/>
      <point x="281" y="80"/>
      <point x="333" y="196" type="curve"/>
      <point x="328" y="215" type="line"/>
      <point x="312" y="106"/>
      <point x="303" y="64"/>
      <point x="291" y="-6" type="curve"/>
      <point x="277" y="-91"/>
      <point x="262" y="-176"/>
      <point x="248" y="-262" type="curve"/>
    </contour>
  </outline>
</glyph>
<glyph name="r" format="2">
  <advance width="379"/>
  <unicode hex="0072"/>
  <anchor x="149" y="0" name="bottom"/>
  <anchor x="217" y="494" name="top"/>
  <outline>
    <contour>
      <point x="78" y="-10" type="line"/>
      <point x="137" y="5" type="line"/>
      <point x="143" y="37"/>
      <point x="146" y="66"/>
      <point x="151" y="100" type="curve"/>
      <point x="194" y="310"/>
      <point x="267" y="388"/>
      <point x="318" y="388" type="curve" smooth="yes"/>
      <point x="327" y="388"/>
      <point x="342" y="386"/>
      <point x="355" y="382" type="curve"/>
      <point x="390" y="496" type="line"/>
      <point x="383" y="500"/>
      <point x="372" y="508"/>
      <point x="355" y="508" type="curve" smooth="yes"/>
      <point x="294" y="508"/>
      <point x="234" y="422"/>
      <point x="178" y="308" type="curve"/>
      <point x="188" y="314" type="line"/>
      <point x="195" y="367"/>
      <point x="209" y="433"/>
      <point x="219" y="489" type="curve"/>
      <point x="200" y="508" type="line"/>
      <point x="39" y="463" type="line"/>
      <point x="39" y="428" type="line"/>
      <point x="156" y="422" type="line"/>
      <point x="128" y="453" type="line"/>
      <point x="110" y="250"/>
      <point x="93" y="167"/>
      <point x="54" y="5" type="curve"/>
    </contour>
  </outline>
</glyph>
<glyph name="s" format="2">
  <advance width="377.6"/>
  <unicode hex="0073"/>
  <anchor x="146" y="0" name="bottom"/>
  <anchor x="226" y="494" name="top"/>
  <outline>
    <contour>
      <point x="144" y="-10" type="curve" smooth="yes"/>
      <point x="237" y="-10"/>
      <point x="319" y="55"/>
      <point x="319" y="151" type="curve" smooth="yes"/>
      <point x="319" y="276"/>
      <point x="141" y="314"/>
      <point x="141" y="391" type="curve" smooth="yes"/>
      <point x="141" y="432"/>
      <point x="185" y="461"/>
      <point x="225" y="461" type="curve" smooth="yes"/>
      <point x="253" y="461"/>
      <point x="267" y="451"/>
      <point x="290" y="446" type="curve"/>
      <point x="265" y="484" type="line"/>
      <point x="286" y="349" type="line"/>
      <point x="324" y="346" type="line"/>
      <point x="356" y="471" type="line"/>
      <point x="335" y="493" type="line"/>
      <point x="293" y="501"/>
      <point x="259" y="508"/>
      <point x="223" y="508" type="curve" smooth="yes"/>
      <point x="146" y="508"/>
      <point x="73" y="446"/>
      <point x="73" y="369" type="curve" smooth="yes"/>
      <point x="73" y="223"/>
      <point x="245" y="206"/>
      <point x="245" y="123" type="curve" smooth="yes"/>
      <point x="245" y="68"/>
      <point x="205" y="39"/>
      <point x="155" y="39" type="curve" smooth="yes"/>
      <point x="115" y="39"/>
      <point x="100" y="58"/>
      <point x="68" y="85" type="curve"/>
      <point x="83" y="37" type="line"/>
      <point x="98" y="165" type="line"/>
      <point x="63" y="174" type="line"/>
      <point x="13" y="77" type="line"/>
      <point x="12" y="46" type="line"/>
      <point x="33" y="18"/>
      <point x="93" y="-10"/>
    </contour>
  </outline>
</glyph>
<glyph name="t" format="2">
  <advance width="386"/>
  <unicode hex="0074"/>
  <anchor x="154" y="0" name="bottom"/>
  <anchor x="143" y="273" name="center"/>
  <anchor x="189" y="539" name="top"/>
  <anchor x="348" y="549" name="topright"/>
  <outline>
    <contour>
      <point x="350" y="133" type="curve"/>
      <point x="321" y="153" type="line"/>
      <point x="279" y="31"/>
      <point x="150" y="7"/>
      <point x="168" y="133" type="curve" smooth="yes"/>
      <point x="187" y="266"/>
      <point x="205" y="361"/>
      <point x="223" y="464" type="curve"/>
      <point x="176" y="426" type="line"/>
      <point x="356" y="426" type="line"/>
      <point x="370" y="477" type="line"/>
      <point x="186" y="477" type="line"/>
      <point x="223" y="470" type="line"/>
      <point x="245" y="603" type="line"/>
      <point x="203" y="614" type="line"/>
      <point x="203" y="614"/>
      <point x="160" y="507"/>
      <point x="138" y="493" type="curve" smooth="yes"/>
      <point x="114" y="480"/>
      <point x="75" y="472"/>
      <point x="42" y="467" type="curve"/>
      <point x="38" y="426" type="line"/>
      <point x="163" y="426" type="line"/>
      <point x="141" y="466" type="line"/>
      <point x="117" y="289"/>
      <point x="112" y="266"/>
      <point x="90" y="145" type="curve" smooth="yes"/>
      <point x="54" y="-54"/>
      <point x="264" y="-58"/>
    </contour>
  </outline>
</glyph>
<glyph name="v" format="2">
  <advance width="474.9"/>
  <unicode hex="0076"/>
  <anchor x="207" y="0" name="bottom"/>
  <anchor x="275" y="494" name="top"/>
  <outline>
    <contour>
      <point x="140" y="-10" type="curve" smooth="yes"/>
      <point x="300" y="-10"/>
      <point x="458" y="237"/>
      <point x="462" y="495" type="curve"/>
      <point x="442" y="508" type="line"/>
      <point x="292" y="463" type="line"/>
      <point x="298" y="428" type="line"/>
      <point x="410" y="422" type="line"/>
      <point x="376" y="437" type="line"/>
      <point x="380" y="412"/>
      <point x="383" y="364"/>
      <point x="383" y="355" type="curve" smooth="yes"/>
      <point x="383" y="239"/>
      <point x="270" y="61"/>
      <point x="194" y="61" type="curve" smooth="yes"/>
      <point x="177" y="61"/>
      <point x="171" y="71"/>
      <point x="171" y="95" type="curve" smooth="yes"/>
      <point x="171" y="165"/>
      <point x="205" y="340"/>
      <point x="205" y="376" type="curve" smooth="yes"/>
      <point x="205" y="495" type="line"/>
      <point x="184" y="508" type="line"/>
      <point x="40" y="463" type="line"/>
      <point x="45" y="428" type="line"/>
      <point x="159" y="422" type="line"/>
      <point x="127" y="434" type="line"/>
      <point x="129" y="408"/>
      <point x="130" y="355"/>
      <point x="130" y="349" type="curve" smooth="yes"/>
      <point x="130" y="273"/>
      <point x="83" y="109"/>
      <point x="83" y="56" type="curve" smooth="yes"/>
      <point x="83" y="14"/>
      <point x="104" y="-10"/>
    </contour>
  </outline>
</glyph>
<glyph name="y" format="2">
  <advance width="506.8"/>
  <unicode hex="0079"/>
  <anchor x="371" y="-101" name="bottom"/>
  <anchor x="295" y="494" name="top"/>
  <outline>
    <contour>
      <point x="-7" y="-217" type="line"/>
      <point x="220" y="-282"/>
      <point x="378" y="-172"/>
      <point x="399" y="7" type="curve" smooth="yes"/>
      <point x="421" y="195"/>
      <point x="440" y="357"/>
      <point x="474" y="495" type="curve"/>
      <point x="454" y="508" type="line"/>
      <point x="388" y="493" type="line"/>
      <point x="379" y="428" type="line"/>
      <point x="350" y="290"/>
      <point x="321" y="206"/>
      <point x="289" y="155" type="curve" smooth="yes"/>
      <point x="250" y="92"/>
      <point x="214" y="58"/>
      <point x="187" y="58" type="curve" smooth="yes"/>
      <point x="158" y="58"/>
      <point x="150" y="84"/>
      <point x="150" y="112" type="curve" smooth="yes"/>
      <point x="150" y="183"/>
      <point x="178" y="328"/>
      <point x="221" y="489" type="curve"/>
      <point x="202" y="508" type="line"/>
      <point x="41" y="463" type="line"/>
      <point x="41" y="428" type="line"/>
      <point x="157" y="422" type="line"/>
      <point x="129" y="449" type="line"/>
      <point x="121" y="298"/>
      <point x="68" y="169"/>
      <point x="68" y="81" type="curve" smooth="yes"/>
      <point x="68" y="39"/>
      <point x="89" y="-10"/>
      <point x="138" y="-10" type="curve" smooth="yes"/>
      <point x="218" y="-10"/>
      <point x="303" y="75"/>
      <point x="367" y="206" type="curve"/>
      <point x="356" y="215" type="line"/>
      <point x="340" y="109"/>
      <point x="337" y="60"/>
      <point x="328" y="-8" type="curve"/>
      <point x="325" y="-73"/>
      <point x="312" y="-118"/>
      <point x="298" y="-132" type="curve" smooth="yes"/>
      <point x="251" y="-181"/>
      <point x="124" y="-183"/>
      <point x="22" y="-148" type="curve"/>
    </contour>
  </outline>
</glyph>
<glyph name="z" format="2">
  <advance width="456.2"/>
  <unicode hex="007A"/>
  <anchor x="183" y="0" name="bottom"/>
  <anchor x="229" y="249" name="center"/>
  <anchor x="246" y="494" name="top"/>
  <outline>
    <contour>
      <point x="22" y="-10" type="line"/>
      <point x="73" y="4" type="line"/>
      <point x="351" y="-10" type="line"/>
      <point x="380" y="12" type="line"/>
      <point x="406" y="154" type="line"/>
      <point x="374" y="164" type="line"/>
      <point x="371" y="158"/>
      <point x="299" y="39"/>
      <point x="300" y="41" type="curve"/>
      <point x="333" y="72" type="line"/>
      <point x="280" y="54"/>
      <point x="169" y="55"/>
      <point x="120" y="55" type="curve"/>
      <point x="123" y="38" type="line"/>
      <point x="211" y="190"/>
      <point x="272" y="267"/>
      <point x="446" y="494" type="curve"/>
      <point x="437" y="507" type="line"/>
      <point x="378" y="492" type="line"/>
      <point x="82" y="508" type="line"/>
      <point x="68" y="487" type="line"/>
      <point x="75" y="341" type="line"/>
      <point x="110" y="338" type="line"/>
      <point x="146" y="451" type="line"/>
      <point x="119" y="419" type="line"/>
      <point x="194" y="429"/>
      <point x="227" y="440"/>
      <point x="345" y="439" type="curve"/>
      <point x="326" y="456" type="line"/>
      <point x="233" y="305"/>
      <point x="189" y="236"/>
      <point x="3" y="5" type="curve"/>
    </contour>
  </outline>
</glyph>
<glyph name="braceleft" format="2">
  <advance width="386"/>
  <unicode hex="007B"/>
  <outline>
    <contour>
      <point x="263" y="-106" type="line"/>
      <point x="271" y="-65" type="line"/>
      <point x="128" y="-48" type="line"/>
      <point x="165" y="-70" type="line"/>
      <point x="185" y="56"/>
      <point x="214" y="149"/>
      <point x="261" y="324" type="curve"/>
      <point x="138" y="365" type="line"/>
      <point x="150" y="344" type="line"/>
      <point x="152" y="378" type="line"/>
      <point x="129" y="357" type="line"/>
      <point x="270" y="396" type="line"/>
      <point x="266" y="581"/>
      <point x="262" y="643"/>
      <point x="275" y="810" type="curve"/>
      <point x="228" y="773" type="line"/>
      <point x="375" y="791" type="line"/>
      <point x="376" y="830" type="line"/>
      <point x="202" y="826" type="line"/>
      <point x="181" y="809" type="line"/>
      <point x="195" y="685"/>
      <point x="202" y="526"/>
      <point x="198" y="398" type="curve"/>
      <point x="220" y="439" type="line"/>
      <point x="101" y="391" type="line"/>
      <point x="90" y="334" type="line"/>
      <point x="202" y="286" type="line"/>
      <point x="189" y="331" type="line"/>
      <point x="162" y="193"/>
      <point x="121" y="55"/>
      <point x="71" y="-81" type="curve"/>
      <point x="89" y="-102" type="line"/>
    </contour>
  </outline>
</glyph>
<glyph name="braceright" format="2">
  <advance width="386"/>
  <unicode hex="007D"/>
  <outline>
    <contour>
      <point x="37" y="-106" type="line"/>
      <point x="211" y="-102" type="line"/>
      <point x="232" y="-85" type="line"/>
      <point x="218" y="39"/>
      <point x="211" y="198"/>
      <point x="215" y="326" type="curve"/>
      <point x="193" y="285" type="line"/>
      <point x="312" y="333" type="line"/>
      <point x="323" y="390" type="line"/>
      <point x="211" y="438" type="line"/>
      <point x="224" y="393" type="line"/>
      <point x="251" y="531"/>
      <point x="292" y="669"/>
      <point x="342" y="805" type="curve"/>
      <point x="324" y="826" type="line"/>
      <point x="150" y="830" type="line"/>
      <point x="142" y="789" type="line"/>
      <point x="285" y="772" type="line"/>
      <point x="248" y="794" type="line"/>
      <point x="228" y="668"/>
      <point x="199" y="575"/>
      <point x="152" y="400" type="curve"/>
      <point x="275" y="359" type="line"/>
      <point x="263" y="380" type="line"/>
      <point x="261" y="346" type="line"/>
      <point x="284" y="367" type="line"/>
      <point x="143" y="328" type="line"/>
      <point x="147" y="143"/>
      <point x="151" y="81"/>
      <point x="138" y="-86" type="curve"/>
      <point x="185" y="-49" type="line"/>
      <point x="38" y="-67" type="line"/>
    </contour>
  </outline>
</glyph>
<glyph name="exclamdown" format="2">
  <advance width="274.1"/>
  <unicode hex="00A1"/>
  <outline>
    <contour>
      <point x="107" y="277" type="line"/>
      <point x="97" y="272" type="line"/>
      <point x="83" y="186" type="line" smooth="yes"/>
      <point x="74" y="126"/>
      <point x="17" y="-140"/>
      <point x="-11" y="-261" type="curve"/>
      <point x="5" y="-278" type="line"/>
      <point x="82" y="-271" type="line"/>
      <point x="164" y="208" type="line"/>
      <point x="178" y="274" type="line"/>
    </contour>
    <contour>
      <point x="181" y="503" type="curve" smooth="yes"/>
      <point x="142" y="503"/>
      <point x="113" y="469"/>
      <point x="113" y="425" type="curve" smooth="yes"/>
      <point x="113" y="396"/>
      <point x="129" y="377"/>
      <point x="156" y="377" type="curve" smooth="yes"/>
      <point x="196" y="377"/>
      <point x="224" y="409"/>
      <point x="224" y="455" type="curve" smooth="yes"/>
      <point x="224" y="485"/>
      <point x="209" y="503"/>
    </contour>
  </outline>
</glyph>
<glyph name="currency" format="2">
  <advance width="671"/>
  <unicode hex="00A4"/>
  <outline>
    <contour>
      <point x="319" y="70" type="curve" smooth="yes"/>
      <point x="475" y="70"/>
      <point x="579" y="186"/>
      <point x="579" y="363" type="curve" smooth="yes"/>
      <point x="579" y="482"/>
      <point x="514" y="558"/>
      <point x="384" y="558" type="curve" smooth="yes"/>
      <point x="228" y="558"/>
      <point x="124" y="441"/>
      <point x="124" y="266" type="curve" smooth="yes"/>
      <point x="124" y="148"/>
      <point x="188" y="70"/>
    </contour>
    <contour>
      <point x="77" y="29" type="line"/>
      <point x="190" y="140" type="line"/>
      <point x="158" y="166" type="line"/>
      <point x="49" y="60" type="line"/>
    </contour>
    <contour>
      <point x="520" y="30" type="line"/>
      <point x="557" y="60" type="line"/>
      <point x="476" y="166" type="line"/>
      <point x="436" y="140" type="line"/>
    </contour>
    <contour>
      <point x="326" y="126" type="curve" smooth="yes"/>
      <point x="242" y="126"/>
      <point x="214" y="189"/>
      <point x="214" y="265" type="curve" smooth="yes"/>
      <point x="214" y="407"/>
      <point x="280" y="502"/>
      <point x="376" y="502" type="curve" smooth="yes"/>
      <point x="459" y="502"/>
      <point x="487" y="439"/>
      <point x="487" y="361" type="curve" smooth="yes"/>
      <point x="487" y="219"/>
      <point x="423" y="126"/>
    </contour>
    <contour>
      <point x="194" y="463" type="line"/>
      <point x="232" y="491" type="line"/>
      <point x="153" y="596" type="line"/>
      <point x="118" y="565" type="line"/>
    </contour>
    <contour>
      <point x="519" y="463" type="line"/>
      <point x="624" y="566" type="line"/>
      <point x="596" y="597" type="line"/>
      <point x="489" y="491" type="line"/>
    </contour>
  </outline>
</glyph>
<glyph name="section" format="2">
  <advance width="561.7"/>
  <unicode hex="00A7"/>
  <outline>
    <contour>
      <point x="234" y="-115" type="curve" smooth="yes"/>
      <point x="348" y="-115"/>
      <point x="454" y="-52"/>
      <point x="454" y="64" type="curve" smooth="yes"/>
      <point x="454" y="215"/>
      <point x="181" y="264"/>
      <point x="181" y="353" type="curve" smooth="yes"/>
      <point x="181" y="368"/>
      <point x="184" y="384"/>
      <point x="195" y="401" type="curve"/>
      <point x="180" y="411" type="line"/>
      <point x="153" y="390"/>
      <point x="135" y="369"/>
      <point x="124" y="353" type="curve" smooth="yes"/>
      <point x="113" y="336"/>
      <point x="107" y="318"/>
      <point x="107" y="301" type="curve" smooth="yes"/>
      <point x="107" y="181"/>
      <point x="359" y="161"/>
      <point x="359" y="42" type="curve" smooth="yes"/>
      <point x="359" y="-16"/>
      <point x="302" y="-57"/>
      <point x="243" y="-57" type="curve" smooth="yes"/>
      <point x="200" y="-57"/>
      <point x="166" y="-48"/>
      <point x="136" y="-35" type="curve"/>
      <point x="57" y="-69" type="line"/>
      <point x="121" y="-99"/>
      <point x="180" y="-115"/>
    </contour>
    <contour>
      <point x="57" y="-69" type="line"/>
      <point x="146" y="-62" type="line"/>
      <point x="146" y="-66"/>
      <point x="142" y="0"/>
      <point x="143" y="9" type="curve" smooth="yes"/>
      <point x="150" y="77" type="line"/>
      <point x="93" y="83" type="line"/>
    </contour>
    <contour>
      <point x="405" y="206" type="line"/>
      <point x="456" y="244"/>
      <point x="476" y="288"/>
      <point x="476" y="322" type="curve" smooth="yes"/>
      <point x="476" y="434"/>
      <point x="227" y="476"/>
      <point x="227" y="581" type="curve" smooth="yes"/>
      <point x="227" y="644"/>
      <point x="276" y="669"/>
      <point x="325" y="669" type="curve" smooth="yes"/>
      <point x="365" y="669"/>
      <point x="387" y="664"/>
      <point x="421" y="650" type="curve"/>
      <point x="496" y="694" type="line"/>
      <point x="435" y="709"/>
      <point x="384" y="720"/>
      <point x="335" y="720" type="curve" smooth="yes"/>
      <point x="224" y="720"/>
      <point x="137" y="660"/>
      <point x="132" y="553" type="curve" smooth="yes"/>
      <point x="124" y="403"/>
      <point x="404" y="379"/>
      <point x="404" y="257" type="curve" smooth="yes"/>
      <point x="404" y="239"/>
      <point x="399" y="226"/>
      <point x="392" y="215" type="curve"/>
    </contour>
    <contour>
      <point x="461" y="549" type="line"/>
      <point x="496" y="694" type="line"/>
      <point x="405" y="702" type="line"/>
      <point x="410" y="669"/>
      <point x="416" y="612"/>
      <point x="415" y="603" type="curve" smooth="yes"/>
      <point x="409" y="555" type="line"/>
    </contour>
  </outline>
</glyph>
<glyph name="copyright" format="2">
  <advance width="898.6"/>
  <unicode hex="00A9"/>
  <outline>
    <contour>
      <point x="461" y="-15" type="curve" smooth="yes"/>
      <point x="663" y="-15"/>
      <point x="827" y="152"/>
      <point x="827" y="350" type="curve" smooth="yes"/>
      <point x="827" y="554"/>
      <point x="664" y="715"/>
      <point x="461" y="715" type="curve" smooth="yes"/>
      <point x="261" y="715"/>
      <point x="96" y="552"/>
      <point x="96" y="350" type="curve" smooth="yes"/>
      <point x="96" y="144"/>
      <point x="263" y="-15"/>
    </contour>
    <contour>
      <point x="448" y="128" type="curve" smooth="yes"/>
      <point x="498" y="128"/>
      <point x="536" y="139"/>
      <point x="575" y="148" type="curve"/>
      <point x="585" y="244" type="line"/>
      <point x="546" y="243" type="line"/>
      <point x="544" y="235"/>
      <point x="542" y="223"/>
      <point x="540" y="216" type="curve" smooth="yes"/>
      <point x="536" y="201"/>
      <point x="524" y="176"/>
      <point x="515" y="157" type="curve"/>
      <point x="555" y="188" type="line"/>
      <point x="523" y="181"/>
      <point x="485" y="172"/>
      <point x="453" y="172" type="curve" smooth="yes"/>
      <point x="390" y="172"/>
      <point x="360" y="230"/>
      <point x="360" y="303" type="curve" smooth="yes"/>
      <point x="360" y="410"/>
      <point x="405" y="517"/>
      <point x="501" y="517" type="curve" smooth="yes"/>
      <point x="534" y="517"/>
      <point x="567" y="509"/>
      <point x="597" y="502" type="curve"/>
      <point x="564" y="535" type="line"/>
      <point x="567" y="517"/>
      <point x="572" y="487"/>
      <point x="571" y="480" type="curve" smooth="yes"/>
      <point x="568" y="447" type="line"/>
      <point x="606" y="446" type="line"/>
      <point x="627" y="543" type="line"/>
      <point x="591" y="552"/>
      <point x="557" y="563"/>
      <point x="506" y="563" type="curve" smooth="yes"/>
      <point x="357" y="563"/>
      <point x="277" y="451"/>
      <point x="277" y="306" type="curve" smooth="yes"/>
      <point x="277" y="201"/>
      <point x="335" y="128"/>
    </contour>
    <contour>
      <point x="462" y="27" type="curve" smooth="yes"/>
      <point x="285" y="27"/>
      <point x="139" y="173"/>
      <point x="139" y="350" type="curve" smooth="yes"/>
      <point x="139" y="531"/>
      <point x="285" y="674"/>
      <point x="462" y="674" type="curve" smooth="yes"/>
      <point x="641" y="674"/>
      <point x="786" y="526"/>
      <point x="786" y="350" type="curve" smooth="yes"/>
      <point x="786" y="173"/>
      <point x="642" y="27"/>
    </contour>
  </outline>
</glyph>
<glyph name="ordfeminine" format="2">
  <advance width="381.4"/>
  <unicode hex="00AA"/>
  <anchor x="196" y="330" name="bottom"/>
  <anchor x="293" y="330" name="ogonek"/>
  <anchor x="239" y="629" name="top"/>
  <outline>
    <contour>
      <point x="125" y="321" type="curve" smooth="yes"/>
      <point x="182" y="321"/>
      <point x="236" y="387"/>
      <point x="272" y="474" type="curve"/>
      <point x="266" y="485" type="line"/>
      <point x="261" y="422"/>
      <point x="244" y="371"/>
      <point x="233" y="330" type="curve"/>
      <point x="252" y="320" type="line"/>
      <point x="361" y="346" type="line"/>
      <point x="363" y="373" type="line"/>
      <point x="281" y="380" type="line"/>
      <point x="311" y="353" type="line"/>
      <point x="313" y="463"/>
      <point x="330" y="540"/>
      <point x="351" y="623" type="curve"/>
      <point x="332" y="638" type="line"/>
      <point x="270" y="623" type="line"/>
      <point x="269" y="594" type="line" smooth="yes"/>
      <point x="265" y="493"/>
      <point x="196" y="383"/>
      <point x="163" y="383" type="curve" smooth="yes"/>
      <point x="149" y="383"/>
      <point x="142" y="399"/>
      <point x="142" y="429" type="curve" smooth="yes"/>
      <point x="142" y="499"/>
      <point x="174" y="586"/>
      <point x="200" y="586" type="curve" smooth="yes"/>
      <point x="233" y="586"/>
      <point x="278" y="563"/>
      <point x="284" y="561" type="curve"/>
      <point x="294" y="626" type="line"/>
      <point x="281" y="627"/>
      <point x="231" y="638"/>
      <point x="209" y="638" type="curve" smooth="yes"/>
      <point x="144" y="638"/>
      <point x="70" y="513"/>
      <point x="70" y="414" type="curve" smooth="yes"/>
      <point x="70" y="362"/>
      <point x="87" y="321"/>
    </contour>
  </outline>
</glyph>
<glyph name="logicalnot" format="2">
  <advance width="706.1"/>
  <unicode hex="00AC"/>
  <outline>
    <contour>
      <point x="464" y="69" type="line"/>
      <point x="533" y="69" type="line"/>
      <point x="563" y="307" type="line"/>
      <point x="118" y="307" type="line"/>
      <point x="109" y="239" type="line"/>
      <point x="522" y="243" type="line"/>
      <point x="492" y="276" type="line"/>
    </contour>
  </outline>
</glyph>
<glyph name="degree" format="2">
  <advance width="446"/>
  <unicode hex="00B0"/>
  <outline>
    <contour>
      <point x="238" y="399" type="curve" smooth="yes"/>
      <point x="330" y="399"/>
      <point x="386" y="475"/>
      <point x="386" y="570" type="curve" smooth="yes"/>
      <point x="386" y="641"/>
      <point x="345" y="678"/>
      <point x="279" y="678" type="curve" smooth="yes"/>
      <point x="187" y="678"/>
      <point x="132" y="602"/>
      <point x="132" y="510" type="curve" smooth="yes"/>
      <point x="132" y="441"/>
      <point x="172" y="399"/>
    </contour>
    <contour>
      <point x="247" y="452" type="curve" smooth="yes"/>
      <point x="216" y="452"/>
      <point x="207" y="476"/>
      <point x="207" y="508" type="curve" smooth="yes"/>
      <point x="207" y="563"/>
      <point x="224" y="624"/>
      <point x="272" y="624" type="curve" smooth="yes"/>
      <point x="308" y="624"/>
      <point x="316" y="591"/>
      <point x="309" y="538" type="curve" smooth="yes"/>
      <point x="302" y="492"/>
      <point x="288" y="452"/>
    </contour>
  </outline>
</glyph>
<glyph name="plusminus" format="2">
  <advance width="658.7"/>
  <unicode hex="00B1"/>
  <outline>
    <contour>
      <point x="278" y="106" type="line"/>
      <point x="345" y="106" type="line"/>
      <point x="398" y="562" type="line"/>
      <point x="336" y="562" type="line"/>
    </contour>
    <contour>
      <point x="76" y="0" type="line"/>
      <point x="522" y="0" type="line"/>
      <point x="530" y="69" type="line"/>
      <point x="84" y="64" type="line"/>
    </contour>
    <contour>
      <point x="113" y="301" type="line"/>
      <point x="560" y="306" type="line"/>
      <point x="568" y="368" type="line"/>
      <point x="122" y="368" type="line"/>
    </contour>
  </outline>
</glyph>
<glyph name="twosuperior" format="2">
  <advance width="392.6"/>
  <unicode hex="00B2"/>
  <outline>
    <contour>
      <point x="320" y="328" type="line"/>
      <point x="337" y="340" type="line"/>
      <point x="356" y="443" type="line"/>
      <point x="315" y="446" type="line"/>
      <point x="308" y="421" type="line"/>
      <point x="303" y="411"/>
      <point x="292" y="386"/>
      <point x="281" y="366" type="curve"/>
      <point x="327" y="399" type="line"/>
      <point x="293" y="394"/>
      <point x="258" y="389"/>
      <point x="244" y="389" type="curve" smooth="yes"/>
      <point x="125" y="389" type="line"/>
      <point x="122" y="364" type="line"/>
      <point x="304" y="506"/>
      <point x="363" y="569"/>
      <point x="363" y="645" type="curve" smooth="yes"/>
      <point x="363" y="700"/>
      <point x="320" y="731"/>
      <point x="246" y="731" type="curve" smooth="yes"/>
      <point x="198" y="731"/>
      <point x="163" y="723"/>
      <point x="126" y="709" type="curve"/>
      <point x="118" y="612" type="line"/>
      <point x="160" y="614" type="line"/>
      <point x="163" y="641" type="line" smooth="yes"/>
      <point x="164" y="651"/>
      <point x="174" y="674"/>
      <point x="183" y="698" type="curve"/>
      <point x="150" y="654" type="line"/>
      <point x="177" y="674"/>
      <point x="203" y="683"/>
      <point x="229" y="683" type="curve" smooth="yes"/>
      <point x="261" y="683"/>
      <point x="281" y="664"/>
      <point x="281" y="633" type="curve" smooth="yes"/>
      <point x="281" y="574"/>
      <point x="237" y="529"/>
      <point x="69" y="383" type="curve"/>
      <point x="70" y="330" type="line"/>
      <point x="253" y="330" type="line"/>
    </contour>
  </outline>
</glyph>
<glyph name="threesuperior" format="2">
  <advance width="353.6"/>
  <unicode hex="00B3"/>
  <outline>
    <contour>
      <point x="63" y="266" type="line"/>
      <point x="210" y="280"/>
      <point x="323" y="358"/>
      <point x="323" y="446" type="curve" smooth="yes"/>
      <point x="323" y="493"/>
      <point x="285" y="531"/>
      <point x="228" y="535" type="curve"/>
      <point x="226" y="522" type="line"/>
      <point x="290" y="542"/>
      <point x="333" y="586"/>
      <point x="333" y="645" type="curve" smooth="yes"/>
      <point x="333" y="702"/>
      <point x="293" y="731"/>
      <point x="218" y="731" type="curve" smooth="yes"/>
      <point x="183" y="731"/>
      <point x="150" y="725"/>
      <point x="115" y="714" type="curve"/>
      <point x="110" y="618" type="line"/>
      <point x="151" y="621" type="line"/>
      <point x="155" y="650" type="line" smooth="yes"/>
      <point x="156" y="659"/>
      <point x="165" y="680"/>
      <point x="175" y="707" type="curve"/>
      <point x="147" y="669" type="line"/>
      <point x="163" y="680"/>
      <point x="184" y="687"/>
      <point x="209" y="687" type="curve" smooth="yes"/>
      <point x="239" y="687"/>
      <point x="256" y="671"/>
      <point x="256" y="640" type="curve" smooth="yes"/>
      <point x="256" y="583"/>
      <point x="214" y="545"/>
      <point x="139" y="535" type="curve"/>
      <point x="142" y="497" type="line"/>
      <point x="142" y="497"/>
      <point x="164" y="499"/>
      <point x="181" y="499" type="curve" smooth="yes"/>
      <point x="220" y="499"/>
      <point x="241" y="478"/>
      <point x="241" y="443" type="curve" smooth="yes"/>
      <point x="241" y="370"/>
      <point x="155" y="320"/>
      <point x="56" y="306" type="curve"/>
    </contour>
  </outline>
</glyph>
<glyph name="periodcentered" format="2">
  <advance width="305.1"/>
  <unicode hex="00B7"/>
  <outline>
    <contour>
      <point x="145" y="232" type="curve" smooth="yes"/>
      <point x="188" y="232"/>
      <point x="219" y="267"/>
      <point x="219" y="315" type="curve" smooth="yes"/>
      <point x="219" y="348"/>
      <point x="201" y="368"/>
      <point x="172" y="368" type="curve" smooth="yes"/>
      <point x="130" y="368"/>
      <point x="99" y="332"/>
      <point x="99" y="284" type="curve" smooth="yes"/>
      <point x="99" y="252"/>
      <point x="115" y="232"/>
    </contour>
  </outline>
</glyph>
<glyph name="ordmasculine" format="2">
  <advance width="347"/>
  <unicode hex="00BA"/>
  <outline>
    <contour>
      <point x="165" y="321" type="curve" smooth="yes"/>
      <point x="256" y="321"/>
      <point x="335" y="415"/>
      <point x="335" y="528" type="curve" smooth="yes"/>
      <point x="335" y="599"/>
      <point x="300" y="638"/>
      <point x="239" y="638" type="curve" smooth="yes"/>
      <point x="146" y="638"/>
      <point x="69" y="543"/>
      <point x="69" y="430" type="curve" smooth="yes"/>
      <point x="69" y="359"/>
      <point x="104" y="321"/>
    </contour>
    <contour>
      <point x="180" y="368" type="curve" smooth="yes"/>
      <point x="157" y="368"/>
      <point x="144" y="391"/>
      <point x="144" y="431" type="curve" smooth="yes"/>
      <point x="144" y="529"/>
      <point x="176" y="590"/>
      <point x="224" y="590" type="curve" smooth="yes"/>
      <point x="247" y="590"/>
      <point x="259" y="567"/>
      <point x="259" y="527" type="curve" smooth="yes"/>
      <point x="259" y="431"/>
      <point x="228" y="368"/>
    </contour>
  </outline>
</glyph>
<glyph name="Oslash" format="2">
  <advance width="745.2"/>
  <unicode hex="00D8"/>
  <anchor x="342" y="0" name="bottom"/>
  <anchor x="428" y="705" name="top"/>
  <anchor x="383" y="353" name="center"/>
  <anchor x="470" y="0" name="ogonek"/>
  <anchor x="79" y="705" name="topleft"/>
  <anchor x="617" y="620" name="topright"/>
  <outline>
    <contour>
      <point x="118" y="-123" type="line"/>
      <point x="669" y="801" type="line"/>
      <point x="630" y="825" type="line"/>
      <point x="81" y="-99" type="line"/>
    </contour>
    <component base="O" xOffset="-4"/>
  </outline>
</glyph>
<glyph name="germandbls" format="2">
  <advance width="502.1"/>
  <unicode hex="00DF"/>
  <outline>
    <contour>
      <point x="-146" y="-233" type="line"/>
      <point x="-30" y="-222"/>
      <point x="75" y="-151"/>
      <point x="100" y="-35" type="curve" smooth="yes"/>
      <point x="134" y="110"/>
      <point x="168" y="603"/>
      <point x="219" y="668" type="curve" smooth="yes"/>
      <point x="244" y="702"/>
      <point x="312" y="713"/>
      <point x="358" y="713" type="curve" smooth="yes"/>
      <point x="397" y="712"/>
      <point x="433" y="694"/>
      <point x="433" y="634" type="curve" smooth="yes"/>
      <point x="433" y="507"/>
      <point x="251" y="499"/>
      <point x="251" y="356" type="curve" smooth="yes"/>
      <point x="252" y="230"/>
      <point x="395" y="205"/>
      <point x="395" y="125" type="curve" smooth="yes"/>
      <point x="395" y="68"/>
      <point x="359" y="36"/>
      <point x="307" y="37" type="curve" smooth="yes"/>
      <point x="271" y="37"/>
      <point x="252" y="53"/>
      <point x="220" y="81" type="curve"/>
      <point x="233" y="36" type="line"/>
      <point x="251" y="161" type="line"/>
      <point x="215" y="171" type="line"/>
      <point x="164" y="76" type="line"/>
      <point x="165" y="45" type="line"/>
      <point x="181" y="22"/>
      <point x="235" y="-10"/>
      <point x="303" y="-10" type="curve" smooth="yes"/>
      <point x="382" y="-10"/>
      <point x="465" y="60"/>
      <point x="465" y="161" type="curve" smooth="yes"/>
      <point x="465" y="273"/>
      <point x="318" y="303"/>
      <point x="318" y="381" type="curve" smooth="yes"/>
      <point x="318" y="471"/>
      <point x="502" y="510"/>
      <point x="502" y="651" type="curve" smooth="yes"/>
      <point x="502" y="729"/>
      <point x="455" y="769"/>
      <point x="381" y="769" type="curve" smooth="yes"/>
      <point x="286" y="769"/>
      <point x="134" y="714"/>
      <point x="111" y="541" type="curve" smooth="yes"/>
      <point x="87" y="365"/>
      <point x="78" y="243"/>
      <point x="61" y="132" type="curve" smooth="yes"/>
      <point x="38" y="-18"/>
      <point x="14" y="-110"/>
      <point x="-1" y="-131" type="curve" smooth="yes"/>
      <point x="-17" y="-153"/>
      <point x="-86" y="-173"/>
      <point x="-129" y="-173" type="curve"/>
    </contour>
  </outline>
</glyph>
<glyph name="oslash" format="2">
  <advance width="473"/>
  <unicode hex="00F8"/>
  <anchor x="269" y="494" name="top"/>
  <anchor x="202" y="0" name="bottom"/>
  <anchor x="237" y="249" name="center"/>
  <anchor x="257" y="2" name="ogonek"/>
  <anchor x="381" y="444" name="topright"/>
  <outline>
    <contour>
      <point x="481" y="580" type="line"/>
      <point x="447" y="598" type="line"/>
      <point x="-11" y="-81" type="line"/>
      <point x="23" y="-99" type="line"/>
    </contour>
    <component base="o" xOffset="4"/>
  </outline>
</glyph>
<glyph name="Aogonek" format="2">
  <advance width="688.7"/>
  <unicode hex="0104"/>
  <anchor x="313" y="0" name="bottom"/>
  <anchor x="574" y="10" name="ogonek"/>
  <anchor x="412" y="705" name="top"/>
  <outline>
    <contour>
      <point x="1" y="-5" type="line"/>
      <point x="45" y="-3"/>
      <point x="109" y="0"/>
      <point x="133" y="0" type="curve" smooth="yes"/>
      <point x="215" y="0" type="line"/>
      <point x="226" y="52" type="line"/>
      <point x="126" y="68" type="line"/>
      <point x="155" y="43" type="line"/>
      <point x="158" y="68"/>
      <point x="175" y="120"/>
      <point x="184" y="139" type="curve" smooth="yes"/>
      <point x="384" y="575" type="line"/>
      <point x="375" y="576" type="line"/>
      <point x="455" y="171" type="line" smooth="yes"/>
      <point x="461" y="137"/>
      <point x="464" y="62"/>
      <point x="471" y="-5" type="curve"/>
      <point x="528" y="0" type="line"/>
      <point x="623" y="0" type="line"/>
      <point x="634" y="52" type="line"/>
      <point x="543" y="69" type="line"/>
      <point x="584" y="41" type="line"/>
      <point x="579" y="53"/>
      <point x="557" y="119"/>
      <point x="553" y="138" type="curve" smooth="yes"/>
      <point x="429" y="715" type="line"/>
      <point x="374" y="705" type="line"/>
      <point x="128" y="168" type="line" smooth="yes"/>
      <point x="111" y="131"/>
      <point x="67" y="55"/>
      <point x="59" y="44" type="curve"/>
      <point x="101" y="69" type="line"/>
      <point x="4" y="42" type="line"/>
    </contour>
    <contour>
      <point x="214" y="237" type="line"/>
      <point x="452" y="237" type="line"/>
      <point x="449" y="288" type="line"/>
      <point x="235" y="284" type="line"/>
    </contour>
    <component base="ogonekcomb" xOffset="344"/>
  </outline>
</glyph>
<glyph name="aogonek" format="2">
  <advance width="509.7"/>
  <unicode hex="0105"/>
  <outline>
    <contour>
      <point x="324" y="-15" type="line"/>
      <point x="468" y="30" type="line"/>
      <point x="471" y="63" type="line"/>
      <point x="348" y="69" type="line"/>
      <point x="379" y="44" type="line"/>
      <point x="382" y="215"/>
      <point x="410" y="338"/>
      <point x="446" y="490" type="curve"/>
      <point x="424" y="502" type="line"/>
      <point x="354" y="487" type="line"/>
      <point x="352" y="437" type="line" smooth="yes"/>
      <point x="346" y="283"/>
      <point x="217" y="44"/>
      <point x="158" y="44" type="curve" smooth="yes"/>
      <point x="130" y="44"/>
      <point x="111" y="86"/>
      <point x="111" y="146" type="curve" smooth="yes"/>
      <point x="111" y="267"/>
      <point x="183" y="455"/>
      <point x="234" y="455" type="curve" smooth="yes"/>
      <point x="286" y="455"/>
      <point x="365" y="411"/>
      <point x="378" y="404" type="curve"/>
      <point x="379" y="489" type="line"/>
      <point x="359" y="490"/>
      <point x="283" y="502"/>
      <point x="248" y="502" type="curve" smooth="yes"/>
      <point x="156" y="502"/>
      <point x="29" y="290"/>
      <point x="29" y="139" type="curve" smooth="yes"/>
      <point x="29" y="39"/>
      <point x="65" y="-9"/>
      <point x="132" y="-9" type="curve" smooth="yes"/>
      <point x="205" y="-9"/>
      <point x="281" y="80"/>
      <point x="333" y="196" type="curve"/>
      <point x="328" y="214" type="line"/>
      <point x="313" y="113"/>
      <point x="310" y="60"/>
      <point x="300" y="0" type="curve"/>
    </contour>
    <component base="ogonekcomb" xOffset="188" yOffset="1"/>
  </outline>
</glyph>
<glyph name="iogonek" format="2">
  <advance width="292.5"/>
  <unicode hex="012F"/>
  <outline>
    <contour>
      <point x="237" y="484" type="curve"/>
      <point x="215" y="503" type="line"/>
      <point x="53" y="460" type="line"/>
      <point x="54" y="423" type="line"/>
      <point x="171" y="417" type="line"/>
      <point x="139" y="444" type="line"/>
      <point x="123" y="276"/>
      <point x="115" y="194"/>
      <point x="66" y="0" type="curve"/>
      <point x="90" y="-15" type="line"/>
      <point x="251" y="30" type="line"/>
      <point x="254" y="64" type="line"/>
      <point x="130" y="70" type="line"/>
      <point x="160" y="42" type="line"/>
      <point x="184" y="218"/>
      <point x="209" y="385"/>
    </contour>
    <component base="dotaccentcomb" xOffset="14" yOffset="31"/>
    <component base="ogonekcomb" xOffset="-37" yOffset="1"/>
  </outline>
</glyph>
<glyph name="kgreenlandic" format="2">
  <advance width="520"/>
  <unicode hex="0138"/>
  <anchor x="230" y="0" name="bottom"/>
  <anchor x="290" y="494" name="top"/>
  <outline>
    <contour>
      <point x="336" y="-10" type="line"/>
      <point x="476" y="35" type="line"/>
      <point x="480" y="68" type="line"/>
      <point x="354" y="68" type="line"/>
      <point x="398" y="54" type="line"/>
      <point x="356" y="94"/>
      <point x="302" y="169"/>
      <point x="267" y="229" type="curve"/>
      <point x="251" y="209" type="line"/>
      <point x="384" y="244"/>
      <point x="470" y="335"/>
      <point x="470" y="428" type="curve" smooth="yes"/>
      <point x="470" y="476"/>
      <point x="448" y="508"/>
      <point x="406" y="508" type="curve" smooth="yes"/>
      <point x="323" y="508"/>
      <point x="234" y="436"/>
      <point x="174" y="306" type="curve"/>
      <point x="158" y="140" type="line"/>
      <point x="201" y="313"/>
      <point x="300" y="437"/>
      <point x="375" y="437" type="curve" smooth="yes"/>
      <point x="390" y="437"/>
      <point x="401" y="426"/>
      <point x="401" y="406" type="curve" smooth="yes"/>
      <point x="401" y="337"/>
      <point x="330" y="271"/>
      <point x="206" y="233" type="curve"/>
      <point x="206" y="197" type="line"/>
    </contour>
    <contour>
      <point x="79" y="-10" type="line"/>
      <point x="138" y="5" type="line"/>
      <point x="183" y="299" type="line"/>
      <point x="195" y="370"/>
      <point x="206" y="444"/>
      <point x="219" y="489" type="curve"/>
      <point x="200" y="508" type="line"/>
      <point x="39" y="463" type="line"/>
      <point x="39" y="428" type="line"/>
      <point x="156" y="422" type="line"/>
      <point x="127" y="448" type="line"/>
      <point x="109" y="270"/>
      <point x="107" y="216"/>
      <point x="55" y="5" type="curve"/>
    </contour>
  </outline>
</glyph>
<glyph name="napostrophe" format="2">
  <advance width="637.5"/>
  <unicode hex="0149"/>
  <anchor x="322" y="0" name="bottom"/>
  <anchor x="392" y="494" name="top"/>
  <outline>
    <contour>
      <point x="157" y="-15" type="line"/>
      <point x="220" y="0" type="line"/>
      <point x="225" y="35"/>
      <point x="230" y="71"/>
      <point x="235" y="106" type="curve"/>
      <point x="285" y="317"/>
      <point x="390" y="432"/>
      <point x="434" y="432" type="curve" smooth="yes"/>
      <point x="463" y="432"/>
      <point x="469" y="407"/>
      <point x="469" y="379" type="curve" smooth="yes"/>
      <point x="469" y="288"/>
      <point x="434" y="130"/>
      <point x="404" y="0" type="curve"/>
      <point x="428" y="-15" type="line"/>
      <point x="596" y="30" type="line"/>
      <point x="599" y="64" type="line"/>
      <point x="471" y="70" type="line"/>
      <point x="504" y="45" type="line"/>
      <point x="508" y="179"/>
      <point x="558" y="327"/>
      <point x="558" y="422" type="curve" smooth="yes"/>
      <point x="558" y="469"/>
      <point x="538" y="503"/>
      <point x="487" y="503" type="curve" smooth="yes"/>
      <point x="384" y="503"/>
      <point x="299" y="387"/>
      <point x="258" y="298" type="curve"/>
      <point x="263" y="291" type="line"/>
      <point x="276" y="366"/>
      <point x="288" y="436"/>
      <point x="302" y="484" type="curve"/>
      <point x="281" y="503" type="line"/>
      <point x="209" y="484" type="line"/>
      <point x="194" y="317"/>
      <point x="183" y="196"/>
      <point x="132" y="0" type="curve"/>
    </contour>
    <component base="apostrophemod" xOffset="-41" yOffset="-160"/>
  </outline>
</glyph>
<glyph name="Eng" format="2">
  <advance width="761.7"/>
  <unicode hex="014A"/>
  <outline>
    <contour>
      <point x="459" y="-200" type="line"/>
      <point x="502" y="-146"/>
      <point x="586" y="-40"/>
      <point x="593" y="0" type="curve" smooth="yes"/>
      <point x="673" y="538" type="line" smooth="yes"/>
      <point x="679" y="575"/>
      <point x="705" y="654"/>
      <point x="712" y="668" type="curve"/>
      <point x="670" y="643" type="line"/>
      <point x="781" y="653" type="line"/>
      <point x="786" y="710" type="line"/>
      <point x="754" y="708"/>
      <point x="696" y="705"/>
      <point x="665" y="705" type="curve" smooth="yes"/>
      <point x="649" y="705"/>
      <point x="593" y="708"/>
      <point x="557" y="710" type="curve"/>
      <point x="544" y="658" type="line"/>
      <point x="652" y="641" type="line"/>
      <point x="618" y="675" type="line"/>
      <point x="619" y="654"/>
      <point x="619" y="589"/>
      <point x="617" y="574" type="curve" smooth="yes"/>
      <point x="550" y="123" type="line"/>
      <point x="571" y="127" type="line"/>
      <point x="353" y="529" type="line"/>
      <point x="281" y="685" type="line"/>
      <point x="265" y="705" type="line"/>
      <point x="231" y="705" type="line" smooth="yes"/>
      <point x="212" y="705"/>
      <point x="154" y="708"/>
      <point x="115" y="710" type="curve"/>
      <point x="102" y="658" type="line"/>
      <point x="210" y="641" type="line"/>
      <point x="177" y="680" type="line"/>
      <point x="177" y="664"/>
      <point x="178" y="589"/>
      <point x="175" y="574" type="curve" smooth="yes"/>
      <point x="111" y="134" type="line" smooth="yes"/>
      <point x="109" y="120"/>
      <point x="84" y="36"/>
      <point x="81" y="24" type="curve"/>
      <point x="121" y="66" type="line"/>
      <point x="11" y="43" type="line"/>
      <point x="9" y="-5" type="line"/>
      <point x="54" y="-3"/>
      <point x="117" y="0"/>
      <point x="142" y="0" type="curve" smooth="yes"/>
      <point x="233" y="0" type="line"/>
      <point x="247" y="52" type="line"/>
      <point x="130" y="62" type="line"/>
      <point x="166" y="27" type="line"/>
      <point x="167" y="61"/>
      <point x="173" y="136"/>
      <point x="177" y="164" type="curve" smooth="yes"/>
      <point x="239" y="600" type="line"/>
      <point x="219" y="596" type="line"/>
      <point x="533" y="0" type="line"/>
      <point x="533" y="-17"/>
      <point x="468" y="-120"/>
      <point x="431" y="-179" type="curve"/>
    </contour>
  </outline>
</glyph>
<glyph name="eng" format="2">
  <advance width="516.7"/>
  <unicode hex="014B"/>
  <outline>
    <contour>
      <point x="243" y="-238" type="line"/>
      <point x="354" y="-94"/>
      <point x="396" y="-29"/>
      <point x="400" y="-3" type="curve" smooth="yes"/>
      <point x="408" y="47"/>
      <point x="423" y="116"/>
      <point x="427" y="139" type="curve" smooth="yes"/>
      <point x="447" y="240"/>
      <point x="474" y="359"/>
      <point x="474" y="426" type="curve" smooth="yes"/>
      <point x="474" y="470"/>
      <point x="455" y="508"/>
      <point x="404" y="508" type="curve" smooth="yes"/>
      <point x="304" y="508"/>
      <point x="217" y="390"/>
      <point x="179" y="307" type="curve"/>
      <point x="184" y="300" type="line"/>
      <point x="196" y="371"/>
      <point x="206" y="438"/>
      <point x="220" y="489" type="curve"/>
      <point x="201" y="508" type="line"/>
      <point x="40" y="463" type="line"/>
      <point x="40" y="428" type="line"/>
      <point x="157" y="422" type="line"/>
      <point x="128" y="448" type="line"/>
      <point x="110" y="270"/>
      <point x="108" y="216"/>
      <point x="56" y="5" type="curve"/>
      <point x="80" y="-10" type="line"/>
      <point x="139" y="5" type="line"/>
      <point x="143" y="43"/>
      <point x="147" y="75"/>
      <point x="154" y="115" type="curve"/>
      <point x="207" y="336"/>
      <point x="314" y="442"/>
      <point x="355" y="442" type="curve" smooth="yes"/>
      <point x="383" y="442"/>
      <point x="390" y="415"/>
      <point x="390" y="387" type="curve" smooth="yes"/>
      <point x="390" y="288"/>
      <point x="354" y="131"/>
      <point x="329" y="16" type="curve" smooth="yes"/>
      <point x="317" y="-33"/>
      <point x="261" y="-134"/>
      <point x="215" y="-212" type="curve"/>
    </contour>
  </outline>
</glyph>
<glyph name="oe" format="2">
  <advance width="701"/>
  <unicode hex="0153"/>
  <anchor x="413" y="0" name="bottom"/>
  <anchor x="475" y="498" name="top"/>
  <outline>
    <contour>
      <point x="174" y="-10" type="curve" smooth="yes"/>
      <point x="311" y="-10"/>
      <point x="431" y="153"/>
      <point x="431" y="337" type="curve" smooth="yes"/>
      <point x="431" y="445"/>
      <point x="381" y="508"/>
      <point x="290" y="508" type="curve" smooth="yes"/>
      <point x="153" y="508"/>
      <point x="33" y="345"/>
      <point x="33" y="163" type="curve" smooth="yes"/>
      <point x="33" y="57"/>
      <point x="84" y="-10"/>
    </contour>
    <contour>
      <point x="189" y="41" type="curve" smooth="yes"/>
      <point x="143" y="41"/>
      <point x="121" y="82"/>
      <point x="121" y="158" type="curve" smooth="yes"/>
      <point x="121" y="326"/>
      <point x="186" y="459"/>
      <point x="276" y="459" type="curve" smooth="yes"/>
      <point x="323" y="459"/>
      <point x="344" y="417"/>
      <point x="344" y="341" type="curve" smooth="yes"/>
      <point x="344" y="170"/>
      <point x="277" y="41"/>
    </contour>
    <contour>
      <point x="439" y="-10" type="curve" smooth="yes"/>
      <point x="523" y="-10"/>
      <point x="602" y="39"/>
      <point x="658" y="133" type="curve"/>
      <point x="627" y="153" type="line"/>
      <point x="577" y="82"/>
      <point x="518" y="47"/>
      <point x="471" y="47" type="curve" smooth="yes"/>
      <point x="430" y="47"/>
      <point x="409" y="84"/>
      <point x="409" y="150" type="curve" smooth="yes"/>
      <point x="409" y="270"/>
      <point x="482" y="453"/>
      <point x="532" y="453" type="curve" smooth="yes"/>
      <point x="578" y="453"/>
      <point x="598" y="438"/>
      <point x="598" y="404" type="curve" smooth="yes"/>
      <point x="598" y="330"/>
      <point x="515" y="271"/>
      <point x="395" y="253" type="curve"/>
      <point x="394" y="211" type="line"/>
      <point x="571" y="243"/>
      <point x="679" y="325"/>
      <point x="679" y="430" type="curve" smooth="yes"/>
      <point x="679" y="481"/>
      <point x="627" y="508"/>
      <point x="535" y="508" type="curve" smooth="yes"/>
      <point x="449" y="508"/>
      <point x="327" y="295"/>
      <point x="327" y="141" type="curve" smooth="yes"/>
      <point x="327" y="43"/>
      <point x="366" y="-10"/>
    </contour>
  </outline>
</glyph>
<glyph name="Schwa" format="2">
  <advance width="638.1"/>
  <unicode hex="018F"/>
  <outline>
    <contour>
      <point x="244" y="60" type="curve" smooth="yes"/>
      <point x="162" y="67"/>
      <point x="143" y="123"/>
      <point x="177" y="189" type="curve" smooth="yes"/>
      <point x="218" y="269"/>
      <point x="342" y="323"/>
      <point x="490" y="343" type="curve"/>
      <point x="490" y="400" type="line"/>
      <point x="219" y="356"/>
      <point x="48" y="237"/>
      <point x="48" y="94" type="curve" smooth="yes"/>
      <point x="48" y="-75"/>
      <point x="380" y="-31"/>
      <point x="494" y="128" type="curve" smooth="yes"/>
      <point x="559" y="219"/>
      <point x="608" y="329"/>
      <point x="608" y="459" type="curve" smooth="yes"/>
      <point x="608" y="617"/>
      <point x="530" y="703"/>
      <point x="396" y="703" type="curve" smooth="yes"/>
      <point x="257" y="703"/>
      <point x="154" y="646"/>
      <point x="72" y="516" type="curve"/>
      <point x="113" y="487" type="line"/>
      <point x="193" y="588"/>
      <point x="286" y="637"/>
      <point x="370" y="637" type="curve" smooth="yes"/>
      <point x="456" y="637"/>
      <point x="494" y="585"/>
      <point x="494" y="461" type="curve" smooth="yes"/>
      <point x="494" y="225"/>
      <point x="380" y="50"/>
    </contour>
  </outline>
</glyph>
<glyph name="Nhookleft" format="2">
  <advance width="738.6"/>
  <unicode hex="019D"/>
  <anchor x="317" y="0" name="bottom"/>
  <anchor x="416" y="705" name="top"/>
  <outline>
    <contour>
      <point x="-76" y="-195" type="line"/>
      <point x="19" y="-193"/>
      <point x="109" y="-144"/>
      <point x="129" y="6" type="curve" smooth="yes"/>
      <point x="140" y="87"/>
      <point x="180" y="342"/>
      <point x="216" y="600" type="curve"/>
      <point x="196" y="596" type="line"/>
      <point x="510" y="0" type="line"/>
      <point x="570" y="0" type="line"/>
      <point x="650" y="538" type="line" smooth="yes"/>
      <point x="656" y="575"/>
      <point x="682" y="654"/>
      <point x="689" y="668" type="curve"/>
      <point x="647" y="643" type="line"/>
      <point x="758" y="653" type="line"/>
      <point x="763" y="710" type="line"/>
      <point x="731" y="708"/>
      <point x="673" y="705"/>
      <point x="642" y="705" type="curve" smooth="yes"/>
      <point x="626" y="705"/>
      <point x="570" y="708"/>
      <point x="534" y="710" type="curve"/>
      <point x="521" y="658" type="line"/>
      <point x="628" y="641" type="line"/>
      <point x="595" y="675" type="line"/>
      <point x="596" y="654"/>
      <point x="596" y="589"/>
      <point x="594" y="574" type="curve" smooth="yes"/>
      <point x="527" y="123" type="line"/>
      <point x="547" y="127" type="line"/>
      <point x="329" y="529" type="line"/>
      <point x="258" y="685" type="line"/>
      <point x="242" y="705" type="line"/>
      <point x="208" y="705" type="line" smooth="yes"/>
      <point x="189" y="705"/>
      <point x="131" y="708"/>
      <point x="92" y="710" type="curve"/>
      <point x="79" y="658" type="line"/>
      <point x="187" y="641" type="line"/>
      <point x="154" y="680" type="line"/>
      <point x="154" y="664"/>
      <point x="154" y="589"/>
      <point x="152" y="574" type="curve" smooth="yes"/>
      <point x="105" y="255"/>
      <point x="92" y="152"/>
      <point x="71" y="11" type="curve" smooth="yes"/>
      <point x="57" y="-80"/>
      <point x="14" y="-144"/>
      <point x="-70" y="-151" type="curve"/>
    </contour>
  </outline>
</glyph>
<glyph name="Gstroke" format="2">
  <advance width="731.8"/>
  <unicode hex="01E4"/>
  <anchor x="351" y="0" name="bottom"/>
  <anchor x="511" y="181" name="center"/>
  <anchor x="444" y="720" name="top"/>
  <outline>
    <contour>
      <point x="349" y="-15" type="curve" smooth="yes"/>
      <point x="433" y="-15"/>
      <point x="498" y="3"/>
      <point x="566" y="19" type="curve"/>
      <point x="587" y="162" type="line" smooth="yes"/>
      <point x="589" y="182"/>
      <point x="608" y="265"/>
      <point x="618" y="315" type="curve"/>
      <point x="603" y="332" type="line"/>
      <point x="581" y="331"/>
      <point x="550" y="329"/>
      <point x="536" y="329" type="curve" smooth="yes"/>
      <point x="428" y="329" type="line"/>
      <point x="415" y="274" type="line"/>
      <point x="550" y="263" type="line"/>
      <point x="516" y="302" type="line"/>
      <point x="517" y="281"/>
      <point x="518" y="207"/>
      <point x="516" y="196" type="curve" smooth="yes"/>
      <point x="489" y="29" type="line"/>
      <point x="515" y="69" type="line"/>
      <point x="469" y="55"/>
      <point x="402" y="40"/>
      <point x="355" y="40" type="curve" smooth="yes"/>
      <point x="227" y="40"/>
      <point x="160" y="148"/>
      <point x="160" y="287" type="curve" smooth="yes"/>
      <point x="160" y="486"/>
      <point x="257" y="665"/>
      <point x="435" y="665" type="curve" smooth="yes"/>
      <point x="484" y="665"/>
      <point x="547" y="649"/>
      <point x="590" y="633" type="curve"/>
      <point x="565" y="667" type="line"/>
      <point x="571" y="643"/>
      <point x="575" y="601"/>
      <point x="574" y="590" type="curve" smooth="yes"/>
      <point x="568" y="547" type="line"/>
      <point x="623" y="540" type="line"/>
      <point x="654" y="686" type="line"/>
      <point x="592" y="702"/>
      <point x="531" y="720"/>
      <point x="446" y="720" type="curve" smooth="yes"/>
      <point x="199" y="720"/>
      <point x="63" y="531"/>
      <point x="63" y="284" type="curve" smooth="yes"/>
      <point x="63" y="106"/>
      <point x="164" y="-15"/>
    </contour>
    <component base="barcomp" xOffset="243" yOffset="-426"/>
  </outline>
</glyph>
<glyph name="gstroke" format="2">
  <advance width="478.1"/>
  <unicode hex="01E5"/>
  <anchor x="284" y="-75" name="center"/>
  <anchor x="306" y="494" name="top"/>
  <outline>
    <contour>
      <point x="-34" y="-217" type="line"/>
      <point x="193" y="-281"/>
      <point x="351" y="-170"/>
      <point x="372" y="7" type="curve" smooth="yes"/>
      <point x="393" y="188"/>
      <point x="410" y="340"/>
      <point x="446" y="490" type="curve"/>
      <point x="426" y="502" type="line"/>
      <point x="355" y="487" type="line"/>
      <point x="353" y="437" type="line" smooth="yes"/>
      <point x="347" y="284"/>
      <point x="219" y="39"/>
      <point x="158" y="39" type="curve" smooth="yes"/>
      <point x="129" y="39"/>
      <point x="111" y="82"/>
      <point x="111" y="140" type="curve" smooth="yes"/>
      <point x="110" y="264"/>
      <point x="183" y="455"/>
      <point x="235" y="455" type="curve" smooth="yes"/>
      <point x="285" y="455"/>
      <point x="366" y="411"/>
      <point x="378" y="404" type="curve"/>
      <point x="380" y="489" type="line"/>
      <point x="360" y="490"/>
      <point x="283" y="502"/>
      <point x="249" y="502" type="curve" smooth="yes"/>
      <point x="153" y="502"/>
      <point x="26" y="282"/>
      <point x="29" y="134" type="curve" smooth="yes"/>
      <point x="30" y="35"/>
      <point x="64" y="-15"/>
      <point x="131" y="-15" type="curve" smooth="yes"/>
      <point x="204" y="-15"/>
      <point x="280" y="73"/>
      <point x="333" y="191" type="curve"/>
      <point x="328" y="210" type="line"/>
      <point x="313" y="109"/>
      <point x="310" y="61"/>
      <point x="301" y="-8" type="curve"/>
      <point x="298" y="-71"/>
      <point x="282" y="-121"/>
      <point x="271" y="-132" type="curve" smooth="yes"/>
      <point x="222" y="-178"/>
      <point x="93" y="-179"/>
      <point x="-7" y="-146" type="curve"/>
    </contour>
    <component base="barcomp" xOffset="17" yOffset="-681"/>
  </outline>
</glyph>
<glyph name="apostrophemod" format="2">
  <advance width="225.2"/>
  <unicode hex="02BC"/>
  <outline>
    <contour>
      <point x="77" y="525" type="line"/>
      <point x="165" y="545"/>
      <point x="237" y="640"/>
      <point x="237" y="729" type="curve" smooth="yes"/>
      <point x="237" y="766"/>
      <point x="222" y="788"/>
      <point x="195" y="788" type="curve" smooth="yes"/>
      <point x="155" y="788"/>
      <point x="123" y="754"/>
      <point x="123" y="710" type="curve" smooth="yes"/>
      <point x="123" y="672"/>
      <point x="150" y="647"/>
      <point x="198" y="660" type="curve"/>
      <point x="166" y="682" type="line"/>
      <point x="167" y="625"/>
      <point x="125" y="576"/>
      <point x="74" y="556" type="curve"/>
    </contour>
  </outline>
</glyph>
<glyph name="ringhalfright" format="2">
  <advance width="200.5"/>
  <unicode hex="02BE"/>
  <outline>
    <contour>
      <point x="98" y="545" type="line"/>
      <point x="158" y="545"/>
      <point x="189" y="577"/>
      <point x="195" y="626" type="curve" smooth="yes"/>
      <point x="201" y="679"/>
      <point x="176" y="715"/>
      <point x="116" y="715" type="curve"/>
      <point x="115" y="678" type="line"/>
      <point x="147" y="678"/>
      <point x="155" y="658"/>
      <point x="152" y="633" type="curve" smooth="yes"/>
      <point x="148" y="606"/>
      <point x="132" y="581"/>
      <point x="100" y="581" type="curve"/>
    </contour>
  </outline>
</glyph>
<glyph name="circumflexcomb" format="2">
  <unicode hex="0302"/>
  <anchor x="205" y="494" name="_top"/>
  <anchor x="236" y="709" name="top"/>
  <outline>
    <contour>
      <point x="91" y="539" type="line"/>
      <point x="298" y="664" type="line"/>
      <point x="270" y="698" type="line"/>
      <point x="234" y="698" type="line"/>
      <point x="66" y="568" type="line"/>
    </contour>
    <contour>
      <point x="349" y="540" type="line"/>
      <point x="383" y="563" type="line"/>
      <point x="293" y="698" type="line"/>
      <point x="257" y="698" type="line"/>
      <point x="226" y="669" type="line"/>
    </contour>
  </outline>
</glyph>
<glyph name="macroncomb" format="2">
  <unicode hex="0304"/>
  <anchor x="247" y="494" name="_top"/>
  <anchor x="264" y="605" name="top"/>
  <outline>
    <contour>
      <point x="108" y="569" type="line"/>
      <point x="403" y="569" type="line"/>
      <point x="416" y="623" type="line"/>
      <point x="116" y="623" type="line"/>
    </contour>
  </outline>
</glyph>
<glyph name="brevecomb" format="2">
  <unicode hex="0306"/>
  <anchor x="200" y="494" name="_top"/>
  <anchor x="228" y="660" name="top"/>
  <outline>
    <contour>
      <point x="351" y="676" type="curve"/>
      <point x="316" y="691" type="line"/>
      <point x="263" y="602"/>
      <point x="161" y="599"/>
      <point x="130" y="687" type="curve"/>
      <point x="95" y="679" type="line"/>
      <point x="109" y="522"/>
      <point x="299" y="519"/>
    </contour>
  </outline>
</glyph>
<glyph name="dieresiscomb" format="2">
  <unicode hex="0308"/>
  <anchor x="216" y="494" name="_top"/>
  <anchor x="241" y="657" name="top"/>
  <outline>
    <contour>
      <point x="321" y="564" type="curve" smooth="yes"/>
      <point x="352" y="564"/>
      <point x="377" y="590"/>
      <point x="376" y="629" type="curve" smooth="yes"/>
      <point x="376" y="657"/>
      <point x="357" y="676"/>
      <point x="329" y="676" type="curve" smooth="yes"/>
      <point x="297" y="676"/>
      <point x="274" y="648"/>
      <point x="274" y="612" type="curve" smooth="yes"/>
      <point x="274" y="581"/>
      <point x="296" y="564"/>
    </contour>
    <contour>
      <point x="146" y="564" type="curve" smooth="yes"/>
      <point x="179" y="564"/>
      <point x="205" y="591"/>
      <point x="204" y="629" type="curve" smooth="yes"/>
      <point x="204" y="657"/>
      <point x="184" y="676"/>
      <point x="158" y="676" type="curve" smooth="yes"/>
      <point x="124" y="676"/>
      <point x="102" y="647"/>
      <point x="102" y="612" type="curve" smooth="yes"/>
      <point x="103" y="581"/>
      <point x="122" y="564"/>
    </contour>
  </outline>
</glyph>
<glyph name="hookabovecomb" format="2">
  <unicode hex="0309"/>
  <anchor x="122" y="494" name="_top"/>
  <anchor x="188" y="734" name="top"/>
  <outline>
    <contour>
      <point x="146" y="549" type="curve" smooth="yes"/>
      <point x="157" y="549"/>
      <point x="167" y="552"/>
      <point x="173" y="555" type="curve"/>
      <point x="173" y="555"/>
      <point x="170" y="568"/>
      <point x="170" y="578" type="curve" smooth="yes"/>
      <point x="169" y="615"/>
      <point x="245" y="606"/>
      <point x="244" y="679" type="curve" smooth="yes"/>
      <point x="243" y="716"/>
      <point x="208" y="734"/>
      <point x="170" y="734" type="curve" smooth="yes"/>
      <point x="139" y="734"/>
      <point x="112" y="723"/>
      <point x="106" y="721" type="curve"/>
      <point x="116" y="679" type="line"/>
      <point x="128" y="683"/>
      <point x="142" y="687"/>
      <point x="151" y="687" type="curve" smooth="yes"/>
      <point x="170" y="687"/>
      <point x="178" y="679"/>
      <point x="178" y="665" type="curve" smooth="yes"/>
      <point x="178" y="630"/>
      <point x="108" y="618"/>
      <point x="108" y="582" type="curve" smooth="yes"/>
      <point x="109" y="574"/>
      <point x="108" y="549"/>
    </contour>
  </outline>
</glyph>
<glyph name="dblgravecomb" format="2">
  <unicode hex="030F"/>
  <anchor x="311" y="494" name="_top"/>
  <anchor x="280" y="759" name="top"/>
  <outline>
    <contour>
      <point x="414" y="562" type="line"/>
      <point x="446" y="594" type="line"/>
      <point x="283" y="732" type="line"/>
      <point x="245" y="680" type="line"/>
    </contour>
    <contour>
      <point x="260" y="560" type="line"/>
      <point x="289" y="594" type="line"/>
      <point x="121" y="723" type="line"/>
      <point x="85" y="670" type="line"/>
    </contour>
  </outline>
</glyph>
<glyph name="breveinvertedcomb" format="2">
  <unicode hex="0311"/>
  <anchor x="201" y="494" name="_top"/>
  <anchor x="222" y="675" name="top"/>
  <outline>
    <contour>
      <point x="89" y="561" type="curve"/>
      <point x="124" y="546" type="line"/>
      <point x="177" y="635"/>
      <point x="279" y="638"/>
      <point x="310" y="550" type="curve"/>
      <point x="345" y="558" type="line"/>
      <point x="331" y="715"/>
      <point x="141" y="718"/>
    </contour>
  </outline>
</glyph>
<glyph name="commaturnedabovecomb" format="2">
  <unicode hex="0312"/>
  <anchor x="137" y="494" name="_top"/>
  <anchor x="172" y="742" name="top"/>
  <outline>
    <contour>
      <point x="156" y="742" type="line"/>
      <point x="124" y="694"/>
      <point x="91" y="637"/>
      <point x="91" y="592" type="curve" smooth="yes"/>
      <point x="91" y="561"/>
      <point x="105" y="544"/>
      <point x="131" y="544" type="curve" smooth="yes"/>
      <point x="156" y="544"/>
      <point x="187" y="565"/>
      <point x="187" y="607" type="curve" smooth="yes"/>
      <point x="187" y="641"/>
      <point x="163" y="652"/>
      <point x="156" y="655" type="curve"/>
      <point x="159" y="624" type="line"/>
      <point x="160" y="660"/>
      <point x="175" y="696"/>
      <point x="189" y="730" type="curve"/>
    </contour>
  </outline>
</glyph>
<glyph name="commaaccentcomb" format="2">
  <unicode hex="0326"/>
  <anchor x="79" y="0" name="_bottom"/>
  <anchor x="44" y="-248" name="bottom"/>
  <outline>
    <contour>
      <point x="42" y="-248" type="line"/>
      <point x="74" y="-200"/>
      <point x="107" y="-143"/>
      <point x="107" y="-98" type="curve" smooth="yes"/>
      <point x="107" y="-67"/>
      <point x="93" y="-50"/>
      <point x="67" y="-50" type="curve" smooth="yes"/>
      <point x="42" y="-50"/>
      <point x="11" y="-71"/>
      <point x="11" y="-113" type="curve" smooth="yes"/>
      <point x="11" y="-147"/>
      <point x="35" y="-158"/>
      <point x="42" y="-161" type="curve"/>
      <point x="39" y="-130" type="line"/>
      <point x="38" y="-166"/>
      <point x="23" y="-202"/>
      <point x="9" y="-236" type="curve"/>
    </contour>
  </outline>
</glyph>
<glyph name="cedillacomb" format="2">
  <unicode hex="0327"/>
  <anchor x="79" y="0" name="_bottom"/>
  <anchor x="54" y="-247" name="bottom"/>
  <outline>
    <contour>
      <point x="-12" y="-247" type="line"/>
      <point x="75" y="-247"/>
      <point x="134" y="-210"/>
      <point x="145" y="-137" type="curve" smooth="yes"/>
      <point x="155" y="-72"/>
      <point x="113" y="-55"/>
      <point x="48" y="-41" type="curve"/>
      <point x="61" y="-97" type="line"/>
      <point x="113" y="17" type="line"/>
      <point x="64" y="17" type="line"/>
      <point x="24" y="-97" type="line"/>
      <point x="33" y="-102" type="line"/>
      <point x="58" y="-103"/>
      <point x="91" y="-110"/>
      <point x="87" y="-147" type="curve" smooth="yes"/>
      <point x="82" y="-195"/>
      <point x="32" y="-210"/>
      <point x="-18" y="-212" type="curve"/>
    </contour>
  </outline>
</glyph>
<glyph name="ogonekcomb" format="2">
  <unicode hex="0328"/>
  <anchor x="187" y="-1" name="_ogonek"/>
  <outline>
    <contour>
      <point x="94" y="-211" type="curve" smooth="yes"/>
      <point x="117" y="-211"/>
      <point x="140" y="-208"/>
      <point x="157" y="-201" type="curve"/>
      <point x="153" y="-158" type="line"/>
      <point x="141" y="-161"/>
      <point x="129" y="-162"/>
      <point x="117" y="-162" type="curve" smooth="yes"/>
      <point x="86" y="-162"/>
      <point x="69" y="-146"/>
      <point x="69" y="-124" type="curve" smooth="yes"/>
      <point x="69" y="-97"/>
      <point x="103" y="-33"/>
      <point x="187" y="-1" type="curve"/>
      <point x="124" y="8" type="line"/>
      <point x="21" y="-40"/>
      <point x="-3" y="-93"/>
      <point x="-3" y="-133" type="curve" smooth="yes"/>
      <point x="-3" y="-192"/>
      <point x="47" y="-211"/>
    </contour>
  </outline>
</glyph>
<glyph name="Delta" format="2">
  <advance width="656.6"/>
  <unicode hex="0394"/>
  <outline>
    <contour>
      <point x="63" y="15" type="line"/>
      <point x="68" y="25"/>
      <point x="94" y="99"/>
      <point x="102" y="114" type="curve" smooth="yes"/>
      <point x="387" y="662" type="line"/>
      <point x="353" y="703" type="line"/>
      <point x="68" y="162" type="line" smooth="yes"/>
      <point x="60" y="146"/>
      <point x="20" y="88"/>
      <point x="-11" y="48" type="curve"/>
    </contour>
    <contour>
      <point x="9" y="-17" type="line"/>
      <point x="586" y="-17" type="line"/>
      <point x="618" y="51" type="line"/>
      <point x="543" y="40" type="line"/>
      <point x="12" y="45" type="line"/>
      <point x="-11" y="48" type="line"/>
    </contour>
    <contour>
      <point x="512" y="17" type="curve"/>
      <point x="618" y="51" type="line"/>
      <point x="606" y="78"/>
      <point x="590" y="110"/>
      <point x="585" y="132" type="curve" smooth="yes"/>
      <point x="404" y="716" type="line"/>
      <point x="353" y="703" type="line"/>
      <point x="347" y="612" type="line"/>
      <point x="494" y="130" type="line" smooth="yes"/>
      <point x="499" y="114"/>
      <point x="508" y="50"/>
    </contour>
  </outline>
</glyph>
<glyph name="pi" format="2">
  <advance width="570.6"/>
  <unicode hex="03C0"/>
  <outline>
    <contour>
      <point x="62" y="0" type="line"/>
      <point x="142" y="0" type="line"/>
      <point x="155" y="42"/>
      <point x="200" y="151"/>
      <point x="205" y="169" type="curve" smooth="yes"/>
      <point x="287" y="452" type="line"/>
      <point x="237" y="452" type="line"/>
      <point x="133" y="138" type="line"/>
      <point x="126" y="118"/>
      <point x="58" y="6"/>
      <point x="58" y="6" type="curve"/>
    </contour>
    <contour>
      <point x="454" y="-15" type="curve"/>
      <point x="478" y="22" type="line"/>
      <point x="423" y="50"/>
      <point x="424" y="82"/>
      <point x="433" y="169" type="curve"/>
      <point x="470" y="452" type="line"/>
      <point x="413" y="452" type="line"/>
      <point x="359" y="89" type="line"/>
      <point x="350" y="27"/>
      <point x="407" y="5"/>
    </contour>
    <contour>
      <point x="66" y="382" type="line"/>
      <point x="66" y="382"/>
      <point x="121" y="431"/>
      <point x="144" y="431" type="curve" smooth="yes"/>
      <point x="198" y="431"/>
      <point x="416" y="414"/>
      <point x="475" y="414" type="curve" smooth="yes"/>
      <point x="513" y="414"/>
      <point x="590" y="495"/>
      <point x="590" y="495" type="curve"/>
      <point x="563" y="531" type="line"/>
      <point x="563" y="531"/>
      <point x="508" y="496"/>
      <point x="487" y="496" type="curve" smooth="yes"/>
      <point x="433" y="496"/>
      <point x="221" y="513"/>
      <point x="151" y="513" type="curve" smooth="yes"/>
      <point x="114" y="513"/>
      <point x="33" y="410"/>
      <point x="33" y="410" type="curve"/>
    </contour>
  </outline>
</glyph>
<glyph name="zerowidthnonjoiner" format="2">
  <advance width="226"/>
  <unicode hex="200C"/>
  <outline>
    <contour>
      <point x="14" y="-244" type="line"/>
      <point x="91" y="-244" type="line"/>
      <point x="213" y="756" type="line"/>
      <point x="136" y="756" type="line"/>
    </contour>
  </outline>
</glyph>
<glyph name="quoteleft" format="2">
  <advance width="302.2"/>
  <unicode hex="2018"/>
  <outline>
    <contour>
      <point x="255" y="796" type="line"/>
      <point x="173" y="766"/>
      <point x="126" y="646"/>
      <point x="126" y="572" type="curve" smooth="yes"/>
      <point x="126" y="527"/>
      <point x="145" y="493"/>
      <point x="187" y="493" type="curve" smooth="yes"/>
      <point x="226" y="493"/>
      <point x="258" y="529"/>
      <point x="258" y="575" type="curve" smooth="yes"/>
      <point x="258" y="618"/>
      <point x="228" y="644"/>
      <point x="179" y="633" type="curve"/>
      <point x="204" y="620" type="line"/>
      <point x="201" y="662"/>
      <point x="215" y="717"/>
      <point x="271" y="764" type="curve"/>
    </contour>
  </outline>
</glyph>
<glyph name="dagger" format="2">
  <advance width="492.7"/>
  <unicode hex="2020"/>
  <outline>
    <contour>
      <point x="194" y="0" type="line"/>
      <point x="252" y="0" type="line"/>
      <point x="257" y="95"/>
      <point x="325" y="652"/>
      <point x="348" y="738" type="curve"/>
      <point x="329" y="756" type="line"/>
      <point x="271" y="756" type="line"/>
      <point x="267" y="668"/>
      <point x="198" y="101"/>
      <point x="177" y="18" type="curve"/>
    </contour>
    <contour>
      <point x="423" y="353" type="curve"/>
      <point x="443" y="372" type="line"/>
      <point x="449" y="421" type="line"/>
      <point x="384" y="419"/>
      <point x="323" y="417"/>
      <point x="265" y="417" type="curve" smooth="yes"/>
      <point x="208" y="417"/>
      <point x="155" y="419"/>
      <point x="105" y="424" type="curve"/>
      <point x="85" y="405" type="line"/>
      <point x="77" y="356" type="line"/>
      <point x="142" y="358"/>
      <point x="202" y="359"/>
      <point x="257" y="359" type="curve" smooth="yes"/>
      <point x="317" y="359"/>
      <point x="372" y="358"/>
    </contour>
  </outline>
</glyph>
<glyph name="daggerdbl" format="2">
  <advance width="515.3"/>
  <unicode hex="2021"/>
  <outline>
    <contour>
      <point x="205" y="0" type="line"/>
      <point x="264" y="0" type="line"/>
      <point x="268" y="94"/>
      <point x="336" y="651"/>
      <point x="358" y="738" type="curve"/>
      <point x="341" y="756" type="line"/>
      <point x="282" y="756" type="line"/>
      <point x="279" y="663"/>
      <point x="206" y="89"/>
      <point x="189" y="18" type="curve"/>
    </contour>
    <contour>
      <point x="421" y="257" type="curve"/>
      <point x="441" y="276" type="line"/>
      <point x="448" y="326" type="line"/>
      <point x="381" y="324"/>
      <point x="319" y="321"/>
      <point x="259" y="321" type="curve" smooth="yes"/>
      <point x="205" y="321"/>
      <point x="154" y="323"/>
      <point x="104" y="329" type="curve"/>
      <point x="84" y="310" type="line"/>
      <point x="76" y="260" type="line"/>
      <point x="138" y="262"/>
      <point x="197" y="263"/>
      <point x="252" y="263" type="curve" smooth="yes"/>
      <point x="312" y="263"/>
      <point x="368" y="262"/>
    </contour>
    <contour>
      <point x="445" y="448" type="curve"/>
      <point x="467" y="467" type="line"/>
      <point x="473" y="517" type="line"/>
      <point x="408" y="515"/>
      <point x="346" y="513"/>
      <point x="287" y="513" type="curve" smooth="yes"/>
      <point x="232" y="513"/>
      <point x="179" y="515"/>
      <point x="129" y="520" type="curve"/>
      <point x="108" y="501" type="line"/>
      <point x="101" y="451" type="line"/>
      <point x="165" y="453"/>
      <point x="225" y="455"/>
      <point x="282" y="455" type="curve" smooth="yes"/>
      <point x="339" y="455"/>
      <point x="393" y="453"/>
    </contour>
  </outline>
</glyph>
<glyph name="bullet" format="2">
  <advance width="327.9"/>
  <unicode hex="2022"/>
  <outline>
    <contour>
      <point x="149" y="169" type="curve" smooth="yes"/>
      <point x="202" y="169"/>
      <point x="239" y="212"/>
      <point x="239" y="273" type="curve" smooth="yes"/>
      <point x="239" y="314"/>
      <point x="218" y="339"/>
      <point x="180" y="339" type="curve" smooth="yes"/>
      <point x="128" y="339"/>
      <point x="90" y="295"/>
      <point x="90" y="234" type="curve" smooth="yes"/>
      <point x="90" y="195"/>
      <point x="110" y="169"/>
    </contour>
  </outline>
</glyph>
<glyph name="onedotenleader" format="2">
  <advance width="306.1"/>
  <unicode hex="2024"/>
  <outline>
    <contour>
      <point x="118" y="-10" type="curve" smooth="yes"/>
      <point x="161" y="-10"/>
      <point x="190" y="26"/>
      <point x="190" y="74" type="curve" smooth="yes"/>
      <point x="190" y="107"/>
      <point x="173" y="127"/>
      <point x="142" y="127" type="curve" smooth="yes"/>
      <point x="100" y="127"/>
      <point x="70" y="91"/>
      <point x="70" y="43" type="curve" smooth="yes"/>
      <point x="70" y="12"/>
      <point x="86" y="-10"/>
    </contour>
  </outline>
</glyph>
<glyph name="second" format="2">
  <advance width="459.8"/>
  <unicode hex="2033"/>
  <outline>
    <contour>
      <point x="324" y="398" type="line"/>
      <point x="412" y="666" type="line"/>
      <point x="343" y="686" type="line"/>
      <point x="275" y="406" type="line"/>
    </contour>
    <contour>
      <point x="188" y="398" type="line"/>
      <point x="254" y="666" type="line"/>
      <point x="185" y="686" type="line"/>
      <point x="137" y="406" type="line"/>
    </contour>
  </outline>
</glyph>
<glyph name="guilsinglleft" format="2">
  <advance width="325.9"/>
  <unicode hex="2039"/>
  <outline>
    <contour>
      <point x="194" y="36" type="line"/>
      <point x="233" y="60" type="line"/>
      <point x="137" y="282" type="line"/>
      <point x="131" y="223" type="line"/>
      <point x="281" y="444" type="line"/>
      <point x="247" y="469" type="line"/>
      <point x="53" y="252" type="line"/>
    </contour>
  </outline>
</glyph>
<glyph name="guilsinglright" format="2">
  <advance width="325.9"/>
  <unicode hex="203A"/>
  <outline>
    <contour>
      <point x="79" y="35" type="line"/>
      <point x="273" y="252" type="line"/>
      <point x="132" y="468" type="line"/>
      <point x="93" y="444" type="line"/>
      <point x="189" y="222" type="line"/>
      <point x="195" y="281" type="line"/>
      <point x="45" y="60" type="line"/>
    </contour>
  </outline>
</glyph>
<glyph name="fraction" format="2">
  <advance width="171.9"/>
  <unicode hex="2044"/>
  <outline>
    <contour>
      <point x="-165" y="-49" type="line"/>
      <point x="364" y="690" type="line"/>
      <point x="322" y="721" type="line"/>
      <point x="-207" y="-18" type="line"/>
    </contour>
  </outline>
</glyph>
<glyph name="foursuperior" format="2">
  <advance width="379.8"/>
  <unicode hex="2074"/>
  <outline>
    <contour>
      <point x="91" y="445" type="line"/>
      <point x="238" y="445" type="line"/>
      <point x="244" y="491" type="line"/>
      <point x="105" y="490" type="line"/>
      <point x="115" y="465" type="line"/>
      <point x="271" y="652" type="line" smooth="yes"/>
      <point x="282" y="666"/>
      <point x="358" y="736"/>
      <point x="358" y="736" type="curve"/>
      <point x="311" y="778" type="line"/>
      <point x="60" y="490" type="line"/>
    </contour>
    <contour>
      <point x="149" y="327" type="line"/>
      <point x="172" y="328"/>
      <point x="208" y="330"/>
      <point x="227" y="330" type="curve" smooth="yes"/>
      <point x="335" y="330" type="line"/>
      <point x="343" y="368" type="line"/>
      <point x="261" y="374" type="line"/>
      <point x="291" y="341" type="line"/>
      <point x="292" y="371"/>
      <point x="291" y="401"/>
      <point x="295" y="429" type="curve" smooth="yes"/>
      <point x="316" y="586" type="line"/>
      <point x="244" y="563" type="line"/>
      <point x="226" y="422" type="line" smooth="yes"/>
      <point x="224" y="405"/>
      <point x="215" y="372"/>
      <point x="207" y="341" type="curve"/>
      <point x="246" y="376" type="line"/>
      <point x="150" y="364" type="line"/>
    </contour>
    <contour>
      <point x="288" y="445" type="line"/>
      <point x="354" y="445" type="line"/>
      <point x="360" y="499" type="line"/>
      <point x="295" y="495" type="line"/>
    </contour>
  </outline>
</glyph>
<glyph name="fivesuperior" format="2">
  <advance width="351.7"/>
  <unicode hex="2075"/>
  <outline>
    <contour>
      <point x="74" y="266" type="line"/>
      <point x="233" y="288"/>
      <point x="322" y="357"/>
      <point x="322" y="460" type="curve" smooth="yes"/>
      <point x="322" y="522"/>
      <point x="278" y="557"/>
      <point x="203" y="557" type="curve" smooth="yes"/>
      <point x="183" y="557"/>
      <point x="160" y="553"/>
      <point x="138" y="548" type="curve"/>
      <point x="156" y="524" type="line"/>
      <point x="182" y="660" type="line"/>
      <point x="231" y="660" type="line"/>
      <point x="338" y="670" type="line"/>
      <point x="342" y="731" type="line"/>
      <point x="197" y="725" type="line"/>
      <point x="149" y="725" type="line"/>
      <point x="137" y="715" type="line"/>
      <point x="97" y="520" type="line"/>
      <point x="120" y="496" type="line"/>
      <point x="145" y="503"/>
      <point x="163" y="505"/>
      <point x="176" y="505" type="curve" smooth="yes"/>
      <point x="219" y="505"/>
      <point x="242" y="485"/>
      <point x="242" y="445" type="curve" smooth="yes"/>
      <point x="242" y="370"/>
      <point x="179" y="326"/>
      <point x="67" y="305" type="curve"/>
    </contour>
  </outline>
</glyph>
<glyph name="sixsuperior" format="2">
  <advance width="386.2"/>
  <unicode hex="2076"/>
  <outline>
    <contour>
      <point x="205" y="323" type="curve" smooth="yes"/>
      <point x="280" y="323"/>
      <point x="362" y="379"/>
      <point x="362" y="476" type="curve" smooth="yes"/>
      <point x="362" y="539"/>
      <point x="323" y="578"/>
      <point x="255" y="578" type="curve" smooth="yes"/>
      <point x="241" y="578"/>
      <point x="224" y="575"/>
      <point x="206" y="570" type="curve"/>
      <point x="206" y="533" type="line"/>
      <point x="213" y="534"/>
      <point x="224" y="535"/>
      <point x="234" y="535" type="curve" smooth="yes"/>
      <point x="268" y="535"/>
      <point x="282" y="507"/>
      <point x="282" y="474" type="curve" smooth="yes"/>
      <point x="282" y="416"/>
      <point x="251" y="369"/>
      <point x="210" y="369" type="curve" smooth="yes"/>
      <point x="170" y="369"/>
      <point x="156" y="409"/>
      <point x="156" y="450" type="curve" smooth="yes"/>
      <point x="156" y="577"/>
      <point x="245" y="704"/>
      <point x="386" y="747" type="curve"/>
      <point x="383" y="783" type="line"/>
      <point x="211" y="752"/>
      <point x="77" y="603"/>
      <point x="77" y="452" type="curve" smooth="yes"/>
      <point x="77" y="374"/>
      <point x="123" y="323"/>
    </contour>
  </outline>
</glyph>
<glyph name="eightsuperior" format="2">
  <advance width="392.3"/>
  <unicode hex="2078"/>
  <outline>
    <contour>
      <point x="203" y="324" type="curve" smooth="yes"/>
      <point x="281" y="324"/>
      <point x="357" y="365"/>
      <point x="357" y="444" type="curve" smooth="yes"/>
      <point x="357" y="504"/>
      <point x="308" y="530"/>
      <point x="266" y="556" type="curve" smooth="yes"/>
      <point x="226" y="579"/>
      <point x="191" y="600"/>
      <point x="191" y="638" type="curve" smooth="yes"/>
      <point x="191" y="674"/>
      <point x="221" y="703"/>
      <point x="253" y="703" type="curve" smooth="yes"/>
      <point x="282" y="703"/>
      <point x="299" y="683"/>
      <point x="299" y="655" type="curve" smooth="yes"/>
      <point x="299" y="607"/>
      <point x="255" y="563"/>
      <point x="211" y="538" type="curve"/>
      <point x="247" y="518" type="line"/>
      <point x="314" y="550"/>
      <point x="372" y="598"/>
      <point x="372" y="656" type="curve" smooth="yes"/>
      <point x="372" y="713"/>
      <point x="316" y="743"/>
      <point x="258" y="743" type="curve" smooth="yes"/>
      <point x="196" y="743"/>
      <point x="119" y="708"/>
      <point x="119" y="629" type="curve" smooth="yes"/>
      <point x="119" y="567"/>
      <point x="165" y="541"/>
      <point x="211" y="515" type="curve" smooth="yes"/>
      <point x="247" y="495"/>
      <point x="282" y="474"/>
      <point x="282" y="436" type="curve" smooth="yes"/>
      <point x="282" y="396"/>
      <point x="250" y="364"/>
      <point x="208" y="364" type="curve" smooth="yes"/>
      <point x="174" y="364"/>
      <point x="151" y="386"/>
      <point x="151" y="419" type="curve" smooth="yes"/>
      <point x="151" y="471"/>
      <point x="200" y="511"/>
      <point x="261" y="539" type="curve"/>
      <point x="224" y="565" type="line"/>
      <point x="153" y="533"/>
      <point x="77" y="487"/>
      <point x="77" y="416" type="curve" smooth="yes"/>
      <point x="77" y="353"/>
      <point x="138" y="324"/>
    </contour>
  </outline>
</glyph>
<glyph name="ninesuperior" format="2">
  <advance width="388.5"/>
  <unicode hex="2079"/>
  <outline>
    <contour>
      <point x="78" y="265" type="line"/>
      <point x="250" y="298"/>
      <point x="379" y="449"/>
      <point x="379" y="602" type="curve" smooth="yes"/>
      <point x="379" y="679"/>
      <point x="334" y="731"/>
      <point x="251" y="731" type="curve" smooth="yes"/>
      <point x="169" y="731"/>
      <point x="93" y="667"/>
      <point x="93" y="579" type="curve" smooth="yes"/>
      <point x="93" y="515"/>
      <point x="136" y="478"/>
      <point x="205" y="478" type="curve" smooth="yes"/>
      <point x="224" y="478"/>
      <point x="239" y="481"/>
      <point x="250" y="485" type="curve"/>
      <point x="251" y="521" type="line"/>
      <point x="243" y="520"/>
      <point x="235" y="519"/>
      <point x="223" y="519" type="curve" smooth="yes"/>
      <point x="192" y="519"/>
      <point x="174" y="549"/>
      <point x="174" y="584" type="curve" smooth="yes"/>
      <point x="174" y="640"/>
      <point x="205" y="685"/>
      <point x="245" y="685" type="curve" smooth="yes"/>
      <point x="284" y="685"/>
      <point x="299" y="646"/>
      <point x="299" y="602" type="curve" smooth="yes"/>
      <point x="299" y="477"/>
      <point x="220" y="347"/>
      <point x="71" y="304" type="curve"/>
    </contour>
  </outline>
</glyph>
<glyph name="oneinferior" format="2">
  <advance width="317.2"/>
  <unicode hex="2081"/>
  <outline>
    <contour>
      <point x="7" y="-103" type="line"/>
      <point x="32" y="-102"/>
      <point x="103" y="-100"/>
      <point x="116" y="-100" type="curve" smooth="yes"/>
      <point x="234" y="-100" type="line"/>
      <point x="243" y="-62" type="line"/>
      <point x="147" y="-55" type="line"/>
      <point x="178" y="-89" type="line"/>
      <point x="178" y="-42"/>
      <point x="179" y="-13"/>
      <point x="182" y="10" type="curve" smooth="yes"/>
      <point x="202" y="158" type="line" smooth="yes"/>
      <point x="206" y="188"/>
      <point x="226" y="300"/>
      <point x="226" y="300" type="curve"/>
      <point x="177" y="307" type="line"/>
      <point x="38" y="207" type="line"/>
      <point x="53" y="175" type="line"/>
      <point x="167" y="216" type="line"/>
      <point x="140" y="235" type="line"/>
      <point x="108" y="-9" type="line" smooth="yes"/>
      <point x="106" y="-25"/>
      <point x="92" y="-68"/>
      <point x="87" y="-89" type="curve"/>
      <point x="127" y="-53" type="line"/>
      <point x="9" y="-66" type="line"/>
    </contour>
  </outline>
</glyph>
<glyph name="fourinferior" format="2">
  <advance width="379.8"/>
  <unicode hex="2084"/>
  <outline>
    <contour>
      <point x="38" y="15" type="line"/>
      <point x="185" y="15" type="line"/>
      <point x="191" y="61" type="line"/>
      <point x="52" y="60" type="line"/>
      <point x="62" y="35" type="line"/>
      <point x="218" y="222" type="line" smooth="yes"/>
      <point x="229" y="236"/>
      <point x="305" y="306"/>
      <point x="305" y="306" type="curve"/>
      <point x="258" y="348" type="line"/>
      <point x="7" y="60" type="line"/>
    </contour>
    <contour>
      <point x="96" y="-103" type="line"/>
      <point x="119" y="-102"/>
      <point x="155" y="-100"/>
      <point x="174" y="-100" type="curve" smooth="yes"/>
      <point x="282" y="-100" type="line"/>
      <point x="290" y="-62" type="line"/>
      <point x="208" y="-56" type="line"/>
      <point x="238" y="-89" type="line"/>
      <point x="239" y="-59"/>
      <point x="238" y="-29"/>
      <point x="242" y="-1" type="curve" smooth="yes"/>
      <point x="263" y="156" type="line"/>
      <point x="191" y="133" type="line"/>
      <point x="173" y="-9" type="line" smooth="yes"/>
      <point x="171" y="-25"/>
      <point x="162" y="-58"/>
      <point x="154" y="-89" type="curve"/>
      <point x="193" y="-54" type="line"/>
      <point x="97" y="-66" type="line"/>
    </contour>
    <contour>
      <point x="235" y="15" type="line"/>
      <point x="301" y="15" type="line"/>
      <point x="307" y="69" type="line"/>
      <point x="242" y="65" type="line"/>
    </contour>
  </outline>
</glyph>
<glyph name="eightinferior" format="2">
  <advance width="393.3"/>
  <unicode hex="2088"/>
  <outline>
    <contour>
      <point x="151" y="-106" type="curve" smooth="yes"/>
      <point x="229" y="-106"/>
      <point x="305" y="-65"/>
      <point x="305" y="14" type="curve" smooth="yes"/>
      <point x="305" y="74"/>
      <point x="256" y="100"/>
      <point x="214" y="126" type="curve" smooth="yes"/>
      <point x="174" y="149"/>
      <point x="139" y="170"/>
      <point x="139" y="208" type="curve" smooth="yes"/>
      <point x="139" y="244"/>
      <point x="169" y="273"/>
      <point x="201" y="273" type="curve" smooth="yes"/>
      <point x="230" y="273"/>
      <point x="247" y="253"/>
      <point x="247" y="225" type="curve" smooth="yes"/>
      <point x="247" y="177"/>
      <point x="203" y="133"/>
      <point x="159" y="108" type="curve"/>
      <point x="195" y="88" type="line"/>
      <point x="262" y="120"/>
      <point x="320" y="167"/>
      <point x="320" y="226" type="curve" smooth="yes"/>
      <point x="320" y="283"/>
      <point x="264" y="313"/>
      <point x="206" y="313" type="curve" smooth="yes"/>
      <point x="144" y="313"/>
      <point x="67" y="278"/>
      <point x="67" y="199" type="curve" smooth="yes"/>
      <point x="67" y="137"/>
      <point x="113" y="111"/>
      <point x="159" y="85" type="curve" smooth="yes"/>
      <point x="195" y="65"/>
      <point x="230" y="44"/>
      <point x="230" y="6" type="curve" smooth="yes"/>
      <point x="230" y="-34"/>
      <point x="198" y="-66"/>
      <point x="156" y="-66" type="curve" smooth="yes"/>
      <point x="122" y="-66"/>
      <point x="99" y="-44"/>
      <point x="99" y="-11" type="curve" smooth="yes"/>
      <point x="99" y="40"/>
      <point x="147" y="81"/>
      <point x="209" y="109" type="curve"/>
      <point x="172" y="135" type="line"/>
      <point x="101" y="103"/>
      <point x="25" y="57"/>
      <point x="25" y="-14" type="curve" smooth="yes"/>
      <point x="25" y="-77"/>
      <point x="86" y="-106"/>
    </contour>
  </outline>
</glyph>
<glyph name="colonsign" format="2">
  <advance width="613.6"/>
  <unicode hex="20A1"/>
  <outline>
    <contour>
      <point x="317" y="-13" type="curve" smooth="yes"/>
      <point x="391" y="-13"/>
      <point x="454" y="3"/>
      <point x="511" y="17" type="curve"/>
      <point x="523" y="152" type="line"/>
      <point x="471" y="150" type="line"/>
      <point x="471" y="150"/>
      <point x="466" y="117"/>
      <point x="464" y="108" type="curve"/>
      <point x="462" y="96"/>
      <point x="445" y="59"/>
      <point x="432" y="34" type="curve"/>
      <point x="467" y="65" type="line"/>
      <point x="423" y="50"/>
      <point x="367" y="40"/>
      <point x="323" y="40" type="curve" smooth="yes"/>
      <point x="218" y="40"/>
      <point x="169" y="129"/>
      <point x="169" y="250" type="curve" smooth="yes"/>
      <point x="169" y="443"/>
      <point x="265" y="588"/>
      <point x="397" y="588" type="curve" smooth="yes"/>
      <point x="438" y="588"/>
      <point x="490" y="574"/>
      <point x="522" y="560" type="curve"/>
      <point x="500" y="590" type="line"/>
      <point x="502" y="572"/>
      <point x="511" y="535"/>
      <point x="509" y="523" type="curve" smooth="yes"/>
      <point x="503" y="481" type="line"/>
      <point x="556" y="477" type="line"/>
      <point x="583" y="610" type="line"/>
      <point x="529" y="624"/>
      <point x="475" y="640"/>
      <point x="404" y="640" type="curve" smooth="yes"/>
      <point x="207" y="640"/>
      <point x="74" y="480"/>
      <point x="74" y="246" type="curve" smooth="yes"/>
      <point x="74" y="90"/>
      <point x="154" y="-13"/>
    </contour>
    <contour>
      <point x="239" y="-154" type="line"/>
      <point x="268" y="15" type="line"/>
      <point x="225" y="15" type="line"/>
      <point x="196" y="-151" type="line"/>
    </contour>
    <contour>
      <point x="345" y="-154" type="line"/>
      <point x="375" y="15" type="line"/>
      <point x="331" y="15" type="line"/>
      <point x="303" y="-151" type="line"/>
    </contour>
    <contour>
      <point x="327" y="616" type="line"/>
      <point x="369" y="616" type="line"/>
      <point x="399" y="785" type="line"/>
      <point x="359" y="788" type="line"/>
    </contour>
    <contour>
      <point x="433" y="616" type="line"/>
      <point x="475" y="616" type="line"/>
      <point x="507" y="785" type="line"/>
      <point x="465" y="788" type="line"/>
    </contour>
  </outline>
</glyph>
<glyph name="naira" format="2">
  <advance width="878"/>
  <unicode hex="20A6"/>
  <outline>
    <contour>
      <point x="86" y="-5" type="line"/>
      <point x="86" y="-5"/>
      <point x="177" y="0"/>
      <point x="200" y="0" type="curve"/>
      <point x="303" y="0" type="line"/>
      <point x="317" y="50" type="line"/>
      <point x="207" y="60" type="line"/>
      <point x="240" y="25" type="line"/>
      <point x="240" y="54"/>
      <point x="240" y="107"/>
      <point x="246" y="157" type="curve" smooth="yes"/>
      <point x="297" y="548" type="line"/>
      <point x="276" y="541" type="line"/>
      <point x="600" y="0" type="line"/>
      <point x="655" y="0" type="line"/>
      <point x="722" y="499" type="line" smooth="yes"/>
      <point x="728" y="543"/>
      <point x="752" y="610"/>
      <point x="759" y="629" type="curve"/>
      <point x="714" y="595" type="line"/>
      <point x="822" y="604" type="line"/>
      <point x="827" y="659" type="line"/>
      <point x="827" y="659"/>
      <point x="758" y="655"/>
      <point x="702" y="655" type="curve" smooth="yes"/>
      <point x="686" y="655"/>
      <point x="631" y="658"/>
      <point x="602" y="659" type="curve"/>
      <point x="590" y="608" type="line"/>
      <point x="696" y="592" type="line"/>
      <point x="661" y="634" type="line"/>
      <point x="663" y="620"/>
      <point x="663" y="540"/>
      <point x="662" y="527" type="curve" smooth="yes"/>
      <point x="610" y="124" type="line"/>
      <point x="631" y="129" type="line"/>
      <point x="409" y="493" type="line" smooth="yes"/>
      <point x="397" y="513"/>
      <point x="337" y="636"/>
      <point x="337" y="636" type="curve"/>
      <point x="319" y="655" type="line"/>
      <point x="277" y="655" type="line" smooth="yes"/>
      <point x="259" y="655"/>
      <point x="170" y="659"/>
      <point x="170" y="659" type="curve"/>
      <point x="158" y="608" type="line"/>
      <point x="265" y="593" type="line"/>
      <point x="233" y="625" type="line"/>
      <point x="233" y="547"/>
      <point x="235" y="549"/>
      <point x="232" y="527" type="curve" smooth="yes"/>
      <point x="181" y="129" type="line" smooth="yes"/>
      <point x="178" y="105"/>
      <point x="161" y="51"/>
      <point x="154" y="29" type="curve"/>
      <point x="198" y="64" type="line"/>
      <point x="87" y="42" type="line"/>
    </contour>
    <contour>
      <point x="65" y="271" type="line"/>
      <point x="230" y="279" type="line"/>
      <point x="236" y="317" type="line"/>
      <point x="69" y="311" type="line"/>
    </contour>
    <contour>
      <point x="663" y="299" type="line"/>
      <point x="824" y="306" type="line"/>
      <point x="827" y="345" type="line"/>
      <point x="668" y="338" type="line"/>
    </contour>
  </outline>
</glyph>
<glyph name="peseta" format="2">
  <advance width="728.2"/>
  <unicode hex="20A7"/>
  <outline>
    <contour>
      <point x="68" y="-5" type="line"/>
      <point x="68" y="-5"/>
      <point x="172" y="0"/>
      <point x="196" y="0" type="curve"/>
      <point x="326" y="0" type="line"/>
      <point x="339" y="50" type="line"/>
      <point x="212" y="60" type="line"/>
      <point x="247" y="26" type="line"/>
      <point x="245" y="50"/>
      <point x="248" y="114"/>
      <point x="253" y="157" type="curve" smooth="yes"/>
      <point x="298" y="499" type="line" smooth="yes"/>
      <point x="305" y="554"/>
      <point x="321" y="611"/>
      <point x="326" y="628" type="curve"/>
      <point x="265" y="655" type="line"/>
      <point x="247" y="655"/>
      <point x="158" y="659"/>
      <point x="158" y="659" type="curve"/>
      <point x="147" y="608" type="line"/>
      <point x="250" y="592" type="line"/>
      <point x="216" y="629" type="line"/>
      <point x="218" y="611"/>
      <point x="218" y="544"/>
      <point x="216" y="527" type="curve" smooth="yes"/>
      <point x="164" y="129" type="line" smooth="yes"/>
      <point x="160" y="102"/>
      <point x="140" y="40"/>
      <point x="137" y="26" type="curve"/>
      <point x="181" y="64" type="line"/>
      <point x="70" y="42" type="line"/>
    </contour>
    <contour>
      <point x="88" y="416" type="line"/>
      <point x="250" y="423" type="line"/>
      <point x="255" y="463" type="line"/>
      <point x="91" y="455" type="line"/>
    </contour>
    <contour>
      <point x="351" y="270" type="curve" smooth="yes"/>
      <point x="477" y="270"/>
      <point x="611" y="344"/>
      <point x="611" y="499" type="curve" smooth="yes"/>
      <point x="611" y="605"/>
      <point x="540" y="659"/>
      <point x="425" y="659" type="curve" smooth="yes"/>
      <point x="373" y="659"/>
      <point x="317" y="655"/>
      <point x="265" y="655" type="curve"/>
      <point x="258" y="604" type="line"/>
      <point x="297" y="608"/>
      <point x="344" y="612"/>
      <point x="379" y="612" type="curve" smooth="yes"/>
      <point x="468" y="612"/>
      <point x="521" y="569"/>
      <point x="521" y="491" type="curve" smooth="yes"/>
      <point x="521" y="384"/>
      <point x="451" y="318"/>
      <point x="339" y="318" type="curve" smooth="yes"/>
      <point x="300" y="318"/>
      <point x="209" y="329"/>
      <point x="209" y="329" type="curve"/>
      <point x="201" y="274" type="line"/>
      <point x="201" y="274"/>
      <point x="286" y="270"/>
    </contour>
    <contour>
      <point x="571" y="438" type="line"/>
      <point x="695" y="443" type="line"/>
      <point x="699" y="482" type="line"/>
      <point x="575" y="476" type="line"/>
    </contour>
  </outline>
</glyph>
<glyph name="won" format="2">
  <advance width="1090.5"/>
  <unicode hex="20A9"/>
  <outline>
    <contour>
      <point x="307" y="0" type="line"/>
      <point x="364" y="0" type="line"/>
      <point x="582" y="501" type="line"/>
      <point x="562" y="501" type="line"/>
      <point x="669" y="0" type="line"/>
      <point x="726" y="0" type="line"/>
      <point x="946" y="505" type="line"/>
      <point x="966" y="551"/>
      <point x="1004" y="600"/>
      <point x="1022" y="625" type="curve"/>
      <point x="967" y="593" type="line"/>
      <point x="1068" y="604" type="line"/>
      <point x="1071" y="659" type="line"/>
      <point x="1071" y="659"/>
      <point x="980" y="655"/>
      <point x="934" y="655" type="curve" smooth="yes"/>
      <point x="916" y="655"/>
      <point x="849" y="659"/>
      <point x="849" y="659" type="curve"/>
      <point x="837" y="608" type="line"/>
      <point x="942" y="588" type="line"/>
      <point x="914" y="620" type="line"/>
      <point x="912" y="604"/>
      <point x="904" y="567"/>
      <point x="891" y="536" type="curve"/>
      <point x="710" y="106" type="line"/>
      <point x="729" y="106" type="line"/>
      <point x="625" y="636" type="line"/>
      <point x="576" y="636" type="line"/>
      <point x="348" y="106" type="line"/>
      <point x="367" y="106" type="line"/>
      <point x="298" y="494" type="line"/>
      <point x="287" y="550"/>
      <point x="283" y="594"/>
      <point x="284" y="618" type="curve"/>
      <point x="250" y="590" type="line"/>
      <point x="360" y="604" type="line"/>
      <point x="364" y="659" type="line"/>
      <point x="364" y="659"/>
      <point x="286" y="655"/>
      <point x="231" y="655" type="curve" smooth="yes"/>
      <point x="211" y="655"/>
      <point x="121" y="659"/>
      <point x="121" y="659" type="curve"/>
      <point x="109" y="608" type="line"/>
      <point x="204" y="588" type="line"/>
      <point x="158" y="621" type="line"/>
      <point x="166" y="605"/>
      <point x="187" y="568"/>
      <point x="200" y="516" type="curve"/>
    </contour>
    <contour>
      <point x="72" y="258" type="line"/>
      <point x="286" y="268" type="line"/>
      <point x="291" y="307" type="line"/>
      <point x="74" y="298" type="line"/>
    </contour>
    <contour>
      <point x="816" y="293" type="line"/>
      <point x="1024" y="301" type="line"/>
      <point x="1027" y="340" type="line"/>
      <point x="821" y="331" type="line"/>
    </contour>
  </outline>
</glyph>
<glyph name="dong" format="2">
  <advance width="608.8"/>
  <unicode hex="20AB"/>
  <outline>
    <contour>
      <point x="231" y="71" type="curve" smooth="yes"/>
      <point x="288" y="71"/>
      <point x="364" y="119"/>
      <point x="384" y="172" type="curve"/>
      <point x="373" y="187" type="line"/>
      <point x="374" y="80" type="line"/>
      <point x="500" y="80" type="line"/>
      <point x="513" y="132" type="line"/>
      <point x="418" y="142" type="line"/>
      <point x="455" y="107" type="line"/>
      <point x="453" y="143"/>
      <point x="454" y="200"/>
      <point x="459" y="234" type="curve" smooth="yes"/>
      <point x="511" y="595" type="line"/>
      <point x="538" y="737" type="line"/>
      <point x="523" y="753" type="line"/>
      <point x="466" y="753" type="line" smooth="yes"/>
      <point x="445" y="753"/>
      <point x="372" y="758"/>
      <point x="372" y="758" type="curve"/>
      <point x="357" y="706" type="line"/>
      <point x="469" y="684" type="line"/>
      <point x="432" y="718" type="line"/>
      <point x="433" y="701"/>
      <point x="435" y="643"/>
      <point x="432" y="622" type="curve" smooth="yes"/>
      <point x="381" y="269" type="line"/>
      <point x="368" y="186"/>
      <point x="322" y="138"/>
      <point x="255" y="138" type="curve" smooth="yes"/>
      <point x="204" y="138"/>
      <point x="176" y="180"/>
      <point x="176" y="254" type="curve" smooth="yes"/>
      <point x="176" y="380"/>
      <point x="231" y="467"/>
      <point x="313" y="467" type="curve" smooth="yes"/>
      <point x="347" y="467"/>
      <point x="382" y="457"/>
      <point x="419" y="431" type="curve"/>
      <point x="434" y="504" type="line"/>
      <point x="382" y="523"/>
      <point x="352" y="528"/>
      <point x="314" y="528" type="curve" smooth="yes"/>
      <point x="175" y="528"/>
      <point x="80" y="415"/>
      <point x="80" y="247" type="curve" smooth="yes"/>
      <point x="80" y="136"/>
      <point x="134" y="71"/>
    </contour>
    <contour>
      <point x="53" y="-34" type="line"/>
      <point x="485" y="-16" type="line"/>
      <point x="489" y="23" type="line"/>
      <point x="57" y="6" type="line"/>
    </contour>
    <contour>
      <point x="301" y="593" type="line"/>
      <point x="577" y="593" type="line"/>
      <point x="589" y="636" type="line"/>
      <point x="307" y="636" type="line"/>
    </contour>
  </outline>
</glyph>
<glyph name="euro" format="2">
  <advance width="735.3"/>
  <unicode hex="20AC"/>
  <outline>
    <contour>
      <point x="415" y="-14" type="curve" smooth="yes"/>
      <point x="494" y="-14"/>
      <point x="561" y="3"/>
      <point x="623" y="18" type="curve"/>
      <point x="636" y="159" type="line"/>
      <point x="580" y="157" type="line"/>
      <point x="580" y="157"/>
      <point x="576" y="123"/>
      <point x="573" y="113" type="curve"/>
      <point x="572" y="101"/>
      <point x="553" y="58"/>
      <point x="540" y="35" type="curve"/>
      <point x="573" y="68" type="line"/>
      <point x="530" y="52"/>
      <point x="466" y="41"/>
      <point x="422" y="41" type="curve" smooth="yes"/>
      <point x="307" y="41"/>
      <point x="253" y="134"/>
      <point x="253" y="262" type="curve" smooth="yes"/>
      <point x="253" y="466"/>
      <point x="356" y="614"/>
      <point x="497" y="614" type="curve" smooth="yes"/>
      <point x="539" y="614"/>
      <point x="595" y="601"/>
      <point x="632" y="585" type="curve"/>
      <point x="608" y="617" type="line"/>
      <point x="612" y="597"/>
      <point x="621" y="559"/>
      <point x="619" y="547" type="curve" smooth="yes"/>
      <point x="613" y="502" type="line"/>
      <point x="667" y="498" type="line"/>
      <point x="695" y="637" type="line"/>
      <point x="639" y="652"/>
      <point x="581" y="669"/>
      <point x="504" y="669" type="curve" smooth="yes"/>
      <point x="296" y="669"/>
      <point x="156" y="503"/>
      <point x="156" y="259" type="curve" smooth="yes"/>
      <point x="156" y="95"/>
      <point x="241" y="-14"/>
    </contour>
    <contour>
      <point x="70" y="242" type="line"/>
      <point x="543" y="261" type="line"/>
      <point x="547" y="299" type="line"/>
      <point x="74" y="281" type="line"/>
    </contour>
    <contour>
      <point x="79" y="348" type="line"/>
      <point x="552" y="367" type="line"/>
      <point x="555" y="405" type="line"/>
      <point x="82" y="387" type="line"/>
    </contour>
  </outline>
</glyph>
<glyph name="kip" format="2">
  <advance width="759"/>
  <unicode hex="20AD"/>
  <outline>
    <contour>
      <point x="407" y="-5" type="line"/>
      <point x="407" y="-5"/>
      <point x="515" y="0"/>
      <point x="538" y="0" type="curve"/>
      <point x="662" y="0" type="line"/>
      <point x="675" y="50" type="line"/>
      <point x="576" y="61" type="line"/>
      <point x="642" y="27" type="line"/>
      <point x="626" y="41"/>
      <point x="561" y="100"/>
      <point x="545" y="120" type="curve"/>
      <point x="357" y="369" type="line"/>
      <point x="351" y="316" type="line"/>
      <point x="522" y="508" type="line"/>
      <point x="576" y="554"/>
      <point x="621" y="590"/>
      <point x="642" y="607" type="curve"/>
      <point x="596" y="595" type="line"/>
      <point x="702" y="604" type="line"/>
      <point x="706" y="659" type="line"/>
      <point x="706" y="659"/>
      <point x="631" y="655"/>
      <point x="576" y="655" type="curve" smooth="yes"/>
      <point x="559" y="655"/>
      <point x="486" y="659"/>
      <point x="486" y="659" type="curve"/>
      <point x="475" y="608" type="line"/>
      <point x="558" y="592" type="line"/>
      <point x="545" y="629" type="line"/>
      <point x="479" y="536" type="line"/>
      <point x="281" y="328" type="line"/>
      <point x="413" y="153" type="line"/>
      <point x="425" y="134"/>
      <point x="472" y="46"/>
      <point x="480" y="28" type="curve"/>
      <point x="501" y="63" type="line"/>
      <point x="409" y="42" type="line"/>
    </contour>
    <contour>
      <point x="64" y="-5" type="line"/>
      <point x="64" y="-5"/>
      <point x="168" y="0"/>
      <point x="191" y="0" type="curve"/>
      <point x="313" y="0" type="line"/>
      <point x="326" y="50" type="line"/>
      <point x="208" y="60" type="line"/>
      <point x="243" y="26" type="line"/>
      <point x="241" y="50"/>
      <point x="244" y="115"/>
      <point x="249" y="157" type="curve" smooth="yes"/>
      <point x="294" y="499" type="line" smooth="yes"/>
      <point x="299" y="545"/>
      <point x="316" y="611"/>
      <point x="321" y="628" type="curve"/>
      <point x="279" y="595" type="line"/>
      <point x="388" y="604" type="line"/>
      <point x="391" y="659" type="line"/>
      <point x="391" y="659"/>
      <point x="316" y="655"/>
      <point x="261" y="655" type="curve" smooth="yes"/>
      <point x="243" y="655"/>
      <point x="153" y="659"/>
      <point x="153" y="659" type="curve"/>
      <point x="141" y="608" type="line"/>
      <point x="245" y="592" type="line"/>
      <point x="212" y="629" type="line"/>
      <point x="212" y="610"/>
      <point x="213" y="542"/>
      <point x="212" y="527" type="curve" smooth="yes"/>
      <point x="160" y="129" type="line" smooth="yes"/>
      <point x="157" y="104"/>
      <point x="138" y="45"/>
      <point x="132" y="26" type="curve"/>
      <point x="176" y="64" type="line"/>
      <point x="66" y="42" type="line"/>
    </contour>
    <contour>
      <point x="75" y="297" type="line"/>
      <point x="573" y="321" type="line"/>
      <point x="577" y="360" type="line"/>
      <point x="79" y="337" type="line"/>
    </contour>
  </outline>
</glyph>
<glyph name="peso" format="2">
  <advance width="747"/>
  <unicode hex="20B1"/>
  <outline>
    <contour>
      <point x="78" y="-5" type="line"/>
      <point x="78" y="-5"/>
      <point x="182" y="0"/>
      <point x="205" y="0" type="curve"/>
      <point x="335" y="0" type="line"/>
      <point x="349" y="50" type="line"/>
      <point x="222" y="60" type="line"/>
      <point x="257" y="26" type="line"/>
      <point x="255" y="50"/>
      <point x="258" y="113"/>
      <point x="263" y="157" type="curve" smooth="yes"/>
      <point x="307" y="499" type="line" smooth="yes"/>
      <point x="315" y="554"/>
      <point x="330" y="606"/>
      <point x="335" y="628" type="curve"/>
      <point x="275" y="655" type="line"/>
      <point x="257" y="655"/>
      <point x="168" y="659"/>
      <point x="168" y="659" type="curve"/>
      <point x="156" y="608" type="line"/>
      <point x="260" y="592" type="line"/>
      <point x="227" y="629" type="line"/>
      <point x="227" y="621"/>
      <point x="227" y="536"/>
      <point x="227" y="527" type="curve" smooth="yes"/>
      <point x="174" y="129" type="line" smooth="yes"/>
      <point x="171" y="108"/>
      <point x="152" y="44"/>
      <point x="146" y="26" type="curve"/>
      <point x="190" y="64" type="line"/>
      <point x="80" y="42" type="line"/>
    </contour>
    <contour>
      <point x="92" y="373" type="line"/>
      <point x="255" y="381" type="line"/>
      <point x="259" y="421" type="line"/>
      <point x="95" y="413" type="line"/>
    </contour>
    <contour>
      <point x="106" y="479" type="line"/>
      <point x="269" y="487" type="line"/>
      <point x="273" y="527" type="line"/>
      <point x="109" y="519" type="line"/>
    </contour>
    <contour>
      <point x="360" y="270" type="curve" smooth="yes"/>
      <point x="487" y="270"/>
      <point x="621" y="344"/>
      <point x="621" y="499" type="curve" smooth="yes"/>
      <point x="621" y="605"/>
      <point x="550" y="659"/>
      <point x="434" y="659" type="curve" smooth="yes"/>
      <point x="383" y="659"/>
      <point x="327" y="655"/>
      <point x="275" y="655" type="curve"/>
      <point x="268" y="604" type="line"/>
      <point x="307" y="608"/>
      <point x="355" y="612"/>
      <point x="389" y="612" type="curve" smooth="yes"/>
      <point x="476" y="612"/>
      <point x="531" y="570"/>
      <point x="531" y="491" type="curve" smooth="yes"/>
      <point x="531" y="385"/>
      <point x="460" y="318"/>
      <point x="349" y="318" type="curve" smooth="yes"/>
      <point x="309" y="318"/>
      <point x="218" y="329"/>
      <point x="218" y="329" type="curve"/>
      <point x="211" y="274" type="line"/>
      <point x="211" y="274"/>
      <point x="296" y="270"/>
    </contour>
    <contour>
      <point x="574" y="395" type="line"/>
      <point x="699" y="401" type="line"/>
      <point x="702" y="440" type="line"/>
      <point x="579" y="434" type="line"/>
    </contour>
    <contour>
      <point x="588" y="501" type="line"/>
      <point x="713" y="507" type="line"/>
      <point x="716" y="546" type="line"/>
      <point x="593" y="540" type="line"/>
    </contour>
  </outline>
</glyph>
<glyph name="liraTurkish" format="2">
  <advance width="608.6"/>
  <unicode hex="20BA"/>
  <outline>
    <contour>
      <point x="329" y="-15" type="curve" smooth="yes"/>
      <point x="387" y="-15"/>
      <point x="456" y="1"/>
      <point x="516" y="17" type="curve"/>
      <point x="522" y="162" type="line"/>
      <point x="464" y="156" type="line"/>
      <point x="459" y="117" type="line" smooth="yes"/>
      <point x="456" y="96"/>
      <point x="441" y="61"/>
      <point x="427" y="25" type="curve"/>
      <point x="474" y="67" type="line"/>
      <point x="430" y="50"/>
      <point x="379" y="37"/>
      <point x="334" y="37" type="curve" smooth="yes"/>
      <point x="273" y="37"/>
      <point x="238" y="66"/>
      <point x="238" y="118" type="curve" smooth="yes"/>
      <point x="238" y="129"/>
      <point x="240" y="144"/>
      <point x="292" y="541" type="curve" smooth="yes"/>
      <point x="300" y="603"/>
      <point x="319" y="681"/>
      <point x="323" y="695" type="curve"/>
      <point x="314" y="705" type="line"/>
      <point x="213" y="705" type="line"/>
      <point x="213" y="691"/>
      <point x="212" y="593"/>
      <point x="209" y="571" type="curve" smooth="yes"/>
      <point x="162" y="212"/>
      <point x="153" y="144"/>
      <point x="152" y="125" type="curve" smooth="yes"/>
      <point x="152" y="34"/>
      <point x="226" y="-15"/>
    </contour>
    <contour>
      <point x="71" y="271" type="line"/>
      <point x="476" y="290" type="line"/>
      <point x="480" y="329" type="line"/>
      <point x="75" y="311" type="line"/>
    </contour>
    <contour>
      <point x="80" y="377" type="line"/>
      <point x="485" y="396" type="line"/>
      <point x="489" y="435" type="line"/>
      <point x="84" y="417" type="line"/>
    </contour>
  </outline>
</glyph>
<glyph name="manat" format="2">
  <advance width="654"/>
  <unicode hex="20BC"/>
  <outline>
    <contour>
      <point x="63" y="0" type="line"/>
      <point x="158" y="0" type="line"/>
      <point x="159" y="17"/>
      <point x="169" y="112"/>
      <point x="172" y="134" type="curve" smooth="yes"/>
      <point x="202" y="352" type="line" smooth="yes"/>
      <point x="223" y="507"/>
      <point x="276" y="554"/>
      <point x="372" y="554" type="curve" smooth="yes"/>
      <point x="457" y="554"/>
      <point x="491" y="513"/>
      <point x="491" y="426" type="curve" smooth="yes"/>
      <point x="491" y="393"/>
      <point x="486" y="361"/>
      <point x="458" y="164" type="curve" smooth="yes"/>
      <point x="446" y="89"/>
      <point x="432" y="24"/>
      <point x="430" y="10" type="curve"/>
      <point x="438" y="0" type="line"/>
      <point x="528" y="0" type="line"/>
      <point x="529" y="15"/>
      <point x="539" y="113"/>
      <point x="541" y="134" type="curve" smooth="yes"/>
      <point x="571" y="346"/>
      <point x="577" y="382"/>
      <point x="577" y="420" type="curve" smooth="yes"/>
      <point x="577" y="556"/>
      <point x="504" y="612"/>
      <point x="381" y="612" type="curve" smooth="yes"/>
      <point x="241" y="612"/>
      <point x="143" y="539"/>
      <point x="115" y="352" type="curve" smooth="yes"/>
      <point x="88" y="164" type="line" smooth="yes"/>
      <point x="80" y="109"/>
      <point x="61" y="26"/>
      <point x="55" y="10" type="curve"/>
    </contour>
    <contour>
      <point x="264" y="41" type="line"/>
      <point x="307" y="41" type="line"/>
      <point x="433" y="736" type="line"/>
      <point x="391" y="739" type="line"/>
    </contour>
  </outline>
</glyph>
<glyph name="trademark" format="2">
  <advance width="911.1"/>
  <unicode hex="2122"/>
  <outline>
    <contour>
      <point x="416" y="398" type="line"/>
      <point x="418" y="398"/>
      <point x="466" y="400"/>
      <point x="478" y="400" type="curve" smooth="yes"/>
      <point x="532" y="400" type="line"/>
      <point x="539" y="431" type="line"/>
      <point x="480" y="438" type="line"/>
      <point x="508" y="420" type="line"/>
      <point x="508" y="429"/>
      <point x="507" y="458"/>
      <point x="513" y="486" type="curve" smooth="yes"/>
      <point x="548" y="654" type="line"/>
      <point x="537" y="654" type="line"/>
      <point x="595" y="400" type="line"/>
      <point x="633" y="400" type="line"/>
      <point x="768" y="651" type="line"/>
      <point x="759" y="653" type="line"/>
      <point x="740" y="473" type="line" smooth="yes"/>
      <point x="739" y="463"/>
      <point x="731" y="435"/>
      <point x="728" y="426" type="curve"/>
      <point x="756" y="439" type="line"/>
      <point x="699" y="429" type="line"/>
      <point x="697" y="398" type="line"/>
      <point x="721" y="399"/>
      <point x="751" y="400"/>
      <point x="765" y="400" type="curve" smooth="yes"/>
      <point x="829" y="400" type="line"/>
      <point x="836" y="431" type="line"/>
      <point x="776" y="438" type="line"/>
      <point x="807" y="420" type="line"/>
      <point x="806" y="428"/>
      <point x="803" y="464"/>
      <point x="804" y="486" type="curve" smooth="yes"/>
      <point x="815" y="639" type="line" smooth="yes"/>
      <point x="816" y="652"/>
      <point x="823" y="682"/>
      <point x="827" y="693" type="curve"/>
      <point x="794" y="670" type="line"/>
      <point x="853" y="676" type="line"/>
      <point x="856" y="712" type="line"/>
      <point x="830" y="712"/>
      <point x="795" y="710"/>
      <point x="779" y="710" type="curve" smooth="yes"/>
      <point x="750" y="710" type="line"/>
      <point x="740" y="701" type="line"/>
      <point x="710" y="643" type="line"/>
      <point x="624" y="473" type="line"/>
      <point x="640" y="471" type="line"/>
      <point x="606" y="635" type="line"/>
      <point x="596" y="701" type="line"/>
      <point x="588" y="710" type="line"/>
      <point x="532" y="710" type="line" smooth="yes"/>
      <point x="523" y="710"/>
      <point x="494" y="712"/>
      <point x="475" y="712" type="curve"/>
      <point x="468" y="679" type="line"/>
      <point x="526" y="668" type="line"/>
      <point x="498" y="696" type="line"/>
      <point x="498" y="686"/>
      <point x="501" y="655"/>
      <point x="495" y="623" type="curve" smooth="yes"/>
      <point x="461" y="473" type="line" smooth="yes"/>
      <point x="456" y="453"/>
      <point x="450" y="436"/>
      <point x="446" y="426" type="curve"/>
      <point x="478" y="439" type="line"/>
      <point x="418" y="429" type="line"/>
    </contour>
    <contour>
      <point x="163" y="398" type="line"/>
      <point x="242" y="400"/>
      <point x="226" y="400"/>
      <point x="239" y="400" type="curve" smooth="yes"/>
      <point x="308" y="400" type="line"/>
      <point x="315" y="431" type="line"/>
      <point x="250" y="438" type="line"/>
      <point x="278" y="420" type="line"/>
      <point x="278" y="428"/>
      <point x="278" y="461"/>
      <point x="282" y="486" type="curve" smooth="yes"/>
      <point x="305" y="639" type="line" smooth="yes"/>
      <point x="307" y="653"/>
      <point x="317" y="682"/>
      <point x="318" y="690" type="curve"/>
      <point x="238" y="690" type="line"/>
      <point x="238" y="682"/>
      <point x="238" y="651"/>
      <point x="234" y="623" type="curve" smooth="yes"/>
      <point x="212" y="473" type="line" smooth="yes"/>
      <point x="210" y="460"/>
      <point x="202" y="434"/>
      <point x="199" y="426" type="curve"/>
      <point x="229" y="439" type="line"/>
      <point x="164" y="429" type="line"/>
    </contour>
    <contour>
      <point x="161" y="623" type="line"/>
      <point x="163" y="631"/>
      <point x="170" y="654"/>
      <point x="171" y="656" type="curve" smooth="yes"/>
      <point x="172" y="658"/>
      <point x="183" y="684"/>
      <point x="190" y="698" type="curve"/>
      <point x="156" y="670" type="line"/>
      <point x="168" y="671"/>
      <point x="200" y="673"/>
      <point x="217" y="673" type="curve" smooth="yes"/>
      <point x="336" y="673" type="line" smooth="yes"/>
      <point x="353" y="673"/>
      <point x="377" y="671"/>
      <point x="386" y="670" type="curve"/>
      <point x="365" y="700" type="line"/>
      <point x="370" y="686"/>
      <point x="377" y="661"/>
      <point x="377" y="655" type="curve" smooth="yes"/>
      <point x="377" y="649"/>
      <point x="377" y="629"/>
      <point x="377" y="623" type="curve"/>
      <point x="409" y="625" type="line"/>
      <point x="416" y="704" type="line"/>
      <point x="409" y="712" type="line"/>
      <point x="390" y="712"/>
      <point x="362" y="710"/>
      <point x="353" y="710" type="curve" smooth="yes"/>
      <point x="207" y="710" type="line" smooth="yes"/>
      <point x="199" y="710"/>
      <point x="171" y="712"/>
      <point x="153" y="712" type="curve"/>
      <point x="142" y="704" type="line"/>
      <point x="128" y="625" type="line"/>
    </contour>
  </outline>
</glyph>
<glyph name="leftArrow" format="2">
  <advance width="553.6"/>
  <unicode hex="2190"/>
  <outline>
    <contour>
      <point x="270" y="-8" type="line"/>
      <point x="315" y="43" type="line"/>
      <point x="80" y="278" type="line"/>
      <point x="75" y="233" type="line"/>
      <point x="366" y="468" type="line"/>
      <point x="331" y="518" type="line"/>
      <point x="14" y="263" type="line"/>
      <point x="13" y="248" type="line"/>
    </contour>
    <contour>
      <point x="40" y="225" type="line"/>
      <point x="532" y="225" type="line"/>
      <point x="540" y="281" type="line"/>
      <point x="533" y="291" type="line"/>
      <point x="533" y="291"/>
      <point x="471" y="286"/>
      <point x="423" y="286" type="curve" smooth="yes"/>
      <point x="49" y="286" type="line"/>
    </contour>
  </outline>
</glyph>
<glyph name="upArrow" format="2">
  <advance width="535.4"/>
  <unicode hex="2191"/>
  <outline>
    <contour>
      <point x="55" y="192" type="line"/>
      <point x="316" y="464" type="line"/>
      <point x="271" y="464" type="line"/>
      <point x="466" y="193" type="line"/>
      <point x="522" y="234" type="line"/>
      <point x="308" y="529" type="line"/>
      <point x="293" y="529" type="line"/>
      <point x="9" y="233" type="line"/>
    </contour>
    <contour>
      <point x="205" y="0" type="line"/>
      <point x="265" y="0" type="line"/>
      <point x="274" y="9" type="line"/>
      <point x="274" y="9"/>
      <point x="276" y="62"/>
      <point x="282" y="113" type="curve" smooth="yes"/>
      <point x="329" y="499" type="line"/>
      <point x="267" y="500" type="line"/>
    </contour>
  </outline>
</glyph>
<glyph name="rightArrow" format="2">
  <advance width="553.8"/>
  <unicode hex="2192"/>
  <outline>
    <contour>
      <point x="226" y="-8" type="line"/>
      <point x="542" y="248" type="line"/>
      <point x="544" y="263" type="line"/>
      <point x="287" y="518" type="line"/>
      <point x="241" y="468" type="line"/>
      <point x="476" y="233" type="line"/>
      <point x="482" y="278" type="line"/>
      <point x="190" y="43" type="line"/>
    </contour>
    <contour>
      <point x="24" y="220" type="line"/>
      <point x="24" y="219"/>
      <point x="73" y="225"/>
      <point x="134" y="225" type="curve" smooth="yes"/>
      <point x="506" y="225" type="line"/>
      <point x="514" y="286" type="line"/>
      <point x="23" y="286" type="line"/>
      <point x="17" y="229" type="line"/>
    </contour>
  </outline>
</glyph>
<glyph name="downArrow" format="2">
  <advance width="536.5"/>
  <unicode hex="2193"/>
  <outline>
    <contour>
      <point x="229" y="-11" type="line"/>
      <point x="244" y="-11" type="line"/>
      <point x="529" y="285" type="line"/>
      <point x="482" y="326" type="line"/>
      <point x="221" y="54" type="line"/>
      <point x="267" y="54" type="line"/>
      <point x="71" y="325" type="line"/>
      <point x="16" y="284" type="line"/>
    </contour>
    <contour>
      <point x="210" y="19" type="line"/>
      <point x="271" y="18" type="line"/>
      <point x="332" y="518" type="line"/>
      <point x="273" y="518" type="line"/>
      <point x="264" y="509" type="line"/>
      <point x="265" y="509"/>
      <point x="263" y="456"/>
      <point x="257" y="405" type="curve" smooth="yes"/>
    </contour>
  </outline>
</glyph>
<glyph name="southWestArrow" format="2">
  <advance width="487.7"/>
  <unicode hex="2199"/>
  <outline>
    <contour>
      <point x="47" y="59" type="line"/>
      <point x="430" y="88" type="line"/>
      <point x="431" y="153" type="line"/>
      <point x="78" y="126" type="line"/>
      <point x="107" y="94" type="line"/>
      <point x="175" y="452" type="line"/>
      <point x="112" y="459" type="line"/>
      <point x="38" y="69" type="line"/>
    </contour>
    <contour>
      <point x="87" y="63" type="line"/>
      <point x="477" y="424" type="line"/>
      <point x="442" y="464" type="line"/>
      <point x="428" y="465" type="line"/>
      <point x="428" y="465"/>
      <point x="384" y="423"/>
      <point x="346" y="387" type="curve" smooth="yes"/>
      <point x="49" y="107" type="line"/>
    </contour>
  </outline>
</glyph>
<glyph name="increment" format="2">
  <advance width="776.4"/>
  <unicode hex="2206"/>
  <outline>
    <contour>
      <point x="135" y="41" type="line"/>
      <point x="442" y="639" type="line"/>
      <point x="436" y="639" type="line"/>
      <point x="592" y="41" type="line"/>
      <point x="659" y="48" type="line"/>
      <point x="481" y="756" type="line"/>
      <point x="426" y="756" type="line"/>
      <point x="69" y="48" type="line"/>
    </contour>
    <contour>
      <point x="68" y="0" type="line"/>
      <point x="649" y="0" type="line"/>
      <point x="659" y="48" type="line"/>
      <point x="593" y="53" type="line"/>
      <point x="137" y="53" type="line"/>
      <point x="69" y="48" type="line"/>
    </contour>
  </outline>
</glyph>
<glyph name="summation" format="2">
  <advance width="661.9"/>
  <unicode hex="2211"/>
  <outline>
    <contour>
      <point x="45" y="-228" type="line"/>
      <point x="510" y="-228" type="line"/>
      <point x="519" y="-161" type="line"/>
      <point x="107" y="-166" type="line"/>
      <point x="117" y="-194" type="line"/>
      <point x="466" y="244" type="line"/>
      <point x="237" y="671" type="line"/>
      <point x="220" y="644" type="line"/>
      <point x="593" y="638" type="line"/>
      <point x="602" y="705" type="line"/>
      <point x="173" y="705" type="line"/>
      <point x="156" y="650" type="line"/>
      <point x="397" y="215" type="line"/>
      <point x="403" y="271" type="line"/>
      <point x="42" y="-172" type="line"/>
    </contour>
  </outline>
</glyph>
<glyph name="lessequal" format="2">
  <advance width="629.1"/>
  <unicode hex="2264"/>
  <outline>
    <contour>
      <point x="424" y="97" type="line"/>
      <point x="475" y="156" type="line"/>
      <point x="241" y="354" type="line"/>
      <point x="235" y="313" type="line"/>
      <point x="519" y="510" type="line"/>
      <point x="484" y="569" type="line"/>
      <point x="151" y="333" type="line"/>
    </contour>
    <contour>
      <point x="61" y="0" type="line"/>
      <point x="506" y="0" type="line"/>
      <point x="515" y="69" type="line"/>
      <point x="69" y="64" type="line"/>
    </contour>
  </outline>
</glyph>
<glyph name="asteriskoperator.circled" format="2">
  <advance width="941.7"/>
  <unicode hex="229B"/>
  <outline>
    <contour>
      <point x="443" y="12" type="curve" smooth="yes"/>
      <point x="643" y="12"/>
      <point x="824" y="173"/>
      <point x="849" y="371" type="curve" smooth="yes"/>
      <point x="851" y="387"/>
      <point x="852" y="403"/>
      <point x="852" y="419" type="curve" smooth="yes"/>
      <point x="852" y="599"/>
      <point x="713" y="739"/>
      <point x="528" y="739" type="curve" smooth="yes"/>
      <point x="328" y="739"/>
      <point x="147" y="578"/>
      <point x="123" y="379" type="curve" smooth="yes"/>
      <point x="121" y="364"/>
      <point x="120" y="349"/>
      <point x="120" y="335" type="curve" smooth="yes"/>
      <point x="120" y="154"/>
      <point x="257" y="12"/>
    </contour>
    <contour>
      <point x="444" y="59" type="curve" smooth="yes"/>
      <point x="285" y="59"/>
      <point x="167" y="179"/>
      <point x="167" y="332" type="curve" smooth="yes"/>
      <point x="167" y="345"/>
      <point x="168" y="358"/>
      <point x="170" y="371" type="curve" smooth="yes"/>
      <point x="192" y="548"/>
      <point x="352" y="692"/>
      <point x="528" y="692" type="curve" smooth="yes"/>
      <point x="687" y="692"/>
      <point x="806" y="572"/>
      <point x="806" y="418" type="curve" smooth="yes"/>
      <point x="806" y="405"/>
      <point x="805" y="392"/>
      <point x="803" y="379" type="curve" smooth="yes"/>
      <point x="782" y="203"/>
      <point x="620" y="59"/>
    </contour>
    <contour>
      <point x="565" y="188" type="line"/>
      <point x="627" y="237" type="line"/>
      <point x="538" y="353" type="line"/>
      <point x="687" y="394" type="line"/>
      <point x="668" y="465" type="line"/>
      <point x="520" y="405" type="line"/>
      <point x="545" y="561" type="line"/>
      <point x="468" y="557" type="line"/>
      <point x="461" y="408" type="line"/>
      <point x="331" y="465" type="line"/>
      <point x="300" y="391" type="line"/>
      <point x="433" y="353" type="line"/>
      <point x="315" y="237" type="line"/>
      <point x="373" y="191" type="line"/>
      <point x="484" y="325" type="line"/>
    </contour>
  </outline>
</glyph>
<glyph name="whiteSquare" format="2">
  <advance width="678.4"/>
  <unicode hex="25A1"/>
  <outline>
    <contour>
      <point x="87" y="83" type="line"/>
      <point x="616" y="83" type="line"/>
      <point x="616" y="612" type="line"/>
      <point x="87" y="612" type="line"/>
    </contour>
    <contour>
      <point x="152" y="112" type="line"/>
      <point x="152" y="583" type="line"/>
      <point x="116" y="548" type="line"/>
      <point x="587" y="548" type="line"/>
      <point x="552" y="583" type="line"/>
      <point x="552" y="112" type="line"/>
      <point x="587" y="147" type="line"/>
      <point x="116" y="147" type="line"/>
    </contour>
  </outline>
</glyph>
<glyph name="upBlackTriangle" format="2">
  <advance width="408.9"/>
  <unicode hex="25B2"/>
  <outline>
    <contour>
      <point x="2" y="83" type="line"/>
      <point x="374" y="83" type="line"/>
      <point x="188" y="419" type="line"/>
    </contour>
  </outline>
</glyph>
<glyph name="upWhiteTriangle" format="2">
  <advance width="609.5"/>
  <unicode hex="25B3"/>
  <outline>
    <contour>
      <point x="-6" y="90" type="line"/>
      <point x="579" y="90" type="line"/>
      <point x="287" y="615" type="line"/>
    </contour>
    <contour>
      <point x="80" y="121" type="line"/>
      <point x="304" y="520" type="line"/>
      <point x="270" y="520" type="line"/>
      <point x="494" y="121" type="line"/>
      <point x="510" y="151" type="line"/>
      <point x="64" y="151" type="line"/>
    </contour>
  </outline>
</glyph>
<glyph name="rightBlackTriangle" format="2">
  <advance width="423.9"/>
  <unicode hex="25B6"/>
  <outline>
    <contour>
      <point x="76" y="76" type="line"/>
      <point x="411" y="262" type="line"/>
      <point x="76" y="448" type="line"/>
    </contour>
  </outline>
</glyph>
<glyph name="rightWhiteTriangle" format="2">
  <advance width="612.5"/>
  <unicode hex="25B7"/>
  <outline>
    <contour>
      <point x="88" y="61" type="line"/>
      <point x="616" y="353" type="line"/>
      <point x="88" y="645" type="line"/>
    </contour>
    <contour>
      <point x="149" y="130" type="line"/>
      <point x="149" y="576" type="line"/>
      <point x="119" y="560" type="line"/>
      <point x="521" y="336" type="line"/>
      <point x="521" y="370" type="line"/>
      <point x="119" y="146" type="line"/>
    </contour>
  </outline>
</glyph>
<glyph name="downBlackTriangle" format="2">
  <advance width="408.9"/>
  <unicode hex="25BC"/>
  <outline>
    <contour>
      <point x="224" y="94" type="line"/>
      <point x="410" y="429" type="line"/>
      <point x="38" y="429" type="line"/>
    </contour>
  </outline>
</glyph>
<glyph name="whiteDiamond" format="2">
  <advance width="547.5"/>
  <unicode hex="25C7"/>
  <outline>
    <contour>
      <point x="286" y="67" type="line"/>
      <point x="548" y="349" type="line"/>
      <point x="286" y="635" type="line"/>
      <point x="24" y="358" type="line"/>
    </contour>
    <contour>
      <point x="266" y="141" type="line"/>
      <point x="306" y="141" type="line"/>
      <point x="92" y="372" type="line"/>
      <point x="92" y="327" type="line"/>
      <point x="306" y="561" type="line"/>
      <point x="266" y="561" type="line"/>
      <point x="481" y="327" type="line"/>
      <point x="481" y="372" type="line"/>
    </contour>
  </outline>
</glyph>
<glyph name="lozenge" format="2">
  <advance width="547.5"/>
  <unicode hex="25CA"/>
  <outline>
    <contour>
      <point x="278" y="2" type="line"/>
      <point x="540" y="284" type="line"/>
      <point x="278" y="570" type="line"/>
      <point x="16" y="293" type="line"/>
    </contour>
    <contour>
      <point x="260" y="76" type="line"/>
      <point x="297" y="76" type="line"/>
      <point x="83" y="306" type="line"/>
      <point x="83" y="264" type="line"/>
      <point x="297" y="497" type="line"/>
      <point x="260" y="497" type="line"/>
      <point x="474" y="264" type="line"/>
      <point x="474" y="306" type="line"/>
    </contour>
  </outline>
</glyph>
<glyph name="whiteCircle" format="2">
  <advance width="790"/>
  <unicode hex="25CB"/>
  <outline>
    <contour>
      <point x="407" y="-11" type="curve" smooth="yes"/>
      <point x="608" y="-11"/>
      <point x="771" y="152"/>
      <point x="771" y="352" type="curve" smooth="yes"/>
      <point x="771" y="553"/>
      <point x="608" y="716"/>
      <point x="407" y="716" type="curve" smooth="yes"/>
      <point x="207" y="716"/>
      <point x="44" y="553"/>
      <point x="44" y="352" type="curve" smooth="yes"/>
      <point x="44" y="152"/>
      <point x="207" y="-11"/>
    </contour>
    <contour>
      <point x="407" y="51" type="curve" smooth="yes"/>
      <point x="242" y="51"/>
      <point x="106" y="187"/>
      <point x="106" y="352" type="curve" smooth="yes"/>
      <point x="106" y="519"/>
      <point x="242" y="654"/>
      <point x="407" y="654" type="curve" smooth="yes"/>
      <point x="574" y="654"/>
      <point x="709" y="519"/>
      <point x="709" y="352" type="curve" smooth="yes"/>
      <point x="709" y="187"/>
      <point x="574" y="51"/>
    </contour>
  </outline>
</glyph>
